<svg id="Component_1_1" data-name="Component 1 – 1" xmlns="http://www.w3.org/2000/svg" xmlns:xlink="http://www.w3.org/1999/xlink" width="362.925" height="99.2" viewBox="0 0 362.925 99.2">
  <defs>
    <clipPath id="clip-path">
      <rect id="Rectangle_9" data-name="Rectangle 9" width="362.925" height="99.2" fill="#ffffff"/>
    </clipPath>
  </defs>
  <g id="Group_1" data-name="Group 1" clip-path="url(#clip-path)">
    <path id="Path_1" data-name="Path 1" d="M61.046,95.633a23.3,23.3,0,0,1,9.45,1.984H63.377a21.289,21.289,0,0,0-4.662,0H51.6a23.3,23.3,0,0,1,9.45-1.984m13.524-.287a27.253,27.253,0,0,0-30.4,2.271H47.35a25.421,25.421,0,0,1,27.392,0H77.17a26.844,26.844,0,0,0-2.343-1.587Zm-60-1.585A27.6,27.6,0,0,0,3.11,91.292c-.217,0-.434,0-.65.007L1.355,94.137q.871-.06,1.755-.061a24.842,24.842,0,0,1,10.477,2.3l.163-.433a25.215,25.215,0,0,1,3.056,1.678H19.99A27.1,27.1,0,0,0,14.406,94.2Zm25.108,3.856h1.394A29.294,29.294,0,0,1,73.5,92.5l-.234-.62a29.684,29.684,0,0,1,8.429,5.734h1.334c-.106-.1-.212-.2-.314-.3l-.174-.174a30.572,30.572,0,0,0-9.731-6.471l-.223-.591a31.169,31.169,0,0,0-33.534,6.907q-.333.333-.691.628ZM15.122,92.3a29.188,29.188,0,0,1,7.961,5.318H25.8q-.357-.3-.691-.628h0a31.093,31.093,0,0,0-9.327-6.43l.164-.437a31.437,31.437,0,0,0-11.974-2.7L2.888,90.2l.222,0a28.7,28.7,0,0,1,11.848,2.537Zm51.4-13.12a7.906,7.906,0,0,1-1.457,1.149q1.4.142,2.778.384c.036-.035.073-.068.108-.1l.151.151-.151-.151c.257-.258.519-.508.784-.755l.177.469A30.476,30.476,0,0,1,79.8,73.674l.339.873a29.6,29.6,0,0,0-10.411,6.28l-.467.435.082.216.6.14c.8.189,1.577.4,2.31.62l.242.073.193-.163a26.585,26.585,0,0,1,8.528-4.839l.328.845a25.6,25.6,0,0,0-7.357,3.973l-.664.513.788.29c.747.274,1.481.569,2.182.877l.238.105.213-.148a22.652,22.652,0,0,1,5.671-2.849l.338.871A21.709,21.709,0,0,0,78.4,83.921l-.7.434.734.374c.68.346,1.367.723,2.042,1.12l.226.133.23-.124a18.733,18.733,0,0,1,3.084-1.32l.337.867a17.851,17.851,0,0,0-1.992.778l-.752.347.689.46c.628.419,1.272.879,1.914,1.366l.2.155.24-.089c.253-.095.51-.18.767-.26l.335.862-.5.14.663.565c.057.049.113.1.17.15l.747,1.924a37.289,37.289,0,0,0-13.568-8.255q-.578-.2-1.163-.379-1.17-.36-2.365-.643l.2.522a37.226,37.226,0,0,0-8.888-1.069A36.759,36.759,0,0,0,34.983,92.714l-.1.1a3.964,3.964,0,0,1-5.6,0l-.2-.2a36.971,36.971,0,0,0-11.212-7.59l-.164.435A36.381,36.381,0,0,0,5.868,82.545L8.33,76.224a35.14,35.14,0,0,1,15.88-8.212l-.181.519a35.256,35.256,0,0,1,7.977-.911A34.753,34.753,0,0,1,56.743,77.867h0a5.984,5.984,0,0,0,8.463,0q1-1,2.06-1.9l.174.462A34.282,34.282,0,0,1,78.4,70.054l.336.866a33.37,33.37,0,0,0-10.944,6.432l.175.465Q67.224,78.475,66.518,79.179ZM35.838,89.406a13.808,13.808,0,0,0-7.556-.03q.938.8,1.83,1.664a11.712,11.712,0,0,1,3.91.021q.886-.858,1.816-1.655m3.642-2.764A17.7,17.7,0,0,0,24.618,86.6q.987.659,1.937,1.383a15.655,15.655,0,0,1,11,.037q.947-.722,1.928-1.382m3.89-2.286a21.512,21.512,0,0,0-22.663-.041q1.05.534,2.067,1.135a19.53,19.53,0,0,1,18.537.041q1.012-.6,2.059-1.135m-33.357-4.4a31.389,31.389,0,0,1,12.588-7.5l-.208.552A31.184,31.184,0,0,1,54,80.609c.042.043.087.083.131.125q1.375-.245,2.776-.392a7.894,7.894,0,0,1-1.478-1.163,32.907,32.907,0,0,0-23.424-9.7,33.312,33.312,0,0,0-8.717,1.154l-.2.538A32.477,32.477,0,0,0,9.007,79.409l-.1.1-.051.051-.277.277-.009-.009c-.068.061-.137.121-.208.18.465.062.928.131,1.385.209l.077-.077.185-.185Zm10.54-2.067A27.281,27.281,0,0,1,49.6,81.827q1.152-.353,2.328-.633a29.308,29.308,0,0,0-30.4-5.916l-.223.59a28.67,28.67,0,0,0-8.247,5.058q.652.168,1.273.352a27.512,27.512,0,0,1,6.439-3.99Zm-1.232,3.27q-.939.56-1.837,1.2c.407.159.807.324,1.2.492l-.165.438c.074.031.148.06.221.093a23.377,23.377,0,0,1,26.591.038c.723-.321,1.458-.616,2.2-.891a25.4,25.4,0,0,0-27.952-2.052Zm-2.828,7.5a33.1,33.1,0,0,1,10.041,6.9h0a7.794,7.794,0,0,0,3.613,2.058h3.863a7.786,7.786,0,0,0,3.612-2.058,33.208,33.208,0,0,1,34.022-7.978l-.211-.558A33.433,33.433,0,0,1,84.8,95.231l.082.082a7.317,7.317,0,0,0,4.093,2.006l-.059-.152-.336-.864a6.448,6.448,0,0,1-3.125-1.727l-.187-.188a34.33,34.33,0,0,0-14.251-8.469l-.2-.542A35.123,35.123,0,0,0,61.046,84,34.751,34.751,0,0,0,36.309,94.247a5.985,5.985,0,0,1-8.463,0h0a34.938,34.938,0,0,0-10.7-7.323l.164-.437a35.222,35.222,0,0,0-11.86-2.872L4.388,86.347A32.521,32.521,0,0,1,16.329,89.1ZM.914,95.27,0,97.617H13.118L13.2,97.4A23.736,23.736,0,0,0,3.11,95.169c-.738,0-1.47.035-2.2.1M77.328,67.3a37.2,37.2,0,0,0-10.992,6.2l.174.461q-1.362,1.118-2.631,2.372l-.1.1a3.964,3.964,0,0,1-5.6,0l-.2-.2A36.756,36.756,0,0,0,32.006,65.6a37.36,37.36,0,0,0-7.195.7l-.178.509A36.178,36.178,0,0,0,9.165,74.078L37.986.056H51.24ZM44.786,38.639a9.129,9.129,0,1,0,8.825,8.826,9.129,9.129,0,0,0-8.825-8.826" fill="#ffffff"/>
    <path id="Path_2" data-name="Path 2" d="M278.827,5.113A4.055,4.055,0,0,1,282.989.707c2.459,0,4.1,1.781,4.1,4.406a4.055,4.055,0,0,1-4.163,4.407c-2.459,0-4.1-1.781-4.1-4.407m6.929.026V5.075c0-1.985-1.063-3.215-2.779-3.215s-2.818,1.2-2.818,3.215v.064c0,2,1.063,3.228,2.779,3.228s2.818-1.2,2.818-3.228" fill="#ffffff"/>
    <rect id="Rectangle_1" data-name="Rectangle 1" width="1.268" height="8.633" transform="translate(288.381 0.733)" fill="#ffffff"/>
    <rect id="Rectangle_2" data-name="Rectangle 2" width="1.268" height="8.633" transform="translate(291.238 0.733)" fill="#ffffff"/>
    <path id="Path_3" data-name="Path 3" d="M293.7,8.264l1.089-.577a1.961,1.961,0,0,0,1.639.808c.679,0,1.089-.308,1.089-.808,0-.525-.7-.64-1.653-.845-1.1-.23-2.087-.615-2.087-1.78a2.072,2.072,0,0,1,2.28-1.87,3.175,3.175,0,0,1,2.613,1.293l-1.089.538a1.776,1.776,0,0,0-1.524-.807c-.654,0-1.076.308-1.076.769,0,.5.41.589,1.511.807s2.242.615,2.242,1.806a2.105,2.105,0,0,1-2.357,1.934A3.226,3.226,0,0,1,293.7,8.264" fill="#ffffff"/>
    <path id="Path_4" data-name="Path 4" d="M299.55,6.33a2.938,2.938,0,0,1,3-3.113,2.633,2.633,0,0,1,2.69,1.947l-1.2.372a1.456,1.456,0,0,0-1.512-1.255c-1.05,0-1.7.832-1.7,2.036v.051c0,1.192.615,2.037,1.665,2.037a1.489,1.489,0,0,0,1.6-1.319l1.2.371a2.713,2.713,0,0,1-2.779,2.011A2.887,2.887,0,0,1,299.55,6.33" fill="#ffffff"/>
    <path id="Path_5" data-name="Path 5" d="M305.992,6.355a3.031,3.031,0,1,1,6.058,0A2.964,2.964,0,0,1,309,9.468a2.919,2.919,0,0,1-3.01-3.113m4.79.039V6.343c0-1.268-.679-2.062-1.754-2.062s-1.768.794-1.768,2.062v.051c0,1.242.666,2.011,1.742,2.011a1.778,1.778,0,0,0,1.78-2.011" fill="#ffffff"/>
    <path id="Path_6" data-name="Path 6" d="M313.255,1.015h1.358V2.347h-1.358Zm.038,2.3h1.268V9.366h-1.268Z" fill="#ffffff"/>
    <rect id="Rectangle_3" data-name="Rectangle 3" width="1.268" height="8.633" transform="translate(316.162 0.733)" fill="#ffffff"/>
    <path id="Path_7" data-name="Path 7" d="M281.4,16.292h-2.7v-1.14h6.7v1.14h-2.715v7.365H281.4Z" fill="#ffffff"/>
    <path id="Path_8" data-name="Path 8" d="M284.743,20.673a2.945,2.945,0,0,1,2.959-3.164c1.78,0,2.843,1.191,2.843,3.1v.461H286a1.651,1.651,0,0,0,1.754,1.665,1.628,1.628,0,0,0,1.7-1.089l1.114.436a2.818,2.818,0,0,1-2.818,1.678,2.852,2.852,0,0,1-3.01-3.087m4.509-.551a1.476,1.476,0,0,0-1.576-1.588,1.676,1.676,0,0,0-1.7,1.588Z" fill="#ffffff"/>
    <path id="Path_9" data-name="Path 9" d="M291.775,15.306h1.358v1.332h-1.358Zm.039,2.306h1.268v6.046h-1.268Z" fill="#ffffff"/>
    <path id="Path_10" data-name="Path 10" d="M294.337,20.621a2.937,2.937,0,0,1,3-3.112,2.632,2.632,0,0,1,2.69,1.948l-1.2.37a1.457,1.457,0,0,0-1.512-1.254c-1.05,0-1.7.833-1.7,2.036v.051c0,1.192.615,2.037,1.665,2.037a1.488,1.488,0,0,0,1.6-1.319l1.2.371a2.713,2.713,0,0,1-2.779,2.01,2.887,2.887,0,0,1-2.959-3.138" fill="#ffffff"/>
    <path id="Path_11" data-name="Path 11" d="M301.177,17.611h1.255v1.141a1.863,1.863,0,0,1,1.857-1.269c1.307,0,2.1.885,2.1,2.5v3.677h-1.268V20.046c0-.949-.4-1.449-1.217-1.449-.935,0-1.473.783-1.473,2.165v2.9h-1.255Z" fill="#ffffff"/>
    <path id="Path_12" data-name="Path 12" d="M307.529,20.673a2.945,2.945,0,0,1,2.959-3.164c1.781,0,2.843,1.191,2.843,3.1v.461h-4.546a1.651,1.651,0,0,0,1.754,1.665,1.628,1.628,0,0,0,1.7-1.089l1.114.436a2.818,2.818,0,0,1-2.818,1.678,2.852,2.852,0,0,1-3.01-3.087m4.509-.551a1.476,1.476,0,0,0-1.576-1.588,1.675,1.675,0,0,0-1.7,1.588Z" fill="#ffffff"/>
    <path id="Path_13" data-name="Path 13" d="M314.266,20.648a3.031,3.031,0,1,1,6.058,0,2.963,2.963,0,0,1-3.048,3.112,2.919,2.919,0,0,1-3.01-3.112m4.79.038v-.051c0-1.268-.679-2.063-1.755-2.063s-1.767.8-1.767,2.063v.051c0,1.242.666,2.011,1.742,2.011a1.778,1.778,0,0,0,1.78-2.011" fill="#ffffff"/>
    <rect id="Rectangle_4" data-name="Rectangle 4" width="1.268" height="8.633" transform="translate(321.567 15.024)" fill="#ffffff"/>
    <path id="Path_14" data-name="Path 14" d="M324.1,22.069c0-1.358,1.012-1.665,2.357-1.96,1.025-.217,1.652-.281,1.78-.614v-.09c0-.5-.371-.884-1.293-.884-.9,0-1.384.41-1.435,1.089v.077h-1.268c.039-1.358,1.114-2.178,2.715-2.178,1.55,0,2.473.692,2.473,2.229v2.984l.012.935h-1.217v-.909a2.229,2.229,0,0,1-2.036,1.063c-1.294,0-2.088-.7-2.088-1.742m4.137-.845v-.743a5.368,5.368,0,0,1-1.6.5c-.692.18-1.255.4-1.255,1.038,0,.5.371.832,1.037.832a1.677,1.677,0,0,0,1.819-1.626" fill="#ffffff"/>
    <path id="Path_15" data-name="Path 15" d="M330.943,17.612h1.268v6.046h-1.268Zm.755-2.767h1.307v.115L331.7,16.715h-.679Z" fill="#ffffff"/>
    <path id="Path_16" data-name="Path 16" d="M333.466,20.648a3.031,3.031,0,1,1,6.058,0,2.963,2.963,0,0,1-3.048,3.112,2.919,2.919,0,0,1-3.01-3.112m4.79.038v-.051c0-1.268-.679-2.063-1.755-2.063s-1.767.8-1.767,2.063v.051c0,1.242.666,2.011,1.742,2.011a1.778,1.778,0,0,0,1.78-2.011" fill="#ffffff"/>
    <path id="Path_17" data-name="Path 17" d="M340.42,20.621a2.937,2.937,0,0,1,3-3.112,2.632,2.632,0,0,1,2.69,1.948l-1.2.37a1.457,1.457,0,0,0-1.512-1.254c-1.05,0-1.7.833-1.7,2.036v.051c0,1.192.615,2.037,1.665,2.037a1.488,1.488,0,0,0,1.6-1.319l1.2.371a2.713,2.713,0,0,1-2.779,2.01,2.887,2.887,0,0,1-2.959-3.138" fill="#ffffff"/>
    <path id="Path_18" data-name="Path 18" d="M347.26,15.024h1.23V18.8a1.818,1.818,0,0,1,1.844-1.293c1.306,0,2.1.858,2.1,2.472v3.676h-1.268V20.045c0-.948-.4-1.447-1.216-1.447-.935,0-1.46.781-1.46,2.164v2.9h-1.23Z" fill="#ffffff"/>
    <path id="Path_19" data-name="Path 19" d="M354.2,22.146V18.688h-.961V17.612h.961V16.433l1.217-.755v1.934h1.306v1.076h-1.306v3.3c0,.385.153.564.538.564h.717v1.1H355.6c-1.1-.051-1.383-.55-1.4-1.511" fill="#ffffff"/>
    <path id="Path_20" data-name="Path 20" d="M357.584,22.069c0-1.358,1.012-1.665,2.357-1.96,1.025-.217,1.652-.281,1.78-.614v-.09c0-.5-.371-.884-1.293-.884-.9,0-1.384.41-1.435,1.089v.077h-1.268c.039-1.358,1.114-2.178,2.715-2.178,1.55,0,2.473.692,2.473,2.229v2.984l.012.935h-1.217v-.909a2.229,2.229,0,0,1-2.036,1.063c-1.294,0-2.088-.7-2.088-1.742m4.137-.845v-.743a5.368,5.368,0,0,1-1.6.5c-.692.18-1.255.4-1.255,1.038,0,.5.371.832,1.037.832a1.677,1.677,0,0,0,1.819-1.626" fill="#ffffff"/>
    <path id="Path_21" data-name="Path 21" d="M278.775,36.36c0-1.358,1.012-1.665,2.357-1.96,1.025-.217,1.652-.281,1.78-.614V33.7c0-.5-.371-.884-1.293-.884-.9,0-1.384.41-1.435,1.089v.077h-1.268c.039-1.358,1.114-2.178,2.715-2.178,1.55,0,2.473.692,2.473,2.229v2.984l.012.935H282.9v-.909a2.229,2.229,0,0,1-2.036,1.063c-1.294,0-2.088-.7-2.088-1.742m4.137-.845v-.743a5.368,5.368,0,0,1-1.6.5c-.692.18-1.255.4-1.255,1.038,0,.5.371.832,1.037.832a1.677,1.677,0,0,0,1.819-1.626" fill="#ffffff"/>
    <path id="Path_22" data-name="Path 22" d="M285.615,31.9h1.255v1.14a1.864,1.864,0,0,1,1.857-1.268c1.307,0,2.1.884,2.1,2.5v3.676H289.56V34.337c0-.948-.4-1.448-1.217-1.448-.935,0-1.473.782-1.473,2.165v2.9h-1.255Z" fill="#ffffff"/>
    <path id="Path_23" data-name="Path 23" d="M297.642,29.444h1.5l3.113,8.505h-1.358l-.884-2.472h-3.33l-.923,2.472h-1.319Zm1.972,4.906-1.255-3.51-1.294,3.51Z" fill="#ffffff"/>
    <path id="Path_24" data-name="Path 24" d="M303.252,36.437V32.979h-.961V31.9h.961V30.724l1.217-.755V31.9h1.306v1.076h-1.306v3.3c0,.385.153.564.538.564h.717v1.1h-1.076c-1.1-.051-1.383-.55-1.4-1.511" fill="#ffffff"/>
    <rect id="Rectangle_5" data-name="Rectangle 5" width="1.268" height="8.633" transform="translate(307.03 29.316)" fill="#ffffff"/>
    <path id="Path_25" data-name="Path 25" d="M309.566,36.36c0-1.358,1.012-1.665,2.357-1.96,1.025-.217,1.652-.281,1.78-.614V33.7c0-.5-.371-.884-1.293-.884-.9,0-1.384.41-1.435,1.089v.077h-1.268c.039-1.358,1.114-2.178,2.715-2.178,1.55,0,2.473.692,2.473,2.229v2.984l.012.935H313.69v-.909a2.229,2.229,0,0,1-2.036,1.063c-1.294,0-2.088-.7-2.088-1.742m4.137-.845v-.743a5.368,5.368,0,0,1-1.6.5c-.692.18-1.255.4-1.255,1.038,0,.5.371.832,1.037.832a1.677,1.677,0,0,0,1.819-1.626" fill="#ffffff"/>
    <path id="Path_26" data-name="Path 26" d="M316.4,31.9h1.255v1.14a1.864,1.864,0,0,1,1.857-1.268c1.307,0,2.1.884,2.1,2.5v3.676H320.35V34.337c0-.948-.4-1.448-1.217-1.448-.935,0-1.473.782-1.473,2.165v2.9H316.4Z" fill="#ffffff"/>
    <path id="Path_27" data-name="Path 27" d="M323.386,36.437V32.979h-.961V31.9h.961V30.724l1.217-.755V31.9h1.306v1.076H324.6v3.3c0,.385.153.564.538.564h.717v1.1h-1.076c-1.1-.051-1.383-.55-1.4-1.511" fill="#ffffff"/>
    <path id="Path_28" data-name="Path 28" d="M326.767,36.36c0-1.358,1.012-1.665,2.357-1.96,1.025-.217,1.652-.281,1.78-.614V33.7c0-.5-.371-.884-1.293-.884-.9,0-1.384.41-1.435,1.089v.077h-1.268c.039-1.358,1.114-2.178,2.715-2.178,1.55,0,2.473.692,2.473,2.229v2.984l.012.935h-1.217v-.909a2.229,2.229,0,0,1-2.036,1.063c-1.294,0-2.088-.7-2.088-1.742m4.137-.845v-.743a5.368,5.368,0,0,1-1.6.5c-.692.18-1.255.4-1.255,1.038,0,.5.371.832,1.038.832a1.676,1.676,0,0,0,1.818-1.626" fill="#ffffff"/>
    <path id="Path_29" data-name="Path 29" d="M333.569,29.6h1.358V30.93h-1.358Zm.038,2.305h1.268v6.046h-1.268Z" fill="#ffffff"/>
    <path id="Path_30" data-name="Path 30" d="M336.45,38.051h1.256c0,.935.4,1.319,1.46,1.319,1.216,0,1.69-.461,1.69-1.639v-.91a2.291,2.291,0,0,1-2,1,2.7,2.7,0,0,1-2.728-2.984v-.013a2.737,2.737,0,0,1,2.728-3.048,2.294,2.294,0,0,1,1.947.961V31.9h1.268v5.546c0,2.037-.9,2.959-2.869,2.959-1.857,0-2.754-.769-2.754-2.357m4.419-3.228v-.1a1.667,1.667,0,0,0-1.7-1.883,1.7,1.7,0,0,0-1.717,1.934v.1a1.652,1.652,0,0,0,1.717,1.883,1.717,1.717,0,0,0,1.7-1.934" fill="#ffffff"/>
    <path id="Path_31" data-name="Path 31" d="M343.649,29.316h1.23V33.1a1.818,1.818,0,0,1,1.844-1.294c1.306,0,2.1.858,2.1,2.472v3.676h-1.268V34.337c0-.948-.4-1.447-1.216-1.447-.935,0-1.46.781-1.46,2.164v2.9h-1.23Z" fill="#ffffff"/>
    <path id="Path_32" data-name="Path 32" d="M281.837,58.026h1.5l3.113,8.5H285.09l-.884-2.472h-3.33l-.923,2.472h-1.319Zm1.972,4.906-1.255-3.51-1.294,3.51Z" fill="#ffffff"/>
    <path id="Path_33" data-name="Path 33" d="M287.446,65.02V61.562h-.961V60.486h.961V59.307l1.217-.755v1.934h1.306v1.076h-1.306v3.3c0,.385.153.564.538.564h.717v1.1h-1.076c-1.1-.051-1.383-.55-1.4-1.511" fill="#ffffff"/>
    <rect id="Rectangle_6" data-name="Rectangle 6" width="1.268" height="8.633" transform="translate(291.225 57.898)" fill="#ffffff"/>
    <path id="Path_34" data-name="Path 34" d="M293.76,64.942c0-1.358,1.012-1.665,2.357-1.96,1.025-.217,1.652-.281,1.78-.614v-.09c0-.5-.371-.884-1.293-.884-.9,0-1.384.41-1.435,1.089v.077H293.9c.039-1.358,1.114-2.178,2.715-2.178,1.55,0,2.473.692,2.473,2.229V65.6l.012.935h-1.217v-.909a2.229,2.229,0,0,1-2.036,1.063c-1.294,0-2.088-.7-2.088-1.742M297.9,64.1v-.743a5.368,5.368,0,0,1-1.6.5c-.692.18-1.255.4-1.255,1.038,0,.5.371.832,1.037.832A1.677,1.677,0,0,0,297.9,64.1" fill="#ffffff"/>
    <path id="Path_35" data-name="Path 35" d="M300.6,60.485h1.255v1.14a1.864,1.864,0,0,1,1.857-1.268c1.307,0,2.1.884,2.1,2.5v3.676h-1.268V62.919c0-.948-.4-1.448-1.217-1.448-.935,0-1.473.782-1.473,2.165v2.895H300.6Z" fill="#ffffff"/>
    <path id="Path_36" data-name="Path 36" d="M307.58,65.02V61.562h-.961V60.486h.961V59.307l1.217-.755v1.934H310.1v1.076H308.8v3.3c0,.385.153.564.538.564h.717v1.1h-1.076c-1.1-.051-1.383-.55-1.4-1.511" fill="#ffffff"/>
    <path id="Path_37" data-name="Path 37" d="M311.321,58.18h1.358v1.332h-1.358Zm.038,2.305h1.268v6.046h-1.268Z" fill="#ffffff"/>
    <path id="Path_38" data-name="Path 38" d="M313.882,63.495a2.937,2.937,0,0,1,3-3.112,2.631,2.631,0,0,1,2.69,1.947l-1.2.371a1.457,1.457,0,0,0-1.512-1.255c-1.05,0-1.7.833-1.7,2.036v.051c0,1.192.615,2.037,1.665,2.037a1.488,1.488,0,0,0,1.6-1.319l1.2.371a2.713,2.713,0,0,1-2.779,2.011,2.887,2.887,0,0,1-2.959-3.138" fill="#ffffff"/>
    <path id="Path_39" data-name="Path 39" d="M281.4,73.457h-2.7v-1.14h6.7v1.14h-2.715v7.365H281.4Z" fill="#ffffff"/>
    <path id="Path_40" data-name="Path 40" d="M284.743,77.838a2.945,2.945,0,0,1,2.959-3.164c1.78,0,2.843,1.191,2.843,3.1v.461H286a1.651,1.651,0,0,0,1.754,1.665,1.628,1.628,0,0,0,1.7-1.089l1.114.436a2.818,2.818,0,0,1-2.818,1.678,2.852,2.852,0,0,1-3.01-3.087m4.509-.551a1.476,1.476,0,0,0-1.576-1.588,1.676,1.676,0,0,0-1.7,1.588Z" fill="#ffffff"/>
    <path id="Path_41" data-name="Path 41" d="M291.493,77.787a2.937,2.937,0,0,1,3-3.112,2.631,2.631,0,0,1,2.69,1.947l-1.2.371a1.457,1.457,0,0,0-1.512-1.255c-1.05,0-1.7.833-1.7,2.036v.051c0,1.192.615,2.037,1.665,2.037a1.488,1.488,0,0,0,1.6-1.319l1.2.371a2.713,2.713,0,0,1-2.779,2.011,2.887,2.887,0,0,1-2.959-3.138" fill="#ffffff"/>
    <path id="Path_42" data-name="Path 42" d="M298.333,72.189h1.23v3.779a1.818,1.818,0,0,1,1.844-1.294c1.306,0,2.1.858,2.1,2.472v3.676h-1.268V77.21c0-.948-.4-1.447-1.216-1.447-.935,0-1.46.781-1.46,2.164v2.895h-1.23Z" fill="#ffffff"/>
    <path id="Path_43" data-name="Path 43" d="M304.993,74.777h1.255v1.14a1.864,1.864,0,0,1,1.857-1.268c1.307,0,2.1.884,2.1,2.5v3.676h-1.268V77.211c0-.948-.4-1.448-1.217-1.448-.935,0-1.473.782-1.473,2.165v2.895h-1.255Z" fill="#ffffff"/>
    <path id="Path_44" data-name="Path 44" d="M311.346,77.813a3.03,3.03,0,1,1,3.01,3.112,2.919,2.919,0,0,1-3.01-3.112m4.791.038V77.8c0-1.268-.68-2.063-1.755-2.063s-1.767.795-1.767,2.063v.051c0,1.242.665,2.011,1.741,2.011a1.778,1.778,0,0,0,1.781-2.011" fill="#ffffff"/>
    <rect id="Rectangle_7" data-name="Rectangle 7" width="1.268" height="8.633" transform="translate(318.647 72.189)" fill="#ffffff"/>
    <path id="Path_45" data-name="Path 45" d="M321.158,77.813a3.03,3.03,0,1,1,3.01,3.112,2.919,2.919,0,0,1-3.01-3.112m4.79.038V77.8c0-1.268-.679-2.063-1.755-2.063s-1.767.795-1.767,2.063v.051c0,1.242.666,2.011,1.742,2.011a1.778,1.778,0,0,0,1.78-2.011" fill="#ffffff"/>
    <path id="Path_46" data-name="Path 46" d="M328.432,80.925h1.256c0,.935.4,1.319,1.46,1.319,1.216,0,1.69-.461,1.69-1.639v-.91a2.291,2.291,0,0,1-2,1,2.7,2.7,0,0,1-2.728-2.984V77.7a2.737,2.737,0,0,1,2.728-3.048,2.294,2.294,0,0,1,1.947.961v-.833h1.268v5.546c0,2.037-.9,2.959-2.869,2.959-1.857,0-2.754-.769-2.754-2.357m4.419-3.228v-.1a1.667,1.667,0,0,0-1.7-1.883,1.7,1.7,0,0,0-1.717,1.934v.1a1.652,1.652,0,0,0,1.717,1.882,1.717,1.717,0,0,0,1.7-1.934" fill="#ffffff"/>
    <path id="Path_47" data-name="Path 47" d="M335.592,72.471h1.358V73.8h-1.358Zm.039,2.306H336.9v6.046h-1.268Z" fill="#ffffff"/>
    <path id="Path_48" data-name="Path 48" d="M338.154,77.787a2.937,2.937,0,0,1,3-3.112,2.631,2.631,0,0,1,2.69,1.947l-1.2.371a1.457,1.457,0,0,0-1.512-1.255c-1.05,0-1.7.833-1.7,2.036v.051c0,1.192.615,2.037,1.665,2.037a1.488,1.488,0,0,0,1.6-1.319l1.2.371a2.713,2.713,0,0,1-2.779,2.011,2.887,2.887,0,0,1-2.959-3.138" fill="#ffffff"/>
    <path id="Path_49" data-name="Path 49" d="M344.7,79.234c0-1.358,1.012-1.665,2.357-1.96,1.025-.217,1.652-.281,1.78-.614v-.09c0-.5-.371-.884-1.293-.884-.9,0-1.384.41-1.435,1.089v.077H344.84c.039-1.358,1.114-2.178,2.715-2.178,1.55,0,2.473.692,2.473,2.229v2.984l.012.935h-1.217v-.909a2.229,2.229,0,0,1-2.036,1.063c-1.294,0-2.088-.7-2.088-1.742m4.137-.845v-.743a5.368,5.368,0,0,1-1.6.5c-.692.18-1.255.4-1.255,1.038,0,.5.371.832,1.037.832a1.677,1.677,0,0,0,1.819-1.626" fill="#ffffff"/>
    <rect id="Rectangle_8" data-name="Rectangle 8" width="1.268" height="8.633" transform="translate(351.539 72.189)" fill="#ffffff"/>
    <path id="Path_50" data-name="Path 50" d="M279.1,91.771V86.609h1.281v5.136c0,1.614.679,2.382,2.139,2.382s2.1-.742,2.1-2.369V86.609h1.268v5.149c0,2.369-1.268,3.509-3.356,3.509-2.254,0-3.432-1.216-3.432-3.5" fill="#ffffff"/>
    <path id="Path_51" data-name="Path 51" d="M287.408,89.068h1.255v1.14a1.864,1.864,0,0,1,1.857-1.268c1.307,0,2.1.884,2.1,2.5v3.676h-1.268V91.5c0-.948-.4-1.448-1.217-1.448-.935,0-1.473.782-1.473,2.165v2.895h-1.255Z" fill="#ffffff"/>
    <path id="Path_52" data-name="Path 52" d="M294.068,86.763h1.358V88.1h-1.358Zm.039,2.305h1.268v6.046h-1.268Z" fill="#ffffff"/>
    <path id="Path_53" data-name="Path 53" d="M296.322,89.068h1.307l1.6,4.547,1.524-4.547h1.319l-2.254,6.058h-1.166Z" fill="#ffffff"/>
    <path id="Path_54" data-name="Path 54" d="M302.354,92.129a2.945,2.945,0,0,1,2.959-3.164c1.781,0,2.843,1.191,2.843,3.1v.461H303.61a1.651,1.651,0,0,0,1.754,1.665,1.628,1.628,0,0,0,1.7-1.089l1.114.436a2.818,2.818,0,0,1-2.818,1.678,2.852,2.852,0,0,1-3.01-3.087m4.509-.551a1.476,1.476,0,0,0-1.576-1.588,1.675,1.675,0,0,0-1.7,1.588Z" fill="#ffffff"/>
    <path id="Path_55" data-name="Path 55" d="M309.425,89.068h1.255v1.115c.179-.705.654-1.166,1.755-1.166h.192v1.229h-.577c-1.075,0-1.37.538-1.37,1.768v3.1h-1.255Z" fill="#ffffff"/>
    <path id="Path_56" data-name="Path 56" d="M313.255,94.012l1.089-.577a1.961,1.961,0,0,0,1.639.808c.679,0,1.089-.308,1.089-.808,0-.524-.7-.64-1.653-.845-1.1-.23-2.087-.615-2.087-1.78a2.072,2.072,0,0,1,2.28-1.87,3.175,3.175,0,0,1,2.613,1.293l-1.089.539a1.775,1.775,0,0,0-1.524-.808c-.654,0-1.076.308-1.076.769,0,.5.41.589,1.511.807s2.241.615,2.241,1.806a2.1,2.1,0,0,1-2.356,1.934,3.223,3.223,0,0,1-2.677-1.268" fill="#ffffff"/>
    <path id="Path_57" data-name="Path 57" d="M319.415,86.763h1.358V88.1h-1.358Zm.039,2.305h1.268v6.046h-1.268Z" fill="#ffffff"/>
    <path id="Path_58" data-name="Path 58" d="M322.8,93.6V90.144h-.961V89.068h.961V87.889l1.217-.755v1.934h1.306v1.076h-1.306v3.3c0,.385.153.564.538.564h.717v1.1h-1.076c-1.1-.051-1.383-.55-1.4-1.511" fill="#ffffff"/>
    <path id="Path_59" data-name="Path 59" d="M326.242,96.407h.576c.833,0,1.025-.179,1.5-1.409l-2.331-5.93H327.3l1.614,4.508,1.473-4.508h1.332L329.4,95.549c-.55,1.435-1.075,2-2.523,2h-.64Z" fill="#ffffff"/>
    <path id="Path_60" data-name="Path 60" d="M109.206,9.259H76.58V0h75.833V9.259H119.787V97.584H109.206Z" fill="#ffffff"/>
    <path id="Path_61" data-name="Path 61" d="M163.142,60.843V0h10.581V60.4c0,20.281,8.23,29.687,27.629,29.687,19.106,0,26.748-9.112,26.748-29.246V0h10.434V60.843c0,26.012-12.786,38.357-37.329,38.357-25.718,0-38.063-12.786-38.063-38.357" fill="#ffffff"/>
  </g>
</svg>
