<?xml version="1.0" encoding="utf-8"?>
<!-- Generator: Adobe Illustrator 23.1.0, SVG Export Plug-In . SVG Version: 6.00 Build 0)  -->
<svg version="1.1" id="Layer_1" xmlns="http://www.w3.org/2000/svg" xmlns:xlink="http://www.w3.org/1999/xlink" x="0px" y="0px"
	 viewBox="0 0 648 120" style="enable-background:new 0 0 648 120;" xml:space="preserve">
<style type="text/css">
	.st0{fill:#FFFFFF;}
	.st1{fill:#EBAC20;}
	.st2{fill:#0B2243;}
</style>
<g>
	<path class="st0" d="M155.6,59l0.2-2.8l3.7-0.6c1.4-0.2,1.8-2.4,1.5-13.7l-0.7-23.6h-0.7l-13.2,39.3h-6.3l-12.2-38.1h-0.8
		l-1.1,22.2c-0.7,12.8-0.5,13.8,1,14l4,0.6l0.2,2.8h-16l0.2-2.8l3.7-0.6c1.5-0.2,2.3-0.7,3-14l1-19.8c0.1-2.5-1.1-4.2-3.1-4.7
		l-3.9-0.7l-0.2-2.9h20l10.1,32.1h0.5l10.3-32.1h19.4l-0.2,2.9l-4.5,0.4c-1.2,0.1-1.7,1.2-1.7,2.2l0.6,22.9
		c0.3,12,1.1,13.5,2.5,13.7l3.7,0.6L177,59H155.6z"/>
	<path class="st0" d="M229.5,16.4l-3.4,0.7c-2.1,0.4-3,1.2-3,14.6v12c0,10.2-6.9,16.8-18.1,16.8c-11.2,0-18.7-5.1-18.7-15.4V18
		c0-0.7-0.4-1-2.8-1.3l-2.3-0.3l-0.2-2.9h20.3l-0.2,2.9l-2.6,0.3c-2,0.2-2.6,0.7-2.6,1.4v24.5c0,8.7,4.3,13.2,11.7,13.2
		c7.6,0,11.7-4.3,11.7-13.2V31.7c0-13.3-0.7-14.2-2.8-14.6l-3.9-0.7l-0.2-2.9h17.3L229.5,16.4z"/>
	<path class="st0" d="M252.7,16.6c-0.6,0-3.4,0.1-3.4,0.1v19.2l4.4,0.4c5.4-0.7,9-3.6,9-9.9C262.6,19.9,258.9,16.4,252.7,16.6
		 M272.2,52.3c1.6,2.3,2.4,3,3.9,3.4l2,0.4l0.2,2.9h-14.1l-3-5.8l-7.7-14.1l-4.4,0.1v15.3c0,0.7,0.5,1,2.7,1.2l2.3,0.3l0.2,2.9
		h-20.2l0.2-2.9l2.6-0.3c1.8-0.2,2.5-0.6,2.5-1.4V18c0-0.7-0.4-1-2.8-1.3l-2.3-0.3l-0.2-2.9h21.3c12,0,17.6,4.6,17.6,11.3
		c0,5.8-3.8,10.2-10.4,12.6L272.2,52.3z"/>
	<path class="st0" d="M301.8,16.6c-0.6,0-3.4,0.1-3.4,0.1v19.2l4.4,0.4c5.4-0.7,9-3.6,9-9.9C311.8,19.9,308,16.4,301.8,16.6
		 M321.4,52.3c1.6,2.3,2.4,3,3.9,3.4l2,0.4l0.2,2.9h-14.1l-3-5.8l-7.7-14.1l-4.4,0.1v15.3c0,0.7,0.5,1,2.7,1.2l2.3,0.3l0.2,2.9
		h-20.2l0.2-2.9l2.6-0.3c1.8-0.2,2.5-0.6,2.5-1.4V18c0-0.7-0.4-1-2.8-1.3l-2.3-0.3l-0.2-2.9h21.3c12,0,17.6,4.6,17.6,11.3
		c0,5.8-3.8,10.2-10.4,12.6L321.4,52.3z"/>
	<path class="st0" d="M354.8,21.9h-0.7L348,40.3h12.7L354.8,21.9z M359.1,59l0.2-3l2.8-0.4c3-0.4,2.9-1.8,0.9-7.7l-1.3-4h-14.9
		l-0.9,3c-2,5.8-1.8,8.2,0.9,8.7l2.4,0.4l0.2,3h-16.8l0.2-3l1.8-0.4c3.2-0.9,4.2-1.5,8.8-14.1l8.5-23.6v-3.1l9-2.6l13.8,40.5
		c0.6,1.5,1.8,2.3,3.5,2.7l2.8,0.7l0.2,3H359.1z"/>
	<path class="st0" d="M420.3,16.5l-1.5,0.4c-2.3,0.7-3.9,1.7-7.6,7.7l-8.7,15v14.9c0,0.7,0.4,1,2.6,1.2l3.6,0.3L409,59h-22.5
		l0.2-2.9l3.7-0.3c1.8-0.2,2.6-0.6,2.6-1.4V40.6l-12.5-20.8c-0.9-1.4-2-2.3-3.6-2.8l-2.1-0.6l-0.2-3h20.8l-0.2,3l-2.6,0.4
		c-1.9,0.4-2.3,2,0.8,7.7l6.5,11.7h0.5l6.5-11.6c3.1-5.2,2.8-7.3-0.1-7.8l-2-0.4l-0.2-3h16L420.3,16.5z"/>
	<path class="st0" d="M453.2,60.2c-6,0-10.1-0.9-14.4-2.1L438.1,44h4.8l3.2,10.9c2.5,0.9,5.3,1.5,7.7,1.5c6.3-0.1,9-3.6,9-7.3
		c0-5.5-4.5-7.2-10.9-9.3c-7.9-2.6-13.8-5.6-13.8-13.6c0-7.1,5.7-13.6,17-13.6c4.2-0.1,6.6,0.4,10,1l3.9-1.1v15.2h-4.6l-2.9-10
		c-2.3-0.9-4.4-1.3-7-1.3c-5.5,0-8.3,3-8.3,6.4c0,4.9,4.2,6.5,10.1,8.5c8.9,2.8,14.9,6,14.9,14.4C471.2,53.3,464.7,60.1,453.2,60.2"
		/>
	<path class="st0" d="M512.1,28.8l-1.5-6.1c-1.5-5.2-3.4-6-9.8-6h-0.4v37.9c0,0.7,0.5,1,2.7,1.2l3.6,0.3l0.2,2.9h-22.5l0.2-2.9
		l3.7-0.3c1.8-0.2,2.5-0.6,2.5-1.4V16.7h-0.3c-6.4,0-8.6,0.7-10.1,5.8l-1.7,6.3h-5.2l1.4-15.3h42.1v15.3H512.1z"/>
	<path class="st0" d="M534,21.9h-0.7l-6.2,18.4h12.7L534,21.9z M538.3,59l0.2-3l2.8-0.4c3-0.4,2.9-1.8,0.9-7.7l-1.3-4h-14.9l-0.9,3
		c-2,5.8-1.7,8.2,0.9,8.7l2.4,0.4l0.2,3h-16.8l0.2-3l1.8-0.4c3.2-0.9,4.2-1.5,8.8-14.1l8.5-23.6v-3.1l9-2.6L554,52.7
		c0.6,1.5,1.7,2.3,3.5,2.7l2.8,0.7l0.2,3H538.3z"/>
	<path class="st0" d="M593.5,28.8l-1.5-6.1c-1.5-5.2-3.4-6-9.8-6h-0.4v37.9c0,0.7,0.5,1,2.7,1.2l3.6,0.3l0.2,2.9h-22.5l0.2-2.9
		l3.7-0.3c1.8-0.2,2.5-0.6,2.5-1.4V16.7h-0.3c-6.4,0-8.6,0.7-10.1,5.8l-1.7,6.3h-5.2l1.4-15.3h42.1v15.3H593.5z"/>
	<path class="st0" d="M642.6,59h-39.4l0.2-2.9l2.6-0.3c1.8-0.2,2.5-0.6,2.5-1.4V18c0-0.7-0.4-1-2.8-1.3l-2.3-0.3l-0.2-2.9h39.6v15
		h-5l-1.6-6.1c-1.5-5.2-3.1-5.7-14.7-5.7h-3.4v17.6h1.8c4.2,0,5.9-0.3,6.6-2.3l1.8-5h3.8l-1.7,17.6h-3.6l-0.7-4.7
		c-0.2-1.8-1.1-2.4-6.3-2.4h-1.6v18.1h3.6c12,0,13.6-0.7,15.5-5.7l1.6-5.4h5.2L642.6,59z"/>
	<path class="st0" d="M126.6,107.7c-7.1,0-11.1-4.5-11.1-11.5V77.3h3v18.5c0,5.7,2.8,9.1,8.3,9.1c5.3,0,8.1-3.2,8.1-9.1V77.3h3v18.4
		C137.9,103,134,107.7,126.6,107.7"/>
	<polygon class="st0" points="178.4,77.3 181.3,77.3 181.3,107.3 178,107.3 161,81.5 161,107 158,107 158,77.3 161.4,77.3 
		178.4,102.8 	"/>
	<rect x="201.2" y="77.3" class="st0" width="3" height="29.8"/>
	<polygon class="st0" points="237.2,107 233.6,107 222.7,77.3 225.8,77.3 235.5,103.9 245.1,77.3 248.2,77.3 	"/>
	<polygon class="st0" points="266.7,107 266.7,77.3 284.7,77.3 284.7,80.1 269.8,80.1 269.8,90.7 282.2,90.7 282.2,93.5 269.8,93.5 
		269.8,104.2 284.7,104.2 284.7,107 	"/>
	<path class="st0" d="M312.1,92.2c4-0.1,7.4-2.3,7.4-6.2c0-3.9-2.9-6-8.1-6h-4.6v12.4L312.1,92.2z M306.8,107h-3.1V77.3h8
		c7.3,0,10.8,3.4,10.8,8.6c0,4.5-3,7.2-6.9,8.4l8.2,12.8h-3.5l-7.6-12.3l-6,0.4V107z"/>
	<path class="st0" d="M357.1,99.3c0-3.5-2.9-4.9-7.5-6.2c-4.2-1.2-8.7-3.1-8.7-8.3c0-4.7,4-8.1,9.5-8.1c3.4,0,6.4,1,9,2.6l-1.1,2.7
		c-2.2-1.5-5.1-2.5-7.8-2.5c-4.5,0-6.6,2.4-6.6,5.1c0,3.3,3,4.5,7.5,6c4.3,1.3,8.6,3.2,8.6,8.6c0,4.9-4.1,8.6-10.1,8.6
		c-3.6,0-6.9-1-9.6-2.8l1.1-2.7c2.4,1.6,5.2,2.8,8.6,2.8C354.2,104.9,357.1,102.5,357.1,99.3"/>
	<rect x="377.9" y="77.3" class="st0" width="3" height="29.8"/>
	<polygon class="st0" points="413.8,80.1 413.8,107 410.7,107 410.7,80.1 400.2,80.1 400.2,77.3 424.2,77.3 424.2,80.1 	"/>
	<polygon class="st0" points="455.2,95.1 455.2,107 452.1,107 452.1,95.1 441.8,77.3 445.2,77.3 453.8,92.1 462.2,77.3 465.6,77.3 	
		"/>
	<path class="st1" d="M97.8,1L51.9,1L6,1l0,50.2c0,26.9,17.9,55.4,45.9,67.7c28-12.3,45.9-40.9,45.9-67.7L97.8,1z M90,15.6
		c-0.1,0.1-0.7,0.4-1.5,0.7l0,35.5c0,21.8-13.1,43.4-32.3,54.1c0.3,0.8,0.5,1.4,0.6,1.5c0.2,1.6-0.9,2.5-2.4,2.4
		c-0.6,0-1.3-0.5-1.3-0.5l-1.1,2.8l-1.1-2.8c0,0-0.7,0.4-1.3,0.5c-1.5,0.1-2.6-0.8-2.4-2.4c0-0.2,0.2-0.7,0.6-1.5
		C28.4,95.2,15.3,73.6,15.3,51.8l0-35.5c-0.8-0.3-1.4-0.6-1.5-0.7c-1.3-1-1.1-2.4,0-3.4c0.4-0.4,1.3-0.6,1.3-0.6l-1.2-2.8l2.8,1.2
		c0,0,0.2-0.8,0.6-1.3c1-1.1,2.4-1.3,3.4,0c0.1,0.1,0.4,0.7,0.7,1.5h61.2c0.3-0.8,0.6-1.4,0.7-1.5c1-1.3,2.4-1.1,3.4,0
		C87,9.2,87.1,10,87.1,10L90,8.8l-1.2,2.8c0,0,0.8,0.2,1.3,0.6C91.1,13.2,91.3,14.6,90,15.6"/>
	<path class="st0" d="M88.7,11.6L90,8.8L87.1,10c0,0-0.2-0.8-0.6-1.3c-1-1.1-2.4-1.3-3.4,0c-0.1,0.1-0.4,0.7-0.7,1.5l-30.6,0
		l-30.6,0c-0.3-0.8-0.6-1.4-0.7-1.5c-1-1.3-2.4-1.1-3.4,0c-0.4,0.4-0.6,1.3-0.6,1.3l-2.8-1.2l1.2,2.8c0,0-0.8,0.2-1.3,0.6
		c-1.1,1-1.3,2.4,0,3.4c0.1,0.1,0.7,0.4,1.5,0.7l0,35.5c0,21.8,13.1,43.4,32.3,54.1c-0.3,0.8-0.5,1.4-0.6,1.5
		c-0.2,1.6,0.9,2.5,2.4,2.4c0.6,0,1.3-0.5,1.3-0.5l1.1,2.8l1.1-2.8c0,0,0.7,0.4,1.3,0.5c1.5,0.1,2.6-0.8,2.4-2.4
		c0-0.2-0.2-0.7-0.6-1.5c19.2-10.6,32.3-32.3,32.3-54.1l0-35.5c0.8-0.3,1.4-0.6,1.5-0.7c1.3-1,1.1-2.4,0-3.4
		C89.6,11.8,88.7,11.6,88.7,11.6 M52.5,105.1l-0.6,0.3l-0.6-0.3c-19.9-9.3-33.8-31.2-33.8-53.2l0-39.4h68.6l0,39.4
		C86.2,73.9,72.3,95.8,52.5,105.1"/>
	<polygon class="st0" points="42.4,40.8 49.4,36 40.8,36 38.2,28.5 35.6,36 26.9,36 33.9,40.8 31.3,48.4 38.2,43.7 45.1,48.4 	"/>
	<polygon class="st0" points="68.2,36 65.6,28.5 63,36 54.4,36 61.4,40.8 58.7,48.4 65.6,43.7 72.5,48.4 69.9,40.8 76.9,36 	"/>
	<polygon class="st0" points="54.5,65 51.9,57.4 49.3,65 40.7,65 47.6,69.7 45,77.4 51.9,72.7 58.8,77.4 56.2,69.7 63.1,65 	"/>
	<path class="st0" d="M19.9,14.9l0,36.9c0,21,13.1,41.9,32,51c18.9-9.1,32-30,32-51l0-36.9H19.9z M53.5,99.5
		c-0.9-1.9-1.6-3.4-1.6-3.4s-0.7,1.5-1.6,3.4c-17.2-9.1-28.1-28.7-28.1-47.2l0-33.2c1.7,0.6,2.9,1.1,2.9,1.1s-0.5-1.2-1.1-2.9h55.6
		c-0.6,1.7-1.1,2.9-1.1,2.9s1.3-0.5,2.9-1.1l0,33.2C81.6,70.8,70.7,90.4,53.5,99.5"/>
	<path class="st2" d="M17.6,12.6l0,39.4c0,22,13.9,43.9,33.8,53.2l0.6,0.3l0.6-0.3c19.9-9.3,33.8-31.2,33.8-53.2l0-39.4H17.6z
		 M51.9,102.9c-18.9-9.1-32-30-32-51l0-36.9h63.9l0,36.9C83.9,72.9,70.7,93.8,51.9,102.9"/>
	<path class="st2" d="M78.6,20.2c0,0,0.5-1.2,1.1-2.9H24.1c0.6,1.7,1.1,2.9,1.1,2.9s-1.3-0.5-2.9-1.1l0,33.2
		c0,18.5,10.9,38.1,28.1,47.2c0.9-1.9,1.6-3.4,1.6-3.4s0.7,1.5,1.6,3.4c17.2-9.1,28.1-28.7,28.1-47.2l0-33.2
		C79.9,19.7,78.6,20.2,78.6,20.2 M38.2,43.7l-6.9,4.7l2.6-7.6l-7-4.8h8.6l2.6-7.6l2.6,7.6h8.6l-7,4.8l2.6,7.6L38.2,43.7z M58.8,77.4
		l-6.9-4.7L45,77.4l2.6-7.6l-7-4.8h8.6l2.6-7.6l2.6,7.6h8.6l-7,4.8L58.8,77.4z M72.5,48.4l-6.9-4.7l-6.9,4.7l2.6-7.6l-7-4.8H63
		l2.6-7.6l2.6,7.6h8.6l-7,4.8L72.5,48.4z"/>
</g>
</svg>
