<?xml version="1.0" encoding="utf-8"?>
<svg version="1.1" xmlns:cc="http://creativecommons.org/ns#" xmlns:dc="http://purl.org/dc/elements/1.1/" xmlns:rdf="http://www.w3.org/1999/02/22-rdf-syntax-ns#" xmlns:svg="http://www.w3.org/2000/svg" xmlns="http://www.w3.org/2000/svg" xmlns:xlink="http://www.w3.org/1999/xlink" x="0px" y="0px" viewBox="0 0 300 300" style="enable-background:new 0 0 300 300;" xml:space="preserve">
<defs>
	<filter id="shadow">
		<feDropShadow dx="0" dy="0" stdDeviation="5" flood-color="black" flood-opacity="0.25"/>
	</filter>
	<style type="text/css"><![CDATA[
		path {fill-opacity:1;fill-rule:nonzero;stroke:none;}
		#uon-logo-box {fill:#000;}
		#uon-logo-wordmark path, #uon-logo-seahorse, #uon-logo-seahorse-mobile {fill:#FFF;}
		/* uon-logo-seahorse, #uon-logo-seahorse-mobile {filter:url(#shadow);} */
		#uon-logo-seahorse-mobile {display:none;}
		@media (max-width:100px) {
			#uon-logo-seahorse {display:none;}
			#uon-logo-wordmark {display:none;}
			#uon-logo-seahorse-mobile {display:block;}
		}
	]]></style>
</defs>
<g id="uon-logo">
	<path id="uon-logo-box" d="M0,0h300v300H0V0z"/>
	<!--
	<g id="uon-logo-pride">
		<path fill="#E40303" d="M0,0h300v50H0V0z"/>
		<path fill="#FF8C00" d="M0,50h300v50H0V50z"/>
		<path fill="#FFED00" d="M0,100h300v50H0V100z"/>
		<path fill="#008026" d="M0,150h300v50H0V150z"/>
		<path fill="#004DFF" d="M0,200h300v50H0V200z"/>
		<path fill="#750787" d="M0,250h300v50H0V250z"/>
	</g>
	-->
	<g id="uon-logo-wordmark">
		<path d="M55.1,175.7v1.4h3.6v9.7h2v-9.7h3.7v-1.4H55.1"/>
		<path d="M75.3,181.8v5h2v-11.1h-2v4.7h-5.2v-4.7h-2v11.1h2v-5H75.3"/>
		<path d="M89.1,186.8v-1.4h-4.9v-3.6h3.5v-1.4h-3.5v-3.2h4.8v-1.4h-6.7v11.1H89.1"/>
		<path d="M110.8,183v-7.3h-1.9v7.3c0,1.4-0.8,2.6-2.7,2.6c-1.7,0-2.6-0.9-2.6-2.6v-7.3h-2v7.3c0,2.6,1.6,4,4.6,4C109.9,187,110.8,184.5,110.8,183"/>
		<path d="M125.7,175.7h-1.8v8l-6.4-8h-1.8v11.1h1.9v-8l6.4,8h1.8L125.7,175.7"/>
		<path d="M130.9,175.7h2v11.1h-2V175.7z"/>
		<path d="M141.4,186.9l4.2-11.2h-1.8l-2.7,7.6l-2.5-7.6h-2l3.8,11.2H141.4"/>
		<path d="M156.4,186.8v-1.4h-4.9v-3.6h3.5v-1.4h-3.5v-3.2h4.8v-1.4h-6.7v11.1H156.4"/>
		<path d="M162.9,180.5v-3.4h0.9c1.5,0,2.4,0.6,2.4,1.6c0,0.9-0.9,1.7-2.4,1.7H162.9z M167.3,187l2.2-0.2l-3.4-5.3c0.9-0.4,2.1-1.4,2.1-3c0-1.2-1.1-2.8-3.8-2.8H161v11.1h2v-4.9h1.2L167.3,187"/>
		<path d="M176.1,185.6c-1.5,0-2.5-0.6-3-0.8l-0.6,1.3c0.6,0.3,1.8,0.9,3.6,0.9c1.3,0,3.9-1,3.9-3.1c0-2-2.1-2.9-3.1-3.4c-1.2-0.7-2.3-1.3-2.3-2.2c0-0.6,0.6-1.3,1.7-1.3c1.2,0,1.9,0.2,2.5,0.5l0.5-1.3c-0.6-0.3-1.6-0.7-3.1-0.7c-2.1,0-3.5,1.4-3.5,3c0,2,1.8,2.9,2.9,3.5c1.3,0.7,2.4,1.2,2.4,2.2C178,185,177.1,185.6,176.1,185.6"/>
		<path d="M184.3,175.7h2v11.1h-2V175.7z"/>
		<path d="M190.1,175.7v1.4h3.6v9.7h2v-9.7h3.7v-1.4H190.1"/>
		<path d="M211.7,175.7h-1.9l-2.7,4.4l-2.8-4.4h-2.1l3.8,5.7v5.4h2v-5.4L211.7,175.7"/>
		<path d="M228.1,176.9c2.2,0,3.7,1.7,3.7,4.3c0,2.6-1.5,4.4-3.7,4.4c-2.2,0-3.7-1.7-3.7-4.4C224.5,178.7,225.9,176.9,228.1,176.9zM233.9,181.3c0-3.4-2.3-5.8-5.8-5.8c-3.4,0-5.8,2.4-5.8,5.8c0,3.6,2.5,5.8,5.8,5.8C231.3,187,233.9,184.8,233.9,181.3"/>
		<path d="M238,186.8h2v-5h3.1v-1.4H240v-3.2h4.4v-1.4H238V186.8"/>
		<path d="M76.4,197h-3.8v16.7L59.4,197h-3.7v23h3.9v-16.6L72.8,220h3.7V197"/>
		<path d="M96.2,220v-3H85.9v-7.4h7.2v-3h-7.2v-6.7h9.9v-3h-14v23H96.2"/>
		<path d="M108.4,220.2l4.6-12.1l4,12.1h2.1l8.7-23.2H124l-5.5,15.8l-5.1-15.8h-4.2l2.2,6.7l-3.4,9.5l-5.3-16.2h-4.2l7.8,23.2H108.4"/>
		<path d="M149.4,218.5l-1.3-2.5c-1.1,0.5-2.9,1.5-6.6,1.5c-5.3,0-8.4-3.7-8.4-9c0-5.2,3-9,8-9c3.7,0,5.7,1.2,6.5,1.6l1.3-2.8c-1-0.4-3.4-1.8-7.9-1.8c-8.1,0-12.4,6-12.4,12c0,5.9,4.3,12,12.4,12C145.6,220.5,147.7,219.5,149.4,218.5"/>
		<path d="M164,211.3h-5.6l2.9-6.9L164,211.3z M154.8,220l2.4-5.7h7.9l2.2,5.7h4.3l-9.1-23.1H161L150.8,220H154.8"/>
		<path d="M181.6,217.5c-3,0-5.2-1.2-6.3-1.7l-1.3,2.7c1.3,0.6,3.7,1.9,7.6,1.9c2.8,0,8-2,8-6.5c0-4.2-4.3-6-6.5-7.2c-2.5-1.4-4.8-2.6-4.8-4.6c0-1.3,1.3-2.7,3.6-2.7c2.5,0,4,0.5,5.2,1l1.1-2.6c-1.3-0.6-3.3-1.4-6.4-1.4c-4.3,0-7.3,2.9-7.3,6.2c0,4.1,3.7,6.1,6,7.3c2.6,1.4,5,2.5,5,4.5C185.6,216.2,183.8,217.5,181.6,217.5"/>
		<path d="M191.6,197v3h7.5V220h4.1v-20.1h7.6v-3H191.6"/>
		<path d="M218.4,217V197h-4.1v23h12.9v-3H218.4"/>
		<path d="M244.7,220v-3h-10.3v-7.4h7.2v-3h-7.2v-6.7h9.9v-3h-14v23H244.7"/>
		<path d="M106.4,237h-2.7l1.4-3.3L106.4,237z M102,241.2l1.1-2.8h3.8l1.1,2.8h2.1l-4.4-11.1H105l-4.9,11.1H102"/>
		<path d="M122.7,237.4v-7.3h-1.9v7.3c0,1.4-0.8,2.6-2.7,2.6c-1.7,0-2.6-0.9-2.6-2.6v-7.3h-2v7.3c0,2.6,1.6,4,4.6,4C121.8,241.5,122.7,238.9,122.7,237.4"/>
		<path d="M130.5,240c-1.5,0-2.5-0.6-3-0.8l-0.6,1.3c0.6,0.3,1.8,0.9,3.6,0.9c1.3,0,3.9-1,3.9-3.1c0-2-2.1-2.9-3.1-3.4c-1.2-0.7-2.3-1.3-2.3-2.2c0-0.6,0.6-1.3,1.7-1.3c1.2,0,1.9,0.2,2.5,0.5l0.5-1.3c-0.6-0.3-1.6-0.7-3.1-0.7c-2.1,0-3.5,1.4-3.5,3c0,2,1.8,2.9,2.9,3.5c1.3,0.7,2.4,1.2,2.4,2.2C132.4,239.4,131.6,240,130.5,240"/>
		<path d="M137.4,230.1v1.4h3.6v9.7h2v-9.7h3.7v-1.4H137.4"/>
		<path d="M152.3,234.9v-3.4h0.9c1.5,0,2.4,0.6,2.4,1.6c0,0.9-0.9,1.7-2.4,1.7H152.3z M156.7,241.4l2.2-0.2l-3.4-5.3c0.9-0.4,2.1-1.4,2.1-3c0-1.2-1.1-2.8-3.8-2.8h-3.4v11.1h2v-4.9h1.2L156.7,241.4"/>
		<path d="M167.6,237h-2.7l1.4-3.3L167.6,237z M163.2,241.2l1.1-2.8h3.8l1.1,2.8h2.1l-4.4-11.1h-0.7l-4.9,11.1H163.2"/>
		<path d="M176.9,239.8v-9.7h-2v11.1h6.2v-1.4H176.9"/>
		<path d="M184.8,230.1h2v11.1h-2V230.1z"/>
		<path d="M196.7,237H194l1.4-3.3L196.7,237z M192.2,241.2l1.1-2.8h3.8l1.1,2.8h2.1l-4.4-11.1h-0.8l-4.9,11.1H192.2"/>
	</g>
	<path id="uon-logo-seahorse" d="M142.6,60.8c-12.6,0-44.9,15.9-44.9,50.4c0,28.5,20.4,44.5,36.3,49.6c0,0,2-2.1,2-5.3c0-7.2-19.4-16.6-19.4-31.5c0-12.5,10.4-17.5,15.9-17.5c2.1,0,3.2,0.6,3.4,0.7c0,0,0,0,0,0.1c0,0,0,0.1-0.1,0.1c-1.8,0-8.6,2.9-8.6,11c0,20.7,43.7,16.7,43.7,35.5c0,4.1-3.1,6.3-3.1,6.3c6.4-2.3,11.5-6.7,11.5-15.4c0-22.3-36.9-20.6-36.9-47c0-12.7,11.2-18.5,19.1-18.5c7.2,0,9.7,5.6,9.7,5.6c0,0,0,0.1,0,0.1c0,0,0,0-0.1,0c-0.3-0.2-1.7-1.2-5.1-1.4c-4-0.2-10.9,2.7-10.9,10c0,15.9,23,10.5,29.5,16.9c3.3,3.3,3.3,5.2,3.5,5.8c3.3-0.6,6.6-2.1,7-2.3c0.2-0.1,1.1-0.4,1.1-1.5c0-1.2-1.6-1.9-2.4-2.4c-0.8-0.6-1.3-1.2-1.3-2.3c0.1-1.3,1.2-1.9,1.9-1.8c0.7,0,1,0.6,1,0.6c0,0,0,0,0,0c0,0,0,0,0,0c0,0-0.2-0.1-0.5-0.1c-0.4,0-1,0.2-1,1c0,1.1,1.3,1.3,2.8,1.8c1,0.3,2.6,1.1,3,1.6c0.7-0.9,1.2-2,1.2-3.2l-36.6-40.9c2.4-6.7,9.7-6.1,10.2-6.1c0,0,0.1,0,0.1-0.1c0,0,0-0.1-0.1-0.1c0,0-24.6-11.2-51,23.4c0,0-0.1,0-0.1,0c0,0,0,0,0-0.1C123.4,83.7,128,66,142.6,60.8C142.6,60.9,142.7,60.8,142.6,60.8C142.7,60.8,142.6,60.8,142.6,60.8"/>
	<path id="uon-logo-seahorse-mobile" d="M140.2,78.9c-18.4,0-65.2,23.1-65.2,73.2c0,41.5,29.6,64.7,52.8,72.1c0,0,2.9-3.1,2.9-7.7c0-10.5-28.2-24.1-28.2-45.8c0-18.2,15.2-25.4,23.1-25.4c3,0,4.7,0.9,5,1c0,0,0.1,0.1,0.1,0.1c0,0.1,0,0.1-0.1,0.1c-2.6,0-12.6,4.2-12.6,16c0,30.1,63.5,24.2,63.5,51.6c0,6-4.5,9.2-4.5,9.2c9.3-3.3,16.8-9.8,16.8-22.4c0-32.4-53.7-30-53.7-68.3c0-18.5,16.2-26.9,27.8-26.9c10.4,0,14.1,8.1,14.1,8.1c0,0,0,0.1,0,0.1c0,0-0.1,0-0.1,0c-0.4-0.2-2.4-1.7-7.3-2c-5.8-0.3-15.9,3.9-15.9,14.6c0,23.1,33.5,15.2,42.9,24.6c4.9,4.9,4.9,7.6,5.1,8.4c4.7-0.9,9.5-3.1,10.1-3.3c0.3-0.1,1.6-0.5,1.6-2.2c0-1.7-2.3-2.7-3.4-3.5c-1.2-0.8-1.9-1.7-1.9-3.3c0.1-2,1.7-2.7,2.8-2.7c1.1,0,1.4,0.8,1.4,0.8c0,0,0,0,0,0c0,0,0,0,0,0c0,0-0.3-0.2-0.7-0.2c-0.5,0-1.5,0.3-1.5,1.4c0,1.6,1.9,1.9,4,2.6c1.5,0.5,3.8,1.6,4.4,2.4c1.1-1.3,1.7-2.9,1.7-4.6l-53.3-59.5c3.5-9.8,14.1-8.9,14.8-8.8c0.1,0,0.1,0,0.1-0.1c0-0.1,0-0.1-0.1-0.1c0,0-35.7-16.3-74.1,34c0,0-0.1,0.1-0.1,0c0,0,0-0.1,0-0.1c0,0,6.7-25.8,27.9-33.2C140.2,79,140.3,79,140.2,78.9C140.3,78.9,140.2,78.9,140.2,78.9"/>
</g>
</svg>