<?xml version="1.0" encoding="UTF-8"?><svg xmlns="http://www.w3.org/2000/svg" viewBox="0 0 163 77.28"><defs><style>.e{fill:#fff;}.f{fill:#009bde;}</style></defs><g id="a"><g id="b"><g id="c"><rect class="f" width="163" height="77.28"/></g></g><g><g><polygon class="e" points="118.51 38.94 118.51 37.93 114.73 37.93 114.73 38.94 115.97 38.94 115.97 46.45 114.73 46.45 114.73 47.46 118.51 47.46 118.51 46.45 117.27 46.45 117.27 38.94 118.51 38.94"/><g><polygon class="e" points="43.17 47.46 44.48 47.46 44.48 43.24 48.99 43.24 48.99 42.08 44.48 42.08 44.48 39.1 49.52 39.1 49.52 37.94 43.17 37.94 43.17 47.46"/><path class="e" d="M60.94,42.55c.32-.43,.49-1.05,.49-1.82,0-.97-.26-1.69-.77-2.13-.51-.44-1.33-.67-2.43-.67h-3.74v9.53h1.3v-3.93h2.19l2.5,3.92h1.56l-2.57-4.04c.66-.14,1.16-.43,1.48-.86Zm-5.16-3.45h2.39c.7,0,1.2,.12,1.5,.37,.29,.24,.44,.67,.44,1.26s-.15,1.02-.44,1.26c-.3,.25-.8,.37-1.5,.37h-2.39v-3.27Z"/><polygon class="e" points="68.3 43.2 73.03 43.2 73.03 42.03 68.3 42.03 68.3 39.1 73.81 39.1 73.81 37.94 67 37.94 67 47.46 73.9 47.46 73.9 46.3 68.3 46.3 68.3 43.2"/><path class="e" d="M82.92,42.14l-1.07-.24c-.64-.14-1.09-.32-1.33-.54-.24-.22-.36-.51-.36-.89,0-1.03,.71-1.55,2.11-1.55,1.04,0,1.92,.25,2.6,.73l.04,.03v-1.33h-.01c-.55-.4-1.45-.6-2.67-.6-2.23,0-3.37,.94-3.37,2.8,0,.67,.18,1.22,.54,1.63,.35,.41,.97,.71,1.82,.91l1.04,.24c.72,.16,1.21,.36,1.47,.57,.26,.21,.39,.52,.39,.93,0,1.08-.74,1.62-2.19,1.62-1.24,0-2.31-.33-3.18-.97l-.04-.03v1.34h0c.69,.55,1.76,.82,3.18,.82,2.34,0,3.52-.95,3.52-2.83,0-.71-.19-1.29-.58-1.72-.38-.43-1.03-.75-1.92-.94Z"/><polygon class="e" points="91.86 43.2 96.59 43.2 96.59 42.03 91.86 42.03 91.86 39.1 97.37 39.1 97.37 37.94 90.55 37.94 90.55 47.46 97.46 47.46 97.46 46.3 91.86 46.3 91.86 43.2"/><polygon class="e" points="108.88 45.1 104.2 37.95 104.19 37.94 102.57 37.94 102.57 47.46 103.82 47.46 103.82 39.7 108.9 47.45 108.91 47.46 110.13 47.46 110.13 37.94 108.88 37.94 108.88 45.1"/><path class="e" d="M128.89,44.05c0,.84-.19,1.45-.55,1.83-.36,.38-.96,.57-1.78,.57s-1.4-.19-1.77-.57c-.37-.38-.55-.99-.55-1.83v-6.12h-1.3v6c0,1.28,.29,2.23,.86,2.81,.57,.58,1.5,.88,2.74,.88s2.17-.3,2.73-.88c.57-.58,.86-1.53,.86-2.81v-6h-1.25v6.12Z"/><path class="e" d="M141.35,43.09c-.38-.43-1.03-.75-1.92-.94l-1.07-.24c-.64-.14-1.09-.32-1.33-.54-.24-.22-.36-.51-.36-.89,0-1.03,.71-1.55,2.11-1.55,1.04,0,1.92,.25,2.6,.73l.04,.03v-1.33h-.01c-.55-.4-1.45-.6-2.67-.6-2.23,0-3.37,.94-3.37,2.8,0,.67,.18,1.22,.54,1.63,.35,.41,.97,.71,1.82,.91l1.04,.24c.72,.16,1.21,.36,1.47,.57,.26,.21,.39,.52,.39,.93,0,1.08-.74,1.62-2.19,1.62-1.24,0-2.31-.33-3.18-.97l-.04-.03v1.34h0c.69,.55,1.76,.82,3.18,.82,2.34,0,3.52-.95,3.52-2.83,0-.71-.19-1.29-.58-1.72Z"/></g></g><g><path class="e" d="M43.18,32.65v-6.31h.97v2.71h3.33v-2.71h.83v6.31h-.83v-2.83h-3.33v2.83h-.97Z"/><path class="e" d="M59.12,31.95c-.45,.54-1.15,.8-2.09,.8s-1.64-.27-2.09-.8c-.45-.54-.68-1.36-.68-2.46s.23-1.93,.68-2.46c.45-.54,1.15-.8,2.09-.8s1.64,.27,2.09,.8c.45,.54,.68,1.36,.68,2.46s-.23,1.93-.68,2.46Zm-3.54-.55c.31,.41,.79,.61,1.45,.61s1.15-.2,1.45-.61c.31-.41,.46-1.04,.46-1.92s-.15-1.51-.46-1.92c-.31-.41-.79-.61-1.45-.61s-1.15,.2-1.45,.61c-.31,.41-.46,1.04-.46,1.92s.15,1.51,.46,1.92Z"/><path class="e" d="M68.24,32.76c-.99,0-1.72-.27-2.2-.8-.48-.54-.71-1.36-.71-2.46s.24-1.93,.71-2.46c.47-.54,1.2-.8,2.18-.8,.66,0,1.17,.11,1.56,.32v.82c-.44-.27-.95-.4-1.53-.4-.72,0-1.25,.2-1.58,.6-.33,.4-.49,1.04-.49,1.92s.17,1.53,.5,1.93c.33,.4,.86,.6,1.6,.6,.57,0,1.08-.13,1.5-.4v.82c-.38,.22-.89,.32-1.54,.32Z"/><path class="e" d="M75.44,32.65v-6.31h.83v2.71h3.33v-2.71h.83v6.31h-.83v-2.83h-3.33v2.83h-.83Z"/><path class="e" d="M88.3,32.76c-.95,0-1.65-.18-2.11-.54v-.85c.58,.43,1.29,.65,2.12,.65,.98,0,1.47-.36,1.47-1.1,0-.28-.09-.49-.26-.63-.18-.14-.51-.27-.99-.38l-.69-.16c-.57-.13-.97-.33-1.21-.6-.24-.27-.35-.63-.35-1.07,0-1.23,.74-1.85,2.23-1.85,.82,0,1.41,.13,1.77,.39v.84c-.46-.33-1.04-.49-1.74-.49-.95,0-1.42,.35-1.42,1.05,0,.25,.08,.45,.25,.6,.16,.15,.46,.27,.9,.36l.71,.16c.59,.13,1.02,.34,1.27,.62,.25,.28,.38,.66,.38,1.13,0,1.24-.78,1.87-2.33,1.87Z"/><path class="e" d="M98.94,32.76c-.99,0-1.72-.27-2.2-.8-.48-.54-.71-1.36-.71-2.46s.24-1.93,.71-2.46c.47-.54,1.2-.8,2.18-.8,.66,0,1.17,.11,1.56,.32v.82c-.44-.27-.95-.4-1.53-.4-.72,0-1.25,.2-1.58,.6-.33,.4-.49,1.04-.49,1.92s.17,1.53,.5,1.93c.33,.4,.86,.6,1.6,.6,.57,0,1.08-.13,1.5-.4v.82c-.38,.22-.89,.32-1.54,.32Z"/><path class="e" d="M106.14,32.65v-6.31h.83v2.71h3.33v-2.71h.83v6.31h-.83v-2.83h-3.33v2.83h-.83Z"/><path class="e" d="M121.38,32.18c-.38,.39-.98,.58-1.81,.58s-1.43-.19-1.81-.58c-.38-.39-.57-1.01-.57-1.86v-3.98h.83v4.06c0,.56,.12,.97,.37,1.23,.25,.26,.64,.39,1.19,.39s.95-.13,1.2-.39c.25-.26,.37-.67,.37-1.23v-4.06h.8v3.98c0,.85-.19,1.47-.57,1.86Z"/><path class="e" d="M127.99,32.65v-6.31h.83v5.56h3.16v.75h-4Z"/><path class="e" d="M137.32,32.65v-6.31h4.51v.74h-3.67v1.99h3.15v.74h-3.15v2.1h3.73v.74h-4.56Z"/></g><g><path class="e" d="M45.5,55.99c-.21,.21-.54,.32-1,.32s-.8-.11-1.01-.32c-.21-.21-.32-.56-.32-1.03v-2.21h.46v2.25c0,.31,.07,.54,.21,.68,.14,.14,.36,.21,.66,.21s.53-.07,.66-.21c.14-.14,.21-.37,.21-.68v-2.25h.44v2.21c0,.47-.1,.82-.31,1.03Z"/><path class="e" d="M47.24,56.25v-3.51h.58l1.75,2.67v-2.67h.44v3.51h-.44l-1.9-2.89v2.89h-.44Z"/><path class="e" d="M51.47,56.25v-3.51h.46v3.51h-.46Z"/><path class="e" d="M54.3,56.25l-1.26-3.51h.49l1.02,2.86,1.02-2.86h.47l-1.26,3.51h-.49Z"/><path class="e" d="M57.16,56.25v-3.51h2.5v.41h-2.04v1.1h1.75v.41h-1.75v1.17h2.07v.41h-2.54Z"/><path class="e" d="M60.9,56.25v-3.51h1.38c.41,0,.71,.08,.89,.24s.28,.42,.28,.78c0,.29-.06,.51-.18,.67-.12,.16-.3,.27-.55,.32l.95,1.5h-.55l-.93-1.45h-.82v1.45h-.46Zm.46-1.87h.89c.26,0,.45-.05,.56-.14,.11-.09,.17-.25,.17-.47s-.06-.38-.17-.47c-.11-.09-.3-.14-.56-.14h-.89v1.23Z"/><path class="e" d="M65.81,56.31c-.53,0-.92-.1-1.17-.3v-.47c.32,.24,.72,.36,1.18,.36,.55,0,.82-.2,.82-.61,0-.15-.05-.27-.15-.35-.1-.08-.28-.15-.55-.21l-.39-.09c-.32-.07-.54-.18-.67-.33-.13-.15-.2-.35-.2-.6,0-.68,.41-1.03,1.24-1.03,.45,0,.78,.07,.98,.22v.47c-.26-.18-.58-.27-.97-.27-.53,0-.79,.19-.79,.58,0,.14,.05,.25,.14,.33,.09,.08,.26,.15,.5,.2l.4,.09c.33,.07,.57,.19,.71,.35,.14,.16,.21,.37,.21,.63,0,.69-.43,1.04-1.29,1.04Z"/><path class="e" d="M68.32,56.25v-3.51h.46v3.51h-.46Z"/><path class="e" d="M71.03,56.25v-3.09h-1.12v-.42h2.71v.42h-1.12v3.09h-.46Z"/><path class="e" d="M74.75,56.25v-1.47l-1.28-2.04h.55l.98,1.57,.97-1.57h.52l-1.27,2.03v1.48h-.46Z"/><path class="e" d="M81.9,55.87c-.25,.3-.64,.45-1.16,.45s-.91-.15-1.16-.45c-.25-.3-.38-.75-.38-1.37s.13-1.07,.38-1.37c.25-.3,.64-.45,1.16-.45s.91,.15,1.16,.45,.38,.75,.38,1.37-.13,1.07-.38,1.37Zm-1.97-.3c.17,.23,.44,.34,.81,.34s.64-.11,.81-.34c.17-.23,.26-.58,.26-1.06s-.09-.84-.26-1.06c-.17-.23-.44-.34-.81-.34s-.64,.11-.81,.34c-.17,.23-.26,.58-.26,1.06s.09,.84,.26,1.06Z"/><path class="e" d="M83.57,56.25v-3.51h2.33v.41h-1.87v1.12h1.67v.41h-1.67v1.56h-.46Z"/><path class="e" d="M88.57,56.25l1.39-3.51h.48l1.39,3.51h-.49l-.33-.86h-1.63l-.33,.86h-.47Zm.96-1.28h1.3l-.65-1.69-.65,1.69Z"/><path class="e" d="M92.93,56.25v-3.51h1.42c.43,0,.73,.08,.92,.25s.28,.44,.28,.82-.09,.65-.28,.81c-.19,.17-.49,.25-.92,.25h-.95v1.38h-.46Zm.46-1.79h.92c.27,0,.47-.05,.59-.15,.12-.1,.17-.27,.17-.5s-.06-.41-.17-.51c-.12-.1-.31-.15-.59-.15h-.92v1.3Z"/><path class="e" d="M96.71,56.25v-3.51h1.42c.43,0,.73,.08,.92,.25s.28,.44,.28,.82-.09,.65-.28,.81c-.19,.17-.49,.25-.92,.25h-.95v1.38h-.46Zm.46-1.79h.92c.27,0,.47-.05,.59-.15,.12-.1,.17-.27,.17-.5s-.06-.41-.17-.51c-.12-.1-.31-.15-.59-.15h-.92v1.3Z"/><path class="e" d="M100.48,56.25v-3.51h.46v3.09h1.76v.42h-2.22Z"/><path class="e" d="M103.83,56.25v-3.51h.46v3.51h-.46Z"/><path class="e" d="M105.75,56.25v-3.51h2.5v.41h-2.04v1.1h1.75v.41h-1.75v1.17h2.07v.41h-2.54Z"/><path class="e" d="M109.49,56.25v-3.51h1.09c.57,0,.98,.14,1.23,.41,.25,.27,.37,.72,.37,1.34s-.12,1.07-.37,1.34c-.25,.27-.66,.41-1.23,.41h-1.09Zm.46-.41h.6c.43,0,.73-.1,.9-.3,.17-.2,.26-.55,.26-1.04s-.09-.85-.26-1.04c-.17-.2-.47-.3-.9-.3h-.6v2.68Z"/><path class="e" d="M116.39,56.31c-.53,0-.92-.1-1.17-.3v-.47c.32,.24,.72,.36,1.18,.36,.55,0,.82-.2,.82-.61,0-.15-.05-.27-.15-.35-.1-.08-.28-.15-.55-.21l-.39-.09c-.32-.07-.54-.18-.67-.33-.13-.15-.2-.35-.2-.6,0-.68,.41-1.03,1.24-1.03,.45,0,.78,.07,.98,.22v.47c-.26-.18-.58-.27-.97-.27-.53,0-.79,.19-.79,.58,0,.14,.05,.25,.14,.33,.09,.08,.26,.15,.5,.2l.4,.09c.33,.07,.57,.19,.71,.35,.14,.16,.21,.37,.21,.63,0,.69-.43,1.04-1.29,1.04Z"/><path class="e" d="M120.36,56.31c-.55,0-.96-.15-1.22-.45-.26-.3-.4-.75-.4-1.37s.13-1.07,.39-1.37c.26-.3,.67-.45,1.21-.45,.36,0,.65,.06,.87,.18v.45c-.24-.15-.53-.22-.85-.22-.4,0-.69,.11-.88,.33-.18,.22-.27,.58-.27,1.06s.09,.85,.28,1.07c.18,.22,.48,.34,.89,.34,.32,0,.6-.07,.83-.22v.45c-.21,.12-.49,.18-.86,.18Z"/><path class="e" d="M122.43,56.25v-3.51h.46v3.51h-.46Z"/><path class="e" d="M124.35,56.25v-3.51h2.5v.41h-2.04v1.1h1.75v.41h-1.75v1.17h2.07v.41h-2.54Z"/><path class="e" d="M128.09,56.25v-3.51h.58l1.75,2.67v-2.67h.44v3.51h-.44l-1.9-2.89v2.89h-.44Z"/><path class="e" d="M133.77,56.31c-.55,0-.96-.15-1.22-.45-.26-.3-.4-.75-.4-1.37s.13-1.07,.39-1.37c.26-.3,.67-.45,1.21-.45,.36,0,.65,.06,.87,.18v.45c-.24-.15-.53-.22-.85-.22-.4,0-.69,.11-.88,.33-.18,.22-.27,.58-.27,1.06s.09,.85,.28,1.07c.18,.22,.48,.34,.89,.34,.32,0,.6-.07,.83-.22v.45c-.21,.12-.49,.18-.86,.18Z"/><path class="e" d="M135.83,56.25v-3.51h2.5v.41h-2.04v1.1h1.75v.41h-1.75v1.17h2.07v.41h-2.54Z"/><path class="e" d="M140.62,56.31c-.53,0-.92-.1-1.17-.3v-.47c.32,.24,.72,.36,1.18,.36,.55,0,.82-.2,.82-.61,0-.15-.05-.27-.15-.35-.1-.08-.28-.15-.55-.21l-.39-.09c-.32-.07-.54-.18-.67-.33-.13-.15-.2-.35-.2-.6,0-.68,.41-1.03,1.24-1.03,.45,0,.78,.07,.98,.22v.47c-.26-.18-.58-.27-.97-.27-.53,0-.79,.19-.79,.58,0,.14,.05,.25,.14,.33,.09,.08,.26,.15,.5,.2l.4,.09c.33,.07,.57,.19,.71,.35,.14,.16,.21,.37,.21,.63,0,.69-.43,1.04-1.29,1.04Z"/></g><g><path class="e" d="M27.21,41.82c-2.76,1.15-5.93-.15-7.08-2.91-.41-.98-.51-2.01-.34-2.98h-3.24c-.15,1.39,.04,2.84,.62,4.22,1.83,4.4,6.88,6.48,11.28,4.64,1.37-.57,2.51-1.45,3.38-2.53l-2.29-2.29c-.57,.8-1.36,1.46-2.33,1.86Z"/><path class="e" d="M24.5,33.91c.4-2.96,3.12-5.05,6.08-4.65,1.05,.14,1.99,.57,2.75,1.21l1.63-2.8c-1.13-.83-2.47-1.39-3.95-1.59-4.72-.63-9.06,2.69-9.69,7.41-.2,1.47,0,2.91,.48,4.2l3.14-.83c-.4-.89-.57-1.91-.43-2.95Z"/><path class="e" d="M32.69,35.54c2.37,1.83,2.8,5.23,.98,7.6-.65,.84-1.49,1.44-2.42,1.77l1.61,2.82c1.28-.56,2.44-1.44,3.35-2.63,2.91-3.77,2.21-9.19-1.56-12.1-1.17-.91-2.51-1.46-3.88-1.69l-.85,3.13c.97,.1,1.94,.46,2.77,1.1Z"/></g></g></g><g id="d"/></svg>