<?xml version="1.0" encoding="utf-8"?>
<svg viewBox="0 19.9999 98.961 151.0001" xmlns="http://www.w3.org/2000/svg">
  <g fill="#fff">
    <path d="M64.87 61.78c-.195 6.103-3.182 12.077-7.987 15.843-5 4.026-11.883 5.585-18.117 4.026-6.234-1.428-11.688-5.909-14.35-11.753-2.728-5.78-2.533-12.857.39-18.571 2.402-4.74 6.688-8.442 11.622-10.26-.194-.065-2.207.325-4.74 1.818-2.597 1.494-5.714 4.22-7.597 8.052-3.052 5.91-3.247 13.247-.39 19.286 2.727 6.104 8.442 10.714 14.935 12.208 6.494 1.558 13.637 0 18.831-4.221 5-3.896 8.117-10.13 8.312-16.494l-.909.065Z" style="fill: rgb(178, 222, 39);"/>
    <path d="M67.662 53.727c-.26-.974-.65-1.948-1.104-2.922l-1.039.455c.39.909.78 1.818 1.04 2.792 2.532 8.117.26 17.532-5.715 23.571C55 83.793 45.65 86.39 37.467 84.117c-8.246-2.078-15.064-8.961-17.077-17.273-1.754-6.818-.325-14.35 3.896-20-.26.13-2.208 1.948-3.832 5.585-1.623 3.571-2.597 9.155-1.168 14.675 2.078 8.636 9.22 15.844 17.857 18.052 8.571 2.402 18.312-.325 24.48-6.818 6.299-6.234 8.702-16.04 6.04-24.61Z" style="fill: rgb(178, 222, 39);"/>
    <path d="M67.597 45.545a30.348 30.348 0 0 0-5.584-6.298l-.91 1.104c2.079 1.688 3.832 3.766 5.326 5.974 2.857 4.415 4.415 9.74 4.35 15 .065 10.649-6.883 20.844-16.753 24.805-4.87 2.013-10.325 2.532-15.52 1.558-5.194-.974-10.064-3.571-13.83-7.272-6.3-6.104-9.221-15.39-7.663-24.026-.26.26-1.429 3.376-1.039 8.376.26 4.87 2.598 11.624 7.727 16.624 3.961 3.896 9.091 6.623 14.546 7.662 5.454 1.039 11.234.52 16.363-1.623 10.39-4.156 17.663-14.87 17.598-26.04 0-5.649-1.623-11.233-4.61-15.844Z" style="fill: rgb(178, 222, 39);"/>
    <path d="M35.195 92.169c6.428 1.753 13.441 1.493 19.675-.844 6.234-2.338 11.753-6.624 15.52-12.208 3.766-5.52 5.714-12.273 5.52-18.961-.196-6.688-2.468-13.312-6.494-18.572-4.026-5.324-9.74-9.35-16.17-11.298-.584-.195-1.168-.325-1.753-.52l-.39 1.624c.585.13 1.105.324 1.69.454 6.038 1.883 11.493 5.65 15.324 10.715 3.831 5.064 6.039 11.298 6.169 17.662.195 6.298-1.689 12.727-5.26 17.922-3.571 5.26-8.766 9.35-14.675 11.558a30.655 30.655 0 0 1-18.702.845c-10.194-2.663-18.571-11.04-21.428-21.17-.13.39.26 4.416 3.311 9.546 3.052 5.13 9.286 11.04 17.663 13.247Z" style="fill: rgb(178, 222, 39);"/>
    <path d="M82.792 48.662c-2.662-8.506-8.182-15.974-15.39-21.104-7.207-5.13-16.168-7.857-25-7.532-8.83.26-17.597 3.506-24.48 9.09-.195.13-.39.326-.584.52l1.428 1.689c.195-.13.39-.325.585-.455 6.493-5.325 14.805-8.377 23.181-8.571 8.377-.325 16.819 2.273 23.637 7.143 6.818 4.87 12.078 11.948 14.545 19.935 2.533 7.987 2.403 16.818-.454 24.675-2.793 7.922-8.247 14.87-15.26 19.415-11.559 7.793-27.403 8.507-39.61 1.819.26.52 4.48 3.83 12.207 5.519 3.831.844 8.572 1.104 13.572.325 5-.779 10.325-2.662 15.065-5.844 7.402-4.87 13.181-12.208 16.169-20.52 2.987-8.376 3.116-17.662.39-26.104Z" style="fill: rgb(178, 222, 39);"/>
    <path d="M 3.571 152.039 L 2.143 152.039 L 2.143 156.26 L 0.714 156.26 L 0.714 146.714 L 3.571 146.714 C 4.935 146.714 6.429 147.558 6.429 149.377 C 6.493 151.13 4.935 152.039 3.571 152.039 L 3.571 152.039 Z M 3.311 147.883 L 2.144 147.883 L 2.144 150.805 L 3.313 150.805 C 4.157 150.805 4.936 150.351 4.936 149.377 C 5.001 148.338 4.156 147.883 3.313 147.883 L 3.311 147.883 Z M 13.311 156.39 C 10.779 156.39 8.247 154.506 8.247 151.455 C 8.247 148.403 10.779 146.519 13.312 146.519 C 15.844 146.519 18.377 148.403 18.377 151.455 C 18.312 154.506 15.844 156.39 13.312 156.39 L 13.311 156.39 Z M 13.311 147.688 C 11.558 147.688 9.741 149.052 9.741 151.39 C 9.741 153.727 11.558 155.091 13.311 155.091 C 15.065 155.091 16.883 153.727 16.883 151.39 C 16.925 149.379 15.323 147.719 13.312 147.688 L 13.311 147.688 Z M 20.844 156.195 L 20.844 146.649 L 22.273 146.649 L 22.273 154.961 L 26.493 154.961 L 26.493 156.195 L 20.844 156.195 L 20.844 156.195 Z M 31.429 151.779 L 31.429 156.195 L 30 156.195 L 30 151.779 L 26.364 146.649 L 27.922 146.649 L 29.805 149.312 C 30.065 149.701 30.455 150.221 30.715 150.675 L 31.623 149.312 L 33.571 146.649 L 35.065 146.649 L 31.429 151.779 L 31.429 151.779 Z M 40.389 147.883 L 40.389 156.195 L 38.961 156.195 L 38.961 147.883 L 36.104 147.883 L 36.104 146.649 L 43.377 146.649 L 43.377 147.883 L 40.39 147.883 L 40.389 147.883 Z M 45.584 156.195 L 45.584 146.649 L 50.714 146.649 L 50.714 147.883 L 47.013 147.883 L 47.013 150.805 L 50.13 150.805 L 50.13 152.039 L 47.013 152.039 L 47.013 154.961 L 51.233 154.961 L 51.233 156.195 L 45.584 156.195 L 45.584 156.195 Z M 60.779 148.338 C 60.325 148.013 59.351 147.688 58.377 147.688 C 56.493 147.688 54.545 148.922 54.545 151.39 C 54.545 153.857 56.493 155.091 58.377 155.091 C 59.48 155.091 60.39 154.831 61.039 154.506 L 60.714 155.87 C 60.13 156.195 59.416 156.325 58.247 156.325 C 55.844 156.325 53.117 154.636 53.117 151.39 C 53.117 148.078 55.909 146.455 58.247 146.455 C 59.545 146.455 60.455 146.779 61.039 147.104 L 60.779 148.338 Z M 69.87 156.195 L 69.87 152.039 L 64.935 152.039 L 64.935 156.195 L 63.507 156.195 L 63.507 146.649 L 64.935 146.649 L 64.935 150.805 L 69.87 150.805 L 69.87 146.649 L 71.3 146.649 L 71.3 156.195 L 69.87 156.195 Z M 82.273 156.39 L 77.793 151.519 C 77.038 150.691 76.302 149.847 75.584 148.987 L 75.584 156.195 L 74.156 156.195 L 74.156 146.649 L 75.13 146.649 L 79.22 151.13 C 79.805 151.714 80.65 152.688 81.234 153.403 L 81.234 146.584 L 82.662 146.584 L 82.662 156.325 L 82.272 156.325 L 82.272 156.39 L 82.273 156.39 Z M 85.779 156.195 L 85.779 146.649 L 87.208 146.649 L 87.208 156.195 L 85.779 156.195 Z M 97.662 148.338 C 97.208 148.013 96.234 147.688 95.26 147.688 C 93.377 147.688 91.428 148.922 91.428 151.39 C 91.428 153.857 93.377 155.091 95.26 155.091 C 96.428 155.091 97.273 154.831 97.922 154.506 L 97.597 155.87 C 97.013 156.195 96.299 156.325 95.13 156.325 C 92.727 156.325 90 154.636 90 151.39 C 90 148.078 92.792 146.455 95.13 146.455 C 96.429 146.455 97.338 146.779 97.922 147.104 L 97.662 148.338 Z M 10 132.818 C 5 132.818 0 129.117 0 123.013 C 0 116.974 4.935 113.273 10 113.273 C 15 113.273 20 116.974 20 123.013 C 20 129.117 15 132.818 10 132.818 Z M 10 115.74 C 6.494 115.74 2.922 118.338 2.922 123.013 C 2.922 127.688 6.493 130.351 10 130.351 C 13.442 130.351 17.078 127.688 17.078 123.013 C 17.078 118.338 13.442 115.74 10 115.74 Z M 31.039 116.065 L 31.039 132.429 L 28.182 132.429 L 28.182 116.065 L 22.142 116.065 L 22.142 113.597 L 37.078 113.597 L 37.078 116.065 L 31.038 116.065 L 31.039 116.065 Z M 51.559 132.493 L 49.545 127.623 L 42.208 127.623 L 40.195 132.493 L 37.403 132.493 L 45.455 113.403 L 46.493 113.403 L 54.545 132.493 L 51.558 132.493 L 51.559 132.493 Z M 46.689 120.74 C 46.429 120.091 46.104 119.247 45.909 118.468 L 45.844 118.468 C 45.644 119.244 45.383 120.004 45.064 120.74 L 43.182 125.351 L 48.572 125.351 L 46.688 120.74 L 46.689 120.74 Z M 67.403 132.818 C 62.338 132.818 57.078 129.442 57.078 123.078 C 57.078 116.584 62.532 113.273 67.208 113.273 C 69.805 113.273 71.883 113.922 73.312 114.766 L 72.792 117.234 C 71.428 116.325 69.545 115.74 67.532 115.74 C 63.832 115.74 59.935 118.143 59.935 123.078 C 59.935 127.948 63.701 130.351 67.532 130.351 C 69.286 130.351 70.649 130.026 71.494 129.377 L 71.494 125.48 L 67.273 125.48 L 67.273 123.208 L 74.351 123.208 L 74.351 130.805 C 72.532 132.234 70.26 132.818 67.403 132.818 L 67.403 132.818 Z M 88.961 132.818 C 83.961 132.818 78.961 129.117 78.961 123.013 C 78.961 116.974 83.896 113.273 88.961 113.273 C 93.961 113.273 98.961 116.974 98.961 123.013 C 98.896 129.117 93.961 132.818 88.961 132.818 Z M 88.961 115.74 C 85.454 115.74 81.883 118.338 81.883 123.013 C 81.883 127.688 85.455 130.351 88.961 130.351 C 92.403 130.351 96.039 127.688 96.039 123.013 C 96.039 118.338 92.403 115.74 88.961 115.74 Z M 0.26 139.377 L 98.312 139.377 L 98.312 140.156 L 0.26 140.156 L 0.26 139.377 Z M 3.117 163.208 L 3.117 168.792 L 2.467 168.792 L 2.467 163.208 L 0.39 163.208 L 0.39 162.623 L 5.26 162.623 L 5.26 163.208 L 3.117 163.208 Z M 8.7 166.26 L 8.31 166.584 L 5.39 166.584 C 5.325 167.493 6.039 168.338 7.143 168.338 C 7.663 168.338 8.117 168.208 8.506 167.883 L 8.312 168.532 C 7.939 168.754 7.512 168.867 7.078 168.857 C 5.844 168.857 4.805 167.948 4.805 166.584 C 4.805 165.156 5.845 164.312 6.883 164.312 C 8.052 164.312 8.701 165.156 8.701 165.935 L 8.701 166.26 L 8.7 166.26 Z M 6.882 164.831 C 6.168 164.831 5.518 165.416 5.454 166.065 L 8.116 166.065 L 8.116 165.935 C 8.116 165.48 7.661 164.831 6.882 164.831 Z M 15.389 168.792 L 12.661 165.87 L 12.661 168.792 L 12.012 168.792 L 12.012 162.623 L 12.662 162.623 L 12.662 165.545 L 15.324 162.623 L 16.103 162.623 L 13.376 165.675 L 16.233 168.792 L 15.389 168.792 L 15.389 168.792 Z M 19.999 168.792 L 19.999 168.273 C 19.739 168.597 19.349 168.922 18.57 168.922 C 17.596 168.922 16.882 168.338 16.882 167.429 L 16.882 164.506 L 17.467 164.506 L 17.467 167.364 C 17.467 167.948 17.921 168.403 18.7 168.403 C 19.48 168.403 19.934 167.948 19.934 167.364 L 19.934 164.506 L 20.519 164.506 L 20.519 168.857 L 20 168.857 L 20 168.792 L 19.999 168.792 Z M 23.895 164.896 C 23.051 164.896 22.337 165.48 22.337 166.649 L 22.337 168.792 L 21.752 168.792 L 21.752 164.442 L 22.337 164.442 L 22.337 165.286 C 22.531 164.766 23.051 164.377 23.83 164.377 L 23.96 164.896 L 23.895 164.896 L 23.895 164.896 Z M 27.661 168.857 C 27.335 168.79 27.079 168.534 27.012 168.208 C 26.752 168.597 26.298 168.857 25.713 168.857 C 24.869 168.857 24.35 168.273 24.35 167.558 C 24.35 166.714 25.064 166.26 25.713 166.195 L 26.883 166.065 L 26.883 165.675 C 26.883 165.156 26.493 164.831 25.843 164.831 C 25.453 164.831 24.999 164.961 24.674 165.156 L 24.544 164.636 C 24.869 164.442 25.389 164.312 25.844 164.312 C 26.752 164.312 27.467 164.831 27.467 165.74 L 27.467 167.753 C 27.467 168.208 27.727 168.403 27.986 168.467 L 27.661 168.857 L 27.661 168.857 Z M 26.882 166.649 L 25.843 166.714 C 25.259 166.779 24.934 167.104 24.934 167.558 C 24.934 168.013 25.324 168.338 25.778 168.338 C 26.298 168.338 26.947 167.883 26.947 167.234 L 26.947 166.649 L 26.882 166.649 L 26.882 166.649 Z M 37.337 168.792 L 37.077 165.61 C 37.012 165.091 37.012 164.506 37.012 163.987 C 36.817 164.506 36.492 165.091 36.232 165.61 L 34.674 168.857 L 34.48 168.857 L 32.921 165.61 C 32.661 165.156 32.401 164.506 32.141 163.987 C 32.141 164.506 32.077 165.091 32.077 165.545 L 31.817 168.727 L 31.233 168.727 L 31.753 162.623 L 32.142 162.623 L 33.83 166.065 C 34.09 166.584 34.415 167.234 34.61 167.753 C 34.87 167.169 35.129 166.649 35.389 166.065 L 37.077 162.623 L 37.402 162.623 L 37.922 168.727 L 37.337 168.727 L 37.337 168.792 L 37.337 168.792 Z M 42.142 168.857 C 41.815 168.79 41.56 168.535 41.492 168.208 C 41.232 168.597 40.778 168.857 40.194 168.857 C 39.35 168.857 38.83 168.273 38.83 167.558 C 38.83 166.714 39.544 166.26 40.194 166.195 L 41.363 166.065 L 41.363 165.675 C 41.363 165.156 40.973 164.831 40.323 164.831 C 39.934 164.831 39.48 164.961 39.155 165.156 L 39.025 164.636 C 39.35 164.442 39.869 164.312 40.324 164.312 C 41.233 164.312 41.947 164.831 41.947 165.74 L 41.947 167.753 C 41.947 168.208 42.207 168.403 42.467 168.467 L 42.142 168.857 L 42.142 168.857 Z M 41.362 166.649 L 40.324 166.714 C 39.739 166.779 39.414 167.104 39.414 167.558 C 39.414 168.013 39.804 168.338 40.259 168.338 C 40.779 168.338 41.428 167.883 41.428 167.234 L 41.428 166.649 L 41.363 166.649 L 41.362 166.649 Z M 45.583 164.896 L 44.155 164.896 L 44.155 167.688 C 44.155 168.143 44.415 168.338 44.805 168.338 C 44.999 168.338 45.194 168.338 45.324 168.273 L 45.194 168.857 C 45.129 168.922 44.999 168.922 44.804 168.922 C 44.154 168.922 43.635 168.532 43.635 167.753 L 43.635 165.026 L 42.726 165.026 L 42.726 164.506 L 43.636 164.506 L 43.636 163.532 L 44.22 163.208 L 44.22 164.442 L 45.778 164.442 L 45.583 164.896 Z M 49.544 168.857 C 49.218 168.79 48.962 168.534 48.895 168.208 C 48.635 168.597 48.181 168.857 47.596 168.857 C 46.752 168.857 46.233 168.273 46.233 167.558 C 46.233 166.714 46.883 166.26 47.596 166.195 L 48.766 166.065 L 48.766 165.675 C 48.766 165.156 48.376 164.831 47.726 164.831 C 47.336 164.831 46.882 164.961 46.557 165.156 L 46.427 164.636 C 46.752 164.442 47.272 164.312 47.727 164.312 C 48.635 164.312 49.35 164.831 49.35 165.74 L 49.35 167.753 C 49.35 168.208 49.61 168.403 49.87 168.467 L 49.544 168.857 L 49.544 168.857 Z M 48.83 166.649 L 47.791 166.714 C 47.207 166.779 46.882 167.104 46.882 167.558 C 46.882 168.013 47.272 168.338 47.726 168.338 C 48.246 168.338 48.896 167.883 48.896 167.234 L 48.896 166.649 L 48.83 166.649 L 48.83 166.649 Z M 53.05 164.896 L 51.622 164.896 L 51.622 167.688 C 51.622 168.143 51.882 168.338 52.272 168.338 C 52.466 168.338 52.662 168.338 52.792 168.273 L 52.662 168.857 C 52.596 168.922 52.402 168.922 52.272 168.922 C 51.622 168.922 51.102 168.532 51.102 167.753 L 51.102 165.026 L 50.194 165.026 L 50.194 164.506 L 51.103 164.506 L 51.103 163.532 L 51.687 163.208 L 51.687 164.442 L 53.246 164.442 L 53.051 164.896 L 53.05 164.896 Z M 59.155 168.792 L 59.155 165.87 C 59.155 165.286 58.7 164.831 57.921 164.831 C 57.141 164.831 56.687 165.286 56.687 165.87 L 56.687 168.727 L 56.103 168.727 L 56.103 164.377 L 56.623 164.377 L 56.623 164.896 C 56.883 164.571 57.272 164.247 58.051 164.247 C 59.025 164.247 59.739 164.831 59.739 165.74 L 59.739 168.662 L 59.155 168.662 L 59.155 168.792 L 59.155 168.792 Z M 68.115 168.792 L 66.038 166.649 L 66.038 168.792 L 65.453 168.792 L 65.453 161.974 L 66.038 161.974 L 66.038 166.519 L 68.051 164.442 L 68.765 164.442 L 66.687 166.584 L 68.83 168.792 L 68.116 168.792 L 68.115 168.792 Z M 77.077 168.857 C 75.389 168.857 73.895 167.558 73.895 165.675 C 73.895 163.792 75.389 162.493 77.077 162.493 C 78.765 162.493 80.259 163.792 80.259 165.675 C 80.324 167.623 78.765 168.857 77.077 168.857 Z M 77.077 163.078 C 75.713 163.078 74.544 164.117 74.544 165.675 C 74.517 167.095 75.656 168.264 77.077 168.273 C 78.441 168.273 79.609 167.234 79.609 165.675 C 79.674 164.117 78.441 163.078 77.077 163.078 Z M 83.765 164.896 L 82.337 164.896 L 82.337 167.688 C 82.337 168.143 82.597 168.338 82.986 168.338 C 83.181 168.338 83.376 168.338 83.506 168.273 L 83.376 168.857 C 83.311 168.922 83.116 168.922 82.986 168.922 C 82.336 168.922 81.752 168.532 81.752 167.753 L 81.752 165.026 L 80.843 165.026 L 80.843 164.506 L 81.753 164.506 L 81.753 163.532 L 82.337 163.208 L 82.337 164.442 L 83.895 164.442 L 83.765 164.896 L 83.765 164.896 Z M 87.726 168.857 C 87.399 168.79 87.144 168.535 87.076 168.208 C 86.817 168.597 86.363 168.857 85.778 168.857 C 84.934 168.857 84.415 168.273 84.415 167.558 C 84.415 166.714 85.129 166.26 85.778 166.195 L 86.947 166.065 L 86.947 165.675 C 86.947 165.156 86.557 164.831 85.908 164.831 C 85.518 164.831 85.064 164.961 84.739 165.156 L 84.609 164.636 C 84.934 164.442 85.453 164.312 85.909 164.312 C 86.817 164.312 87.531 164.831 87.531 165.74 L 87.531 167.753 C 87.531 168.208 87.791 168.403 88.051 168.467 L 87.726 168.857 L 87.726 168.857 Z M 86.947 166.649 L 85.908 166.714 C 85.324 166.779 84.999 167.104 84.999 167.558 C 84.999 168.013 85.389 168.338 85.843 168.338 C 86.363 168.338 87.012 167.883 87.012 167.234 L 87.012 166.649 L 86.947 166.649 L 86.947 166.649 Z M 90.519 171 C 89.351 171 88.571 170.351 88.571 169.506 C 88.571 168.792 89.091 168.273 89.611 168.208 L 89.091 167.753 C 89.091 167.429 89.416 167.169 89.675 167.039 C 89.221 166.844 88.896 166.39 88.896 165.805 C 88.896 164.961 89.546 164.377 90.519 164.377 C 90.779 164.377 90.909 164.442 91.039 164.442 C 91.169 164.506 91.364 164.506 91.559 164.506 C 91.819 164.506 92.078 164.442 92.208 164.377 L 92.338 164.896 C 92.208 164.961 91.948 165.026 91.753 165.026 C 91.948 165.221 92.078 165.48 92.078 165.87 C 92.078 166.649 91.493 167.299 90.454 167.299 C 90 167.299 89.675 167.429 89.675 167.623 C 89.675 167.688 89.87 167.883 90.065 167.948 L 91.169 168.338 C 91.883 168.597 92.338 168.987 92.338 169.701 C 92.403 170.416 91.623 171 90.519 171 L 90.519 171 Z M 91.104 168.792 L 90.26 168.532 C 89.61 168.532 89.156 168.987 89.156 169.506 C 89.156 170.026 89.676 170.48 90.519 170.48 C 91.364 170.48 91.883 170.026 91.883 169.571 C 91.883 169.182 91.558 168.922 91.103 168.792 L 91.104 168.792 Z M 90.519 164.831 C 89.935 164.831 89.481 165.286 89.481 165.74 C 89.481 166.26 89.935 166.714 90.519 166.714 C 91.039 166.714 91.559 166.325 91.559 165.74 C 91.559 165.286 91.104 164.831 90.519 164.831 Z M 95.259 168.857 C 93.961 168.857 92.987 167.883 92.987 166.584 C 92.987 165.286 93.961 164.312 95.26 164.312 C 96.558 164.312 97.532 165.286 97.532 166.584 C 97.597 167.948 96.558 168.857 95.26 168.857 L 95.259 168.857 Z M 95.259 164.896 C 94.286 164.896 93.571 165.61 93.571 166.649 C 93.571 167.688 94.286 168.403 95.26 168.403 C 96.169 168.403 96.948 167.688 96.948 166.649 C 96.948 165.61 96.234 164.896 95.26 164.896 L 95.259 164.896 Z M 54.156 168.792 L 54.156 164.442 L 54.74 164.442 L 54.74 168.792 L 54.156 168.792 Z M 54.416 162.883 C 54.207 162.897 54.04 163.064 54.026 163.273 C 54.026 163.467 54.156 163.662 54.416 163.662 C 54.61 163.662 54.806 163.467 54.806 163.273 C 54.806 163.013 54.61 162.883 54.416 162.883 Z M 61.104 168.792 L 61.104 164.442 L 61.688 164.442 L 61.688 168.792 L 61.104 168.792 Z M 61.429 162.883 C 61.22 162.897 61.053 163.064 61.039 163.273 C 61.039 163.467 61.234 163.662 61.429 163.662 C 61.623 163.662 61.819 163.467 61.819 163.273 C 61.819 163.013 61.623 162.883 61.429 162.883 Z M 69.805 168.792 L 69.805 164.442 L 70.455 164.442 L 70.455 168.792 L 69.805 168.792 Z M 70.065 162.883 C 69.856 162.897 69.689 163.064 69.675 163.273 C 69.675 163.467 69.87 163.662 70.065 163.662 C 70.26 163.662 70.455 163.467 70.455 163.273 C 70.455 163.013 70.26 162.883 70.065 162.883 Z"/>
  </g>
  <path d="M 47.978 95.328 C 35.771 96.951 23.043 91.367 15.901 81.367 C 15.901 81.887 17.979 86.107 23.434 90.457 C 26.591 92.935 30.179 94.806 34.018 95.977 C 38.304 97.341 43.238 97.86 48.174 97.211 C 55.901 96.301 63.369 92.795 68.954 87.341 C 74.603 81.951 78.499 74.678 79.732 67.016 C 81.032 59.289 79.797 51.172 76.161 44.289 C 72.589 37.341 66.745 31.626 59.732 28.249 C 52.719 24.809 44.602 23.769 36.94 25.263 C 36.745 25.328 36.486 25.328 36.29 25.393 L 36.68 27.276 C 36.875 27.211 37.07 27.211 37.33 27.146 C 44.603 25.717 52.265 26.691 58.953 30.003 C 65.641 33.185 71.161 38.639 74.538 45.198 C 77.979 51.756 79.148 59.418 77.914 66.691 C 76.745 73.964 73.109 80.847 67.719 85.977 C 62.329 91.107 55.317 94.354 47.979 95.327 L 47.978 95.328 Z" style="fill: rgb(178, 222, 39);"/>
</svg>
