<?xml version="1.0" encoding="UTF-8" standalone="no"?>
<!DOCTYPE svg PUBLIC "-//W3C//DTD SVG 1.1//EN" "http://www.w3.org/Graphics/SVG/1.1/DTD/svg11.dtd">
<svg width="100%" height="100%" viewBox="0 0 300 57" version="1.1" xmlns="http://www.w3.org/2000/svg" xmlns:xlink="http://www.w3.org/1999/xlink" xml:space="preserve" xmlns:serif="http://www.serif.com/" style="fill-rule:evenodd;clip-rule:evenodd;stroke-linejoin:round;stroke-miterlimit:2;">
    <g transform="matrix(1,0,0,1,-1620,-730)">
        <g id="logo_marangoni" transform="matrix(1.11524,0,0,0.448819,-1015.32,583.685)">
            <rect x="2363" y="326" width="269" height="127" style="fill:none;"/>
            <clipPath id="_clip1">
                <rect x="2363" y="326" width="269" height="127"/>
            </clipPath>
            <g clip-path="url(#_clip1)">
                <g transform="matrix(0.979812,0,0,2.43467,2363,326)">
                    <path d="M0,12.18L4.15,12.18L4.15,15.43L0,15.43L0,12.18ZM0,17.18L4.15,17.18L4.15,31.48L0,31.48L0,17.18Z" style="fill:white;fill-rule:nonzero;"/>
                    <path d="M8.18,26.68C9.248,27.864 10.739,28.582 12.33,28.68C13.33,28.68 14.87,28.35 14.87,27.29C14.875,26.93 14.655,26.602 14.32,26.47C13.539,26.179 12.721,25.998 11.89,25.93C11.251,25.808 10.62,25.648 10,25.45C9.108,25.253 8.281,24.829 7.6,24.22C6.912,23.498 6.532,22.537 6.54,21.54C6.54,19.19 8.54,16.76 12.54,16.76C14.837,16.753 17.074,17.506 18.9,18.9L16.31,21.3C15.305,20.446 14.047,19.947 12.73,19.88C11.09,19.88 10.73,20.54 10.73,20.94C10.73,21.76 11.63,21.94 13,22.17C15.87,22.69 19.2,23.45 19.2,26.84C19.2,30.23 15.81,31.84 12.45,31.84C9.866,31.91 7.365,30.91 5.54,29.08L8.19,26.68L8.18,26.68Z" style="fill:white;fill-rule:nonzero;"/>
                    <path d="M22,13.11L26.2,13.11L26.2,17.56L29,17.56L29,20.13L26.18,20.13L26.18,26.55C26.18,27.42 26.18,28.16 27.27,28.16L28.77,28.11L28.77,31.38C28.041,31.515 27.302,31.588 26.56,31.6C25.12,31.6 23.56,31.52 22.63,30.21C22.099,29.229 21.88,28.109 22,27L22,20.1L20,20.1L20,17.53L22,17.53L22,13.11Z" style="fill:white;fill-rule:nonzero;"/>
                    <path d="M30.87,12.18L35,12.18L35,15.43L30.87,15.43L30.87,12.18ZM30.87,17.18L35,17.18L35,31.48L30.87,31.48L30.87,17.18Z" style="fill:white;fill-rule:nonzero;"/>
                    <path d="M38.68,13.11L42.86,13.11L42.86,17.56L45.62,17.56L45.62,20.13L42.83,20.13L42.83,26.55C42.83,27.42 42.83,28.16 43.92,28.16L45.42,28.11L45.42,31.38C44.691,31.515 43.952,31.589 43.21,31.6C41.76,31.6 40.21,31.52 39.28,30.21C38.758,29.223 38.548,28.099 38.68,26.99L38.68,20.1L36.61,20.1L36.61,17.53L38.68,17.53L38.68,13.11Z" style="fill:white;fill-rule:nonzero;"/>
                    <path d="M55.93,17.23L60.13,17.23L60.13,31.48L55.93,31.48L55.93,30.12C55.553,30.601 55.066,30.985 54.51,31.24C53.676,31.672 52.75,31.899 51.81,31.9C50.431,32.007 49.081,31.449 48.18,30.4C47.44,29.4 47.31,28.52 47.31,26.2L47.31,17.2L51.54,17.2L51.54,26.05C51.472,26.634 51.588,27.224 51.87,27.74C52.285,28.218 52.898,28.48 53.53,28.45C54.04,28.478 54.548,28.368 55,28.13C55.708,27.73 56.105,26.936 56,26.13L56,17.23L55.93,17.23Z" style="fill:white;fill-rule:nonzero;"/>
                    <path d="M63.78,13.11L68,13.11L68,17.56L70.76,17.56L70.76,20.13L67.93,20.13L67.93,26.55C67.93,27.42 67.93,28.16 69.02,28.16L70.52,28.11L70.52,31.38C69.791,31.515 69.052,31.589 68.31,31.6C66.86,31.6 65.31,31.52 64.38,30.21C63.858,29.223 63.648,28.099 63.78,26.99L63.78,20.1L61.71,20.1L61.71,17.53L63.79,17.53L63.79,13.11L63.78,13.11Z" style="fill:white;fill-rule:nonzero;"/>
                    <path d="M86.69,24.33C86.69,27.94 84.62,31.89 79.05,31.89C75.05,31.89 71.38,29.6 71.38,24.33C71.38,19.97 74.14,16.5 79.6,16.8C85.41,17.13 86.7,21.74 86.7,24.33L86.69,24.33ZM76.32,21.52C75.825,22.364 75.578,23.332 75.61,24.31C75.61,26.58 76.7,28.57 79.05,28.57C81.4,28.57 82.44,26.74 82.44,24.51C82.55,23.208 82.128,21.915 81.27,20.93C80.612,20.309 79.707,20.019 78.81,20.14C77.792,20.123 76.84,20.654 76.32,21.53L76.32,21.52Z" style="fill:white;fill-rule:nonzero;"/>
                    <path d="M93,18.73C93.96,17.51 95.449,16.822 97,16.88C98.525,16.745 100.023,17.37 101,18.55C102.136,17.46 103.656,16.86 105.23,16.88C106.834,16.723 108.393,17.502 109.23,18.88C109.58,19.932 109.71,21.045 109.61,22.15L109.61,31.43L105.46,31.43L105.46,24C105.498,23.187 105.445,22.371 105.3,21.57C105.049,20.782 104.296,20.255 103.47,20.29C102.981,20.284 102.503,20.439 102.11,20.73C101.32,21.36 101.32,22.18 101.32,23.73L101.32,31.48L97.14,31.48L97.14,23C97.194,22.308 97.052,21.615 96.73,21C96.325,20.517 95.72,20.244 95.09,20.26C94.683,20.26 94.285,20.374 93.94,20.59C93.01,21.22 92.94,22.36 92.94,23.35L92.94,31.46L88.84,31.46L88.84,17.26L93,17.26L93,18.73Z" style="fill:white;fill-rule:nonzero;"/>
                    <path d="M111.79,21.27C111.775,20.04 112.329,18.869 113.29,18.1C114.671,17.158 116.334,16.717 118,16.85C119.75,16.85 124,17.26 124,20.94L124,29.24C124,30.77 124.08,30.99 124.41,31.48L120.29,31.48L120.29,30.17C119.084,31.24 117.532,31.84 115.92,31.86C115.804,31.869 115.687,31.874 115.57,31.874C113.2,31.874 111.25,29.924 111.25,27.554C111.25,27.543 111.25,27.531 111.25,27.52C111.34,25.682 112.524,24.068 114.25,23.43C116.086,22.845 117.965,22.407 119.87,22.12L119.87,21.35C119.82,20.69 119.76,19.6 118.26,19.6C116.4,19.6 116.16,20.75 116.05,21.27L111.79,21.27ZM117.11,25.55C116.4,25.82 115.31,26.23 115.31,27.32C115.348,28.15 116.06,28.804 116.89,28.77C117.407,28.755 117.909,28.596 118.34,28.31C119.74,27.44 119.79,26.13 119.82,24.65L117.12,25.55L117.11,25.55Z" style="fill:white;fill-rule:nonzero;"/>
                    <path d="M130.32,18.71C131.464,17.706 132.919,17.127 134.44,17.07L134.44,20.78L133,21C131,21.36 130.38,21.66 130.38,23.46L130.38,31.46L126.17,31.46L126.17,17.21L130.27,17.21L130.27,18.71L130.32,18.71Z" style="fill:white;fill-rule:nonzero;"/>
                    <path d="M135.84,21.27C135.828,20.038 136.386,18.867 137.35,18.1C138.714,17.17 140.354,16.73 142,16.85C143.74,16.85 148,17.26 148,20.94L148,29.24C148,30.77 148.08,30.99 148.41,31.48L144.29,31.48L144.29,30.17C143.084,31.239 141.532,31.839 139.92,31.86C139.804,31.869 139.687,31.874 139.57,31.874C137.2,31.874 135.25,29.924 135.25,27.554C135.25,27.543 135.25,27.531 135.25,27.52C135.343,25.683 136.526,24.07 138.25,23.43C140.089,22.845 141.972,22.407 143.88,22.12L143.88,21.35C143.82,20.69 143.77,19.6 142.26,19.6C140.41,19.6 140.16,20.75 140.05,21.27L135.84,21.27ZM141.17,25.55C140.46,25.82 139.37,26.23 139.37,27.32C139.408,28.15 140.12,28.804 140.95,28.77C141.467,28.754 141.969,28.595 142.4,28.31C143.79,27.44 143.84,26.13 143.87,24.65L141.17,25.55Z" style="fill:white;fill-rule:nonzero;"/>
                    <path d="M154.56,18.52C154.949,18.042 155.441,17.659 156,17.4C156.822,17.062 157.701,16.886 158.59,16.88C159.47,16.861 160.342,17.057 161.13,17.45C162.63,18.24 163.01,19.53 163.01,21.74L163.01,31.49L158.83,31.49L158.83,23.49C158.903,22.774 158.839,22.051 158.64,21.36C158.302,20.642 157.551,20.207 156.76,20.27C154.54,20.27 154.54,22.04 154.54,23.82L154.54,31.52L150.34,31.52L150.34,17.26L154.57,17.26L154.57,18.52L154.56,18.52Z" style="fill:white;fill-rule:nonzero;"/>
                    <path d="M174.48,29.6C173.394,30.411 172.065,30.834 170.71,30.8C169.56,30.823 168.428,30.502 167.46,29.88C165.55,28.65 164.81,26.44 164.81,23.98C164.81,21.11 166.15,16.98 170.87,16.98C172.308,16.926 173.701,17.495 174.69,18.54L174.69,17.21L178.62,17.21L178.62,30.91C178.56,32.47 178.51,34.3 176.43,35.5C174.928,36.257 173.262,36.631 171.58,36.59C169.6,36.715 167.646,36.078 166.12,34.81C165.299,33.905 164.892,32.697 165,31.48L169.35,31.48C169.313,32.331 169.796,33.124 170.57,33.48C170.988,33.677 171.448,33.769 171.91,33.75C174.45,33.75 174.45,32.25 174.45,31.07L174.45,29.6L174.48,29.6ZM169.15,23.95C169.15,25.15 169.24,27.63 171.83,27.63C173.96,27.63 174.45,25.96 174.45,23.95C174.502,22.992 174.324,22.035 173.93,21.16C173.401,20.443 172.526,20.061 171.64,20.16C169.64,20.24 169.15,21.96 169.15,23.98L169.15,23.95Z" style="fill:white;fill-rule:nonzero;"/>
                    <path d="M195.73,24.33C195.73,27.94 193.65,31.89 188.09,31.89C184.09,31.89 180.42,29.6 180.42,24.33C180.42,19.97 183.18,16.5 188.64,16.8C194.45,17.13 195.74,21.74 195.74,24.33L195.73,24.33ZM185.36,21.52C184.863,22.364 184.617,23.332 184.65,24.31C184.65,26.58 185.75,28.57 188.1,28.57C190.45,28.57 191.48,26.74 191.48,24.51C191.592,23.208 191.169,21.915 190.31,20.93C189.652,20.309 188.747,20.019 187.85,20.14C186.834,20.122 185.885,20.655 185.37,21.53L185.36,21.52Z" style="fill:white;fill-rule:nonzero;"/>
                    <path d="M201.81,18.52C202.194,18.046 202.679,17.663 203.23,17.4C204.055,17.061 204.938,16.884 205.83,16.88C206.71,16.86 207.583,17.055 208.37,17.45C209.87,18.24 210.26,19.53 210.26,21.74L210.26,31.49L206.08,31.49L206.08,23.49C206.152,22.774 206.088,22.052 205.89,21.36C205.558,20.629 204.801,20.181 204,20.24C201.78,20.24 201.78,22.01 201.78,23.79L201.78,31.49L197.58,31.49L197.58,17.26L201.81,17.26L201.81,18.52Z" style="fill:white;fill-rule:nonzero;"/>
                    <path d="M212.57,12.18L216.72,12.18L216.72,15.43L212.57,15.43L212.57,12.18ZM212.57,17.18L216.72,17.18L216.72,31.48L212.57,31.48L212.57,17.18Z" style="fill:white;fill-rule:nonzero;"/>
                    <path d="M251.71,0C244.095,-0.016 236.956,3.779 232.71,10.1L234.28,10.1L234.28,12.31C235.734,10.457 237.997,9.417 240.35,9.52C242.639,9.321 244.885,10.26 246.35,12.03C248.059,10.387 250.35,9.485 252.72,9.52C256.25,9.52 258.05,11.28 258.72,12.6C259.25,13.75 259.3,15.23 259.3,17.53L259.3,31.53L253,31.53L253,20.24C253.054,19.018 252.97,17.793 252.75,16.59C252.374,15.404 251.243,14.611 250,14.66C249.26,14.648 248.536,14.88 247.94,15.32C246.75,16.26 246.75,17.49 246.75,19.83L246.75,31.48L240.51,31.48L240.51,18.8C240.592,17.762 240.377,16.721 239.89,15.8C239.284,15.073 238.376,14.663 237.43,14.69C236.822,14.69 236.227,14.86 235.71,15.18C234.32,16.12 234.28,17.85 234.28,19.33L234.28,31.48L230.51,31.48C234.008,40.072 242.405,45.72 251.683,45.72C264.223,45.72 274.543,35.401 274.543,22.86C274.543,10.33 264.24,0.015 251.71,0Z" style="fill:white;fill-rule:nonzero;"/>
                    <path d="M34.37,47.36C34.725,47.669 35.19,47.824 35.66,47.79C36.016,47.795 36.365,47.69 36.66,47.49C36.905,47.344 37.092,47.118 37.19,46.85L39,46.85C38.801,47.602 38.344,48.26 37.71,48.71C37.08,49.097 36.35,49.292 35.61,49.27C35.061,49.289 34.513,49.198 34,49C33.56,48.829 33.164,48.563 32.84,48.22C32.516,47.873 32.264,47.465 32.1,47.02C31.922,46.526 31.834,46.005 31.84,45.48C31.855,44.971 31.963,44.47 32.16,44C32.324,43.55 32.58,43.138 32.91,42.79C33.243,42.448 33.641,42.176 34.08,41.99C34.558,41.789 35.072,41.69 35.59,41.7C36.143,41.669 36.695,41.772 37.2,42C37.649,42.241 38.036,42.583 38.33,43C38.639,43.402 38.866,43.861 39,44.35C39.125,44.891 39.158,45.448 39.1,46L33.88,46C33.858,46.512 34.033,47.014 34.37,47.4L34.37,47.36ZM36.61,43.55C36.323,43.271 35.929,43.128 35.53,43.16C35.258,43.15 34.987,43.204 34.74,43.32C34.543,43.414 34.368,43.551 34.23,43.72C34.11,43.871 34.022,44.044 33.97,44.23C33.923,44.383 33.893,44.541 33.88,44.7L37.11,44.7C37.055,44.277 36.881,43.879 36.61,43.55Z" style="fill:white;fill-rule:nonzero;"/>
                    <path d="M42.16,41.86L42.16,42.86C42.393,42.46 42.742,42.139 43.16,41.94C43.542,41.751 43.963,41.651 44.39,41.65C44.837,41.635 45.282,41.71 45.7,41.87C46.018,41.995 46.298,42.202 46.51,42.47C46.715,42.749 46.855,43.07 46.92,43.41C47.003,43.811 47.043,44.22 47.04,44.63L47.04,49.1L45.04,49.1L45.04,45C45.07,44.536 44.973,44.073 44.76,43.66C44.528,43.347 44.147,43.179 43.76,43.22C43.315,43.18 42.878,43.359 42.59,43.7C42.307,44.179 42.181,44.736 42.23,45.29L42.23,49.1L40.23,49.1L40.23,41.86L42.16,41.86Z" style="fill:white;fill-rule:nonzero;"/>
                    <path d="M50.56,39.1L50.56,42.87C50.793,42.469 51.141,42.148 51.56,41.95C51.912,41.767 52.303,41.667 52.7,41.66C53.147,41.645 53.593,41.719 54.01,41.88C54.328,42.005 54.608,42.212 54.82,42.48C55.024,42.759 55.164,43.08 55.23,43.42C55.313,43.821 55.353,44.23 55.35,44.64L55.35,49.1L53.35,49.1L53.35,45C53.381,44.536 53.284,44.073 53.07,43.66C52.84,43.345 52.458,43.177 52.07,43.22C51.625,43.18 51.188,43.359 50.9,43.7C50.614,44.178 50.484,44.734 50.53,45.29L50.53,49.1L48.53,49.1L48.53,39.1L50.56,39.1Z" style="fill:white;fill-rule:nonzero;"/>
                    <path d="M57.13,42.92C57.333,42.616 57.603,42.363 57.92,42.18C58.252,41.989 58.614,41.854 58.99,41.78C59.385,41.701 59.787,41.661 60.19,41.66C60.561,41.661 60.932,41.688 61.3,41.74C61.647,41.786 61.985,41.888 62.3,42.04C62.601,42.18 62.862,42.393 63.06,42.66C63.267,42.97 63.369,43.338 63.35,43.71L63.35,47.47C63.352,47.784 63.372,48.098 63.41,48.41C63.43,48.645 63.498,48.873 63.61,49.08L61.61,49.08C61.574,48.965 61.544,48.848 61.52,48.73C61.513,48.61 61.513,48.49 61.52,48.37C61.212,48.69 60.826,48.925 60.4,49.05C59.972,49.182 59.528,49.25 59.08,49.25C58.742,49.255 58.405,49.211 58.08,49.12C57.796,49.044 57.531,48.911 57.3,48.73C57.072,48.552 56.891,48.322 56.77,48.06C56.632,47.745 56.567,47.403 56.58,47.06C56.569,46.714 56.645,46.37 56.8,46.06C56.932,45.81 57.121,45.595 57.35,45.43C57.591,45.265 57.858,45.144 58.14,45.07C58.43,44.99 58.73,44.93 59.03,44.88C59.33,44.83 59.62,44.8 59.91,44.77C60.169,44.745 60.427,44.701 60.68,44.64C60.872,44.6 61.053,44.518 61.21,44.4C61.342,44.282 61.409,44.106 61.39,43.93C61.399,43.754 61.365,43.579 61.29,43.42C61.223,43.301 61.127,43.201 61.01,43.13C60.885,43.054 60.745,43.006 60.6,42.99C60.434,42.976 60.266,42.976 60.1,42.99C59.774,42.97 59.451,43.058 59.18,43.24C58.934,43.45 58.791,43.757 58.79,44.08L56.79,44.08C56.801,43.669 56.922,43.269 57.14,42.92L57.13,42.92ZM61.06,45.73C60.929,45.776 60.796,45.812 60.66,45.84L60.2,45.91L59.72,45.98L59.28,46.09C59.144,46.133 59.016,46.198 58.9,46.28C58.792,46.359 58.703,46.462 58.64,46.58C58.571,46.723 58.536,46.881 58.54,47.04C58.535,47.196 58.569,47.351 58.64,47.49C58.699,47.608 58.789,47.708 58.9,47.78C59.021,47.849 59.153,47.897 59.29,47.92C59.443,47.933 59.597,47.933 59.75,47.92C60.065,47.94 60.379,47.874 60.66,47.73C60.859,47.618 61.024,47.456 61.14,47.26C61.238,47.091 61.303,46.904 61.33,46.71C61.339,46.56 61.339,46.41 61.33,46.26L61.33,45.52C61.236,45.598 61.127,45.656 61.01,45.69L61.06,45.73Z" style="fill:white;fill-rule:nonzero;"/>
                    <path d="M66.8,41.86L66.8,42.86C67.033,42.459 67.381,42.138 67.8,41.94C68.174,41.759 68.584,41.663 69,41.66C69.447,41.645 69.893,41.719 70.31,41.88C70.627,42.008 70.906,42.214 71.12,42.48C71.325,42.759 71.465,43.08 71.53,43.42C71.614,43.821 71.655,44.23 71.65,44.64L71.65,49.1L69.65,49.1L69.65,45C69.68,44.536 69.583,44.073 69.37,43.66C69.138,43.347 68.757,43.179 68.37,43.22C67.922,43.178 67.481,43.357 67.19,43.7C66.908,44.18 66.782,44.736 66.83,45.29L66.83,49.1L64.83,49.1L64.83,41.86L66.8,41.86Z" style="fill:white;fill-rule:nonzero;"/>
                    <path d="M76.66,43.16C76.377,43.15 76.098,43.226 75.86,43.38C75.643,43.524 75.461,43.715 75.33,43.94C75.193,44.176 75.096,44.433 75.04,44.7C74.986,44.97 74.959,45.245 74.96,45.52C74.96,45.785 74.987,46.05 75.04,46.31C75.094,46.57 75.189,46.819 75.32,47.05C75.444,47.269 75.619,47.454 75.83,47.59C76.064,47.735 76.335,47.808 76.61,47.8C77.016,47.826 77.415,47.681 77.71,47.4C77.978,47.103 78.146,46.728 78.19,46.33L80.1,46.33C80.032,47.175 79.637,47.961 79,48.52C78.325,49.045 77.485,49.315 76.63,49.28C76.12,49.284 75.614,49.189 75.14,49C74.712,48.828 74.324,48.569 74,48.24C73.677,47.904 73.425,47.506 73.26,47.07C73.079,46.594 72.991,46.089 73,45.58C72.986,45.045 73.06,44.511 73.22,44C73.372,43.539 73.617,43.113 73.94,42.75C74.272,42.419 74.671,42.164 75.11,42C75.608,41.796 76.142,41.697 76.68,41.71C77.099,41.709 77.516,41.766 77.92,41.88C78.301,41.985 78.66,42.157 78.98,42.39C79.291,42.616 79.55,42.906 79.74,43.24C79.948,43.611 80.065,44.025 80.08,44.45L78.13,44.45C78.087,43.753 77.501,43.202 76.803,43.202C76.755,43.202 76.707,43.205 76.66,43.21L76.66,43.16Z" style="fill:white;fill-rule:nonzero;"/>
                    <path d="M81.29,40.74L81.29,39.1L83.29,39.1L83.29,40.74L81.29,40.74ZM83.29,41.86L83.29,49.1L81.29,49.1L81.29,41.86L83.29,41.86Z" style="fill:white;fill-rule:nonzero;"/>
                    <path d="M86.74,41.86L86.74,42.86C86.973,42.459 87.321,42.138 87.74,41.94C88.132,41.75 88.564,41.654 89,41.66C89.447,41.645 89.892,41.72 90.31,41.88C90.624,42.007 90.9,42.214 91.11,42.48C91.313,42.76 91.452,43.081 91.52,43.42C91.602,43.821 91.642,44.23 91.64,44.64L91.64,49.1L89.64,49.1L89.64,45C89.671,44.536 89.574,44.073 89.36,43.66C89.13,43.345 88.748,43.177 88.36,43.22C87.912,43.176 87.47,43.356 87.18,43.7C86.897,44.179 86.771,44.736 86.82,45.29L86.82,49.1L84.82,49.1L84.82,41.86L86.74,41.86Z" style="fill:white;fill-rule:nonzero;"/>
                    <path d="M100,49.63C99.91,49.999 99.736,50.341 99.49,50.63C99.183,50.988 98.796,51.269 98.36,51.45C97.725,51.703 97.043,51.819 96.36,51.79C95.996,51.79 95.634,51.746 95.28,51.66C94.927,51.577 94.59,51.439 94.28,51.25C93.982,51.065 93.727,50.82 93.53,50.53C93.319,50.216 93.201,49.848 93.19,49.47L95.19,49.47C95.249,49.798 95.451,50.084 95.74,50.25C96.031,50.399 96.353,50.475 96.68,50.47C97.118,50.498 97.545,50.325 97.84,50C98.104,49.631 98.234,49.183 98.21,48.73L98.21,47.73C98.006,48.107 97.682,48.406 97.29,48.58C96.895,48.76 96.465,48.852 96.03,48.85C95.547,48.862 95.068,48.762 94.63,48.56C94.239,48.384 93.896,48.117 93.63,47.78C93.371,47.434 93.184,47.04 93.08,46.62C92.958,46.16 92.897,45.686 92.9,45.21C92.897,44.752 92.964,44.297 93.1,43.86C93.225,43.442 93.428,43.052 93.7,42.71C93.969,42.375 94.311,42.104 94.7,41.92C95.107,41.734 95.552,41.645 96,41.66C96.431,41.65 96.859,41.739 97.25,41.92C97.634,42.122 97.948,42.436 98.15,42.82L98.15,41.82L100.04,41.82L100.04,48.59C100.035,48.927 99.995,49.262 99.92,49.59L100,49.63ZM97.28,47.22C97.488,47.112 97.67,46.958 97.81,46.77C97.954,46.578 98.063,46.361 98.13,46.13C98.199,45.886 98.232,45.633 98.23,45.38C98.232,45.098 98.205,44.817 98.15,44.54C98.098,44.289 98.004,44.049 97.87,43.83C97.741,43.625 97.562,43.456 97.35,43.34C97.1,43.211 96.821,43.149 96.54,43.16C96.289,43.153 96.041,43.211 95.82,43.33C95.621,43.444 95.45,43.601 95.32,43.79C95.184,43.991 95.086,44.214 95.03,44.45C94.969,44.706 94.939,44.967 94.94,45.23C94.935,45.488 94.955,45.746 95,46C95.048,46.244 95.139,46.478 95.27,46.69C95.394,46.891 95.561,47.062 95.76,47.19C95.993,47.328 96.26,47.397 96.53,47.39C96.787,47.397 97.042,47.338 97.27,47.22L97.28,47.22Z" style="fill:white;fill-rule:nonzero;"/>
                    <path d="M109.56,41.86L109.56,43.19L108.1,43.19L108.1,46.77C108.075,47.006 108.136,47.244 108.27,47.44C108.466,47.574 108.704,47.635 108.94,47.61L109.55,47.61L109.55,49.1C109.364,49.126 109.177,49.143 108.99,49.15L108.39,49.15C108.099,49.149 107.808,49.125 107.52,49.08C107.264,49.046 107.016,48.965 106.79,48.84C106.578,48.717 106.405,48.537 106.29,48.32C106.159,48.046 106.098,47.744 106.11,47.44L106.11,43.19L104.91,43.19L104.91,41.86L106.11,41.86L106.11,39.69L108.11,39.69L108.11,41.86L109.56,41.86Z" style="fill:white;fill-rule:nonzero;"/>
                    <path d="M110.78,42.92C110.978,42.616 111.246,42.362 111.56,42.18C111.893,41.989 112.254,41.854 112.63,41.78C113.025,41.701 113.427,41.661 113.83,41.66C114.201,41.661 114.572,41.688 114.94,41.74C115.287,41.786 115.625,41.888 115.94,42.04C116.237,42.182 116.495,42.395 116.69,42.66C116.897,42.97 116.998,43.338 116.98,43.71L116.98,47.47C116.98,47.784 117,48.098 117.04,48.41C117.058,48.645 117.126,48.874 117.24,49.08L115.24,49.08C115.203,48.965 115.173,48.848 115.15,48.73C115.124,48.612 115.107,48.491 115.1,48.37C114.792,48.69 114.406,48.924 113.98,49.05C113.556,49.181 113.114,49.248 112.67,49.25C112.332,49.255 111.995,49.211 111.67,49.12C111.383,49.044 111.115,48.911 110.88,48.73C110.657,48.55 110.479,48.321 110.36,48.06C110.222,47.745 110.158,47.403 110.17,47.06C110.162,46.714 110.237,46.371 110.39,46.06C110.525,45.809 110.717,45.593 110.95,45.43C111.187,45.266 111.451,45.144 111.73,45.07C112.02,44.99 112.32,44.93 112.62,44.88C112.92,44.83 113.21,44.8 113.5,44.77C113.759,44.745 114.017,44.701 114.27,44.64C114.463,44.601 114.644,44.519 114.8,44.4C114.921,44.302 114.994,44.156 115,44C115.012,43.824 114.978,43.648 114.9,43.49C114.833,43.371 114.737,43.271 114.62,43.2C114.498,43.125 114.362,43.078 114.22,43.06C114.054,43.046 113.886,43.046 113.72,43.06C113.394,43.041 113.071,43.129 112.8,43.31C112.556,43.521 112.414,43.827 112.41,44.15L110.41,44.15C110.42,43.739 110.541,43.338 110.76,42.99L110.78,42.92ZM114.7,45.73C114.566,45.776 114.429,45.813 114.29,45.84L113.84,45.91L113.37,45.98C113.221,46.008 113.074,46.045 112.93,46.09C112.794,46.132 112.665,46.196 112.55,46.28C112.442,46.359 112.353,46.462 112.29,46.58C112.217,46.722 112.183,46.881 112.19,47.04C112.184,47.196 112.218,47.351 112.29,47.49C112.352,47.61 112.445,47.71 112.56,47.78C112.68,47.85 112.813,47.898 112.95,47.92C113.103,47.932 113.257,47.932 113.41,47.92C113.725,47.94 114.039,47.874 114.32,47.73C114.519,47.619 114.685,47.457 114.8,47.26C114.898,47.091 114.963,46.904 114.99,46.71L114.99,45.52C114.896,45.597 114.787,45.655 114.67,45.69L114.7,45.73Z" style="fill:white;fill-rule:nonzero;"/>
                    <rect x="118.61" y="39.1" width="1.98" height="10" style="fill:white;fill-rule:nonzero;"/>
                    <path d="M124.29,47.36C124.646,47.668 125.11,47.823 125.58,47.79C125.936,47.795 126.285,47.69 126.58,47.49C126.824,47.343 127.012,47.117 127.11,46.85L128.86,46.85C128.661,47.602 128.204,48.26 127.57,48.71C126.94,49.097 126.21,49.292 125.47,49.27C124.968,49.271 124.469,49.18 124,49C123.561,48.829 123.164,48.562 122.84,48.22C122.518,47.873 122.27,47.465 122.11,47.02C121.931,46.527 121.843,46.005 121.85,45.48C121.843,44.965 121.931,44.453 122.11,43.97C122.278,43.521 122.533,43.11 122.86,42.76C123.188,42.436 123.575,42.178 124,42C124.477,41.798 124.992,41.7 125.51,41.71C126.065,41.698 126.614,41.822 127.11,42.07C127.561,42.309 127.948,42.652 128.24,43.07C128.538,43.482 128.756,43.947 128.88,44.44C129.001,44.951 129.041,45.477 129,46L123.8,46C123.778,46.512 123.953,47.014 124.29,47.4L124.29,47.36ZM126.53,43.55C126.245,43.268 125.85,43.126 125.45,43.16C125.178,43.151 124.907,43.206 124.66,43.32C124.467,43.417 124.297,43.553 124.16,43.72C124.038,43.871 123.946,44.044 123.89,44.23C123.847,44.384 123.816,44.541 123.8,44.7L127,44.7C126.946,44.277 126.773,43.878 126.5,43.55L126.53,43.55Z" style="fill:white;fill-rule:nonzero;"/>
                    <path d="M132.08,41.86L132.08,42.86C132.311,42.458 132.66,42.137 133.08,41.94C133.462,41.751 133.883,41.651 134.31,41.65C134.757,41.635 135.202,41.71 135.62,41.87C135.933,41.999 136.208,42.206 136.42,42.47C136.623,42.75 136.763,43.071 136.83,43.41C136.914,43.811 136.954,44.22 136.95,44.63L136.95,49.1L134.95,49.1L134.95,45C134.979,44.536 134.882,44.073 134.67,43.66C134.438,43.347 134.057,43.179 133.67,43.22C133.222,43.176 132.78,43.356 132.49,43.7C132.206,44.179 132.08,44.735 132.13,45.29L132.13,49.1L130.13,49.1L130.13,41.86L132.08,41.86Z" style="fill:white;fill-rule:nonzero;"/>
                    <path d="M142.47,41.86L142.47,43.19L141,43.19L141,46.77C140.983,46.83 140.974,46.893 140.974,46.956C140.974,47.329 141.281,47.636 141.654,47.636C141.717,47.636 141.78,47.627 141.84,47.61L142.46,47.61L142.46,49.1C142.29,49.1 142.1,49.1 141.9,49.15L141.3,49.15C141.009,49.149 140.718,49.125 140.43,49.08C140.173,49.048 139.926,48.966 139.7,48.84C139.487,48.718 139.314,48.537 139.2,48.32C139.069,48.046 139.008,47.744 139.02,47.44L139.02,43.19L137.82,43.19L137.82,41.86L139,41.86L139,39.69L141,39.69L141,41.86L142.47,41.86Z" style="fill:white;fill-rule:nonzero;"/>
                    <path d="M149,47.3C149.079,47.451 149.192,47.581 149.33,47.68C149.479,47.783 149.645,47.857 149.82,47.9C150.003,47.946 150.191,47.97 150.38,47.97C150.53,47.985 150.68,47.985 150.83,47.97C150.976,47.941 151.118,47.89 151.25,47.82C151.37,47.748 151.476,47.652 151.56,47.54C151.65,47.408 151.696,47.25 151.69,47.09C151.69,46.79 151.49,46.57 151.09,46.42C150.548,46.231 149.993,46.08 149.43,45.97C149.14,45.91 148.86,45.83 148.59,45.74C148.328,45.659 148.079,45.541 147.85,45.39C147.638,45.251 147.46,45.067 147.33,44.85C147.193,44.603 147.127,44.322 147.14,44.04C147.121,43.639 147.215,43.241 147.41,42.89C147.585,42.596 147.833,42.351 148.13,42.18C148.441,42.006 148.779,41.884 149.13,41.82C149.509,41.751 149.894,41.718 150.28,41.72C150.663,41.719 151.045,41.756 151.42,41.83C151.773,41.897 152.111,42.026 152.42,42.21C152.711,42.389 152.957,42.632 153.14,42.92C153.346,43.255 153.467,43.637 153.49,44.03L151.6,44.03C151.611,43.711 151.445,43.411 151.17,43.25C150.884,43.111 150.568,43.043 150.25,43.05L149.89,43.05C149.767,43.064 149.646,43.094 149.53,43.14C149.428,43.188 149.336,43.256 149.26,43.34C149.182,43.443 149.143,43.571 149.15,43.7C149.148,43.869 149.221,44.03 149.35,44.14C149.503,44.259 149.675,44.351 149.86,44.41C150.096,44.487 150.337,44.551 150.58,44.6L151.4,44.78C151.69,44.85 151.97,44.93 152.25,45.02C152.511,45.105 152.757,45.229 152.98,45.39C153.194,45.538 153.372,45.733 153.5,45.96C153.637,46.222 153.702,46.515 153.69,46.81C153.706,47.229 153.605,47.644 153.4,48.01C153.219,48.328 152.961,48.597 152.65,48.79C152.326,48.993 151.966,49.132 151.59,49.2C151.192,49.28 150.786,49.32 150.38,49.32C149.967,49.32 149.554,49.276 149.15,49.19C148.771,49.114 148.409,48.972 148.08,48.77C147.386,48.346 146.967,47.583 146.98,46.77L148.87,46.77C148.863,46.962 148.908,47.152 149,47.32L149,47.3Z" style="fill:white;fill-rule:nonzero;"/>
                    <path d="M154.88,40.74L154.88,39.1L156.88,39.1L156.88,40.74L154.88,40.74ZM156.88,41.86L156.88,49.1L154.88,49.1L154.88,41.86L156.88,41.86Z" style="fill:white;fill-rule:nonzero;"/>
                    <path d="M160.33,41.86L160.33,42.86C160.564,42.461 160.913,42.14 161.33,41.94C161.712,41.751 162.133,41.651 162.56,41.65C163.007,41.634 163.453,41.709 163.87,41.87C164.185,41.996 164.461,42.203 164.67,42.47C164.876,42.748 165.016,43.07 165.08,43.41C165.16,43.812 165.197,44.221 165.19,44.63L165.19,49.1L163.19,49.1L163.19,45C163.224,44.536 163.127,44.072 162.91,43.66C162.681,43.344 162.298,43.175 161.91,43.22C161.465,43.18 161.028,43.359 160.74,43.7C160.455,44.179 160.329,44.735 160.38,45.29L160.38,49.1L158.38,49.1L158.38,41.86L160.33,41.86Z" style="fill:white;fill-rule:nonzero;"/>
                    <path d="M170.19,43.16C169.91,43.15 169.634,43.227 169.4,43.38C169.182,43.522 169,43.714 168.87,43.94C168.734,44.176 168.64,44.433 168.59,44.7C168.538,44.97 168.512,45.245 168.51,45.52C168.512,45.785 168.539,46.05 168.59,46.31C168.639,46.57 168.731,46.82 168.86,47.05C168.985,47.268 169.16,47.453 169.37,47.59C169.604,47.735 169.875,47.808 170.15,47.8C170.557,47.828 170.957,47.683 171.25,47.4C171.526,47.107 171.695,46.73 171.73,46.33L173.65,46.33C173.576,47.181 173.175,47.97 172.53,48.53C171.854,49.055 171.015,49.324 170.16,49.29C169.651,49.298 169.144,49.206 168.67,49.02C168.235,48.85 167.84,48.591 167.51,48.26C167.186,47.924 166.935,47.526 166.77,47.09C166.586,46.615 166.494,46.109 166.5,45.6C166.496,45.07 166.581,44.543 166.75,44.04C166.902,43.578 167.147,43.153 167.47,42.79C167.794,42.438 168.19,42.158 168.63,41.97C169.128,41.767 169.662,41.669 170.2,41.68C170.619,41.68 171.036,41.737 171.44,41.85C171.82,41.957 172.179,42.129 172.5,42.36C172.809,42.588 173.068,42.877 173.26,43.21C173.466,43.582 173.582,43.996 173.6,44.42L171.66,44.42C171.612,43.721 171.024,43.172 170.323,43.172C170.275,43.172 170.228,43.175 170.18,43.18L170.19,43.16Z" style="fill:white;fill-rule:nonzero;"/>
                    <path d="M176.9,47.36C177.256,47.668 177.72,47.823 178.19,47.79C178.546,47.794 178.895,47.689 179.19,47.49C179.436,47.345 179.624,47.119 179.72,46.85L181.47,46.85C181.274,47.6 180.821,48.259 180.19,48.71C179.556,49.098 178.823,49.293 178.08,49.27C177.557,49.279 177.038,49.187 176.55,49C176.107,48.83 175.708,48.563 175.38,48.22C175.059,47.873 174.81,47.465 174.65,47.02C174.471,46.527 174.383,46.005 174.39,45.48C174.384,44.964 174.476,44.452 174.66,43.97C174.827,43.518 175.086,43.106 175.42,42.76C175.753,42.418 176.15,42.146 176.59,41.96C177.064,41.76 177.575,41.661 178.09,41.67C178.648,41.658 179.201,41.781 179.7,42.03C180.15,42.27 180.537,42.613 180.83,43.03C181.128,43.442 181.346,43.907 181.47,44.4C181.601,44.926 181.648,45.469 181.61,46.01L176.39,46.01C176.368,46.522 176.543,47.024 176.88,47.41L176.9,47.36ZM179.14,43.55C178.854,43.269 178.459,43.127 178.06,43.16C177.788,43.15 177.517,43.204 177.27,43.32C177.072,43.414 176.898,43.55 176.76,43.72C176.637,43.87 176.545,44.044 176.49,44.23C176.441,44.382 176.41,44.54 176.4,44.7L179.63,44.7C179.575,44.277 179.402,43.878 179.13,43.55L179.14,43.55Z" style="fill:white;fill-rule:nonzero;"/>
                    <path d="M189.44,49.1L189.44,42.74L187,42.74L187,41.24C187.335,41.248 187.67,41.222 188,41.16C188.307,41.108 188.602,41 188.87,40.84C189.126,40.683 189.347,40.476 189.52,40.23C189.71,39.949 189.83,39.627 189.87,39.29L191.45,39.29L191.45,49.09L189.44,49.1Z" style="fill:white;fill-rule:nonzero;"/>
                    <path d="M196.52,47.43C196.744,47.671 197.061,47.806 197.39,47.8C197.716,47.81 198.035,47.695 198.28,47.48C198.518,47.265 198.708,47.002 198.84,46.71C198.987,46.393 199.088,46.056 199.14,45.71C199.196,45.402 199.236,45.092 199.26,44.78C199.014,45.15 198.667,45.442 198.26,45.62C197.467,45.97 196.563,45.97 195.77,45.62C195.391,45.447 195.05,45.199 194.77,44.89C194.51,44.6 194.312,44.26 194.19,43.89C194.069,43.515 194.008,43.124 194.01,42.73C194.006,42.252 194.091,41.777 194.26,41.33C194.57,40.478 195.218,39.79 196.05,39.43C196.492,39.24 196.969,39.144 197.45,39.15C198.092,39.123 198.729,39.276 199.29,39.59C199.766,39.876 200.164,40.274 200.45,40.75C200.747,41.253 200.95,41.805 201.05,42.38C201.163,42.987 201.22,43.603 201.22,44.22C201.213,44.82 201.139,45.417 201,46C200.871,46.58 200.644,47.135 200.33,47.64C200.031,48.123 199.623,48.531 199.14,48.83C198.602,49.146 197.984,49.303 197.36,49.28C196.964,49.283 196.569,49.226 196.19,49.11C195.826,49.004 195.486,48.828 195.19,48.59C194.909,48.355 194.678,48.066 194.51,47.74C194.324,47.381 194.206,46.991 194.16,46.59L196.05,46.59C196.113,46.911 196.269,47.207 196.5,47.44L196.52,47.43ZM198.2,44.23C198.392,44.136 198.56,43.999 198.69,43.83C198.825,43.657 198.927,43.46 198.99,43.25C199.056,43.026 199.09,42.794 199.09,42.56C199.091,42.336 199.057,42.114 198.99,41.9C198.923,41.686 198.818,41.487 198.68,41.31C198.544,41.139 198.374,41 198.18,40.9C197.972,40.797 197.742,40.745 197.51,40.75C197.291,40.747 197.074,40.799 196.88,40.9C196.695,41 196.531,41.136 196.4,41.3C196.273,41.473 196.175,41.666 196.11,41.87C196.045,42.084 196.011,42.306 196.01,42.53C196.011,42.76 196.041,42.988 196.1,43.21C196.16,43.421 196.255,43.62 196.38,43.8C196.501,43.975 196.662,44.119 196.85,44.22C197.052,44.33 197.28,44.386 197.51,44.38C197.752,44.386 197.992,44.334 198.21,44.23L198.2,44.23Z" style="fill:white;fill-rule:nonzero;"/>
                    <path d="M205.38,43.26C205.614,43.244 205.843,43.19 206.06,43.1C206.264,43.021 206.443,42.89 206.58,42.72C206.729,42.529 206.803,42.291 206.79,42.05C206.824,41.668 206.667,41.293 206.37,41.05C206.088,40.821 205.733,40.7 205.37,40.71C204.931,40.679 204.505,40.867 204.23,41.21C203.959,41.568 203.824,42.012 203.85,42.46L202,42.46C202.014,41.987 202.109,41.521 202.28,41.08C202.582,40.286 203.208,39.657 204,39.35C204.437,39.18 204.902,39.095 205.37,39.1C205.77,39.102 206.167,39.163 206.55,39.28C206.927,39.392 207.282,39.568 207.6,39.8C207.908,40.03 208.166,40.319 208.36,40.65C208.558,41.004 208.658,41.404 208.65,41.81C208.66,42.254 208.542,42.691 208.31,43.07C208.084,43.435 207.726,43.7 207.31,43.81C207.815,43.911 208.266,44.192 208.58,44.6C208.893,45.013 209.056,45.522 209.04,46.04C209.053,46.513 208.953,46.983 208.75,47.41C208.556,47.798 208.279,48.139 207.94,48.41C207.595,48.684 207.201,48.891 206.78,49.02C205.844,49.321 204.836,49.321 203.9,49.02C203.029,48.74 202.332,48.076 202.01,47.22C201.83,46.737 201.745,46.225 201.76,45.71L203.65,45.71C203.655,45.964 203.696,46.217 203.77,46.46C203.841,46.68 203.949,46.887 204.09,47.07C204.236,47.243 204.416,47.383 204.62,47.48C205.245,47.752 205.972,47.652 206.5,47.22C206.811,46.929 206.979,46.516 206.96,46.09C206.978,45.791 206.901,45.493 206.74,45.24C206.6,45.048 206.41,44.9 206.19,44.81C205.953,44.721 205.703,44.67 205.45,44.66L204.69,44.66L204.69,43.26C204.916,43.281 205.144,43.281 205.37,43.26L205.38,43.26Z" style="fill:white;fill-rule:nonzero;"/>
                    <path d="M212.24,40.94L211.85,43.17C212.094,42.915 212.391,42.717 212.72,42.59C213.481,42.33 214.312,42.362 215.05,42.68C215.414,42.846 215.738,43.088 216,43.39C216.263,43.702 216.463,44.062 216.59,44.45C216.728,44.869 216.796,45.309 216.79,45.75C216.797,46.235 216.698,46.717 216.5,47.16C216.31,47.583 216.042,47.967 215.71,48.29C215.377,48.608 214.987,48.859 214.56,49.03C214.114,49.201 213.638,49.283 213.16,49.27C212.7,49.273 212.242,49.209 211.8,49.08C211.383,48.962 210.993,48.765 210.65,48.5C210.311,48.231 210.038,47.889 209.85,47.5C209.642,47.08 209.533,46.618 209.53,46.15L211.53,46.15C211.557,46.557 211.736,46.938 212.03,47.22C212.334,47.492 212.732,47.635 213.14,47.62C213.386,47.625 213.63,47.57 213.85,47.46C214.053,47.358 214.234,47.215 214.38,47.04C214.527,46.863 214.639,46.659 214.71,46.44C214.789,46.212 214.829,45.972 214.83,45.73C214.831,45.489 214.794,45.249 214.72,45.02C214.648,44.802 214.532,44.602 214.38,44.43C214.233,44.264 214.053,44.131 213.85,44.04C213.336,43.836 212.76,43.854 212.26,44.09C212.013,44.24 211.802,44.441 211.64,44.68L209.85,44.68L210.85,39.26L216.33,39.26L216.33,40.9L212.24,40.94Z" style="fill:white;fill-rule:nonzero;"/>
                </g>
            </g>
        </g>
    </g>
</svg>
