<svg xmlns="http://www.w3.org/2000/svg" width="210.296" height="43.413" viewBox="0 0 210.296 43.413">
  <g id="logo" transform="translate(-344.899 -281.94)">
    <path id="Tracé_12" data-name="Tracé 12" d="M344.9,303.155h2.534v-9.95h6.677v-2.377h-6.677v-5.655h6.888V282.8H344.9Z" transform="translate(0 0.327)" fill="#fff"/>
    <path id="Tracé_13" data-name="Tracé 13" d="M363.718,303.155h10.7V300.78h-8.166v-7.574h7.925v-2.377h-7.925v-5.655h8.166V282.8h-10.7Z" transform="translate(7.202 0.327)" fill="#fff"/>
    <path id="Tracé_16" data-name="Tracé 16" d="M431.741,287.917l3.129,7.5h-6.331Zm-9.34,15.355-.093.21h2.776l2.421-5.692h8.367l2.364,5.692h2.8l-9.245-21.542Z" transform="translate(29.622)" fill="#fff"/>
    <path id="Tracé_17" data-name="Tracé 17" d="M462.522,298.4,446.88,282.018v21.435h2.539V288.222l15.641,16.361V283.1h-2.537Z" transform="translate(39.025 0.03)" fill="#fff"/>
    <rect id="Rectangle_91" data-name="Rectangle 91" width="2.537" height="20.36" transform="translate(552.658 283.124)" fill="#fff"/>
    <path id="Tracé_20" data-name="Tracé 20" d="M414.121,309.945l-1.218,2.767h2.432Zm-1.573,3.545-.776,1.716h-.918l3.267-7.13,3.263,7.13h-.917l-.777-1.716Z" transform="translate(25.239 10.001)" fill="#fff"/>
    <rect id="Rectangle_94" data-name="Rectangle 94" width="0.852" height="6.837" transform="translate(458.984 318.369)" fill="#fff"/>
    <path id="Tracé_22" data-name="Tracé 22" d="M436.029,309.624a1.171,1.171,0,0,0-1.1-.644,1.076,1.076,0,0,0-1.141.971c0,.538.525.816.951.98l.49.189c.971.382,1.7.915,1.7,2.057a2.111,2.111,0,0,1-2.187,2.133,2.134,2.134,0,0,1-2.115-1.915l.864-.182a1.293,1.293,0,1,0,2.586-.036c0-.733-.589-1.051-1.181-1.3l-.469-.2c-.783-.336-1.49-.783-1.49-1.734a1.865,1.865,0,0,1,2.015-1.768,1.948,1.948,0,0,1,1.76,1.033Z" transform="translate(33.57 10.042)" fill="#fff"/>
    <path id="Tracé_23" data-name="Tracé 23" d="M423.009,303.826a1.431,1.431,0,1,1-1.432-1.428,1.432,1.432,0,0,1,1.432,1.428" transform="translate(28.795 7.829)" fill="#fff"/>
    <path id="Tracé_24" data-name="Tracé 24" d="M386.151,285.174h.51c2.613,0,4.958.264,4.958,3.465,0,3.031-2.493,3.441-4.932,3.441h-.536Zm8,3.306c0-3.826-2.447-5.684-7.493-5.684h-3.05v20.358h2.54v-8.8h.328l6.064,8.8h3.111l-6.406-9.018a5.378,5.378,0,0,0,4.906-5.656" transform="translate(14.814 0.328)" fill="#fff"/>
    <path id="Tracé_25" data-name="Tracé 25" d="M406.2,285.174h.514c2.612,0,4.958.264,4.958,3.465,0,3.031-2.493,3.441-4.932,3.441H406.2Zm8.007,3.306c0-3.826-2.451-5.684-7.493-5.684h-3.052v20.358H406.2v-8.8h.332l6.06,8.8h3.114l-6.406-9.018a5.381,5.381,0,0,0,4.907-5.656" transform="translate(22.487 0.328)" fill="#fff"/>
    <path id="Tracé_26" data-name="Tracé 26" d="M476.46,300.781h-1.47V285.175h1.47c2.385,0,4.342.322,6.128,1.9a8.049,8.049,0,0,1,.1,11.665c-1.792,1.691-3.784,2.038-6.228,2.038m7.84-15.529c-2.388-2.038-4.893-2.456-7.921-2.456h-3.927v20.358h3.876c3.173,0,5.621-.429,8.028-2.565a10.45,10.45,0,0,0-.055-15.338" transform="translate(48.81 0.328)" fill="#fff"/>
    <path id="Tracé_27" data-name="Tracé 27" d="M405.571,311.5h.272c.87,0,1.813-.163,1.813-1.251,0-1.073-1.016-1.2-1.858-1.2h-.227Zm0,3.629h-.852v-6.839h.979c2.1,0,2.753.725,2.753,1.976,0,1.442-1.092,1.994-2.393,1.994h-.487Z" transform="translate(22.891 10.082)" fill="#fff"/>
    <path id="Tracé_28" data-name="Tracé 28" d="M420.78,311.523h.272c.87,0,1.815-.162,1.815-1.251,0-1.069-1.015-1.224-1.858-1.224h-.23Zm3.4,3.6h-1.036l-2.012-2.894h-.355v2.894h-.85v-6.839h1.033a3.659,3.659,0,0,1,1.807.318,1.9,1.9,0,0,1,.895,1.633,1.863,1.863,0,0,1-1.637,1.915Z" transform="translate(28.712 10.081)" fill="#fff"/>
  </g>
</svg>
