<?xml version="1.0" encoding="utf-8"?>
<!-- Generator: Adobe Illustrator 19.2.1, SVG Export Plug-In . SVG Version: 6.00 Build 0)  -->
<svg version="1.1" id="Layer_1" xmlns="http://www.w3.org/2000/svg" xmlns:xlink="http://www.w3.org/1999/xlink" x="0px" y="0px"
	 viewBox="0 0 46 58" style="enable-background:new 0 0 46 58;" xml:space="preserve">
<style type="text/css">
	.st0{fill:#fff;}
</style>
<g>
	<path class="st0" d="M16.38,57H9.12c-0.77,0-1.39-0.62-1.39-1.39V9.64c0-0.77,0.62-1.39,1.39-1.39h15.81
		c7.4,0,13.43,6.02,13.43,13.43c0,7.4-6.02,13.43-13.43,13.43h-8.55c-0.77,0-1.39-0.62-1.39-1.39v-7.34c0-0.77,0.62-1.39,1.39-1.39
		h8.55c1.88,0,3.4-1.53,3.4-3.4c0-1.17-0.3-2.05-0.9-2.6c-0.93-0.87-2.4-0.81-2.41-0.81c-0.03,0-0.07,0-0.1,0H16.4
		c-0.77,0-1.39-0.62-1.39-1.39s0.62-1.39,1.39-1.39h8.49c0.46-0.03,2.72-0.05,4.44,1.55c1.18,1.1,1.78,2.66,1.78,4.63
		c0,3.4-2.77,6.17-6.17,6.17h-7.16v4.57h7.16c5.88,0,10.66-4.78,10.66-10.66c0-5.88-4.78-10.66-10.66-10.66H10.5v43.21h4.49V40.8
		c0-0.77,0.62-1.39,1.39-1.39h8.55c9.83,0,17.82-7.99,17.82-17.82c0-9.83-7.99-17.82-17.82-17.82H3.25V55.6
		c0,0.77-0.62,1.39-1.39,1.39s-1.39-0.62-1.39-1.39V2.39C0.48,1.62,1.1,1,1.87,1h23.06c11.35,0,20.59,9.24,20.59,20.59
		c0,11.35-9.24,20.59-20.59,20.59h-7.16v13.43C17.76,56.38,17.14,57,16.38,57z"/>
</g>
</svg>
