<svg width="267" height="92" viewBox="0 0 267 92" fill="none" xmlns="http://www.w3.org/2000/svg">
    <path
        d="M80.25 31.1694C80.25 22.3194 86.99 16.6094 94.97 16.6094C99 16.6094 103.67 18.0494 106.58 22.9894L102.03 26.1394C100.39 23.7494 97.88 22.5894 95.13 22.5894C90.5 22.5894 86.75 25.8594 86.75 31.1694C86.75 36.4794 90.58 39.7494 95.17 39.7494C98.04 39.7494 100.4 38.5894 102.03 36.1994L106.58 39.3494C103.67 44.2994 98.96 45.7294 94.93 45.7294C86.95 45.7294 80.25 40.0294 80.25 31.1694Z"
        fill="white" />
    <path
        d="M107.73 34.9575C107.73 27.7375 112.91 24.1875 117.62 24.1875C121.29 24.1875 123.44 26.1775 123.76 26.9375H123.88V24.5875H130.06V45.3275H123.88V42.9775H123.76C123.44 43.7375 121.29 45.7275 117.62 45.7275C112.91 45.7275 107.73 42.1775 107.73 34.9575ZM118.9 40.2175C121.61 40.2175 124.05 38.3475 124.05 34.9575C124.05 31.5675 121.62 29.6875 118.9 29.6875C116.18 29.6875 113.84 31.5975 113.84 34.9575C113.84 38.3175 116.27 40.2175 118.9 40.2175Z"
        fill="white" />
    <path
        d="M146.809 33.5975C146.809 30.9675 145.369 29.6875 143.499 29.6875C141.629 29.6875 139.989 30.9675 139.989 33.5975V45.3275H133.809V24.5875H139.989V27.1375C141.109 25.4275 143.019 24.1875 145.769 24.1875C148.199 24.1875 150.319 25.2275 151.629 27.4575C152.909 25.5875 155.139 24.1875 158.409 24.1875C162.799 24.1875 165.989 26.9775 165.989 33.3575V45.3275H159.809V33.5975C159.809 30.9675 158.369 29.6875 156.499 29.6875C154.509 29.6875 152.989 30.9675 152.989 33.5975V45.3275H146.809V33.5975Z"
        fill="white" />
    <path
        d="M175.93 17.0078V26.9378H176.05C176.37 26.1778 178.52 24.1878 182.19 24.1878C186.9 24.1878 192.08 27.7378 192.08 34.9578C192.08 42.1778 186.9 45.7278 182.19 45.7278C178.52 45.7278 176.37 43.7378 176.05 42.9778H175.93V45.3278H169.75V17.0078H175.93ZM180.92 40.2178C183.55 40.2178 185.99 38.3078 185.99 34.9578C185.99 31.6078 183.56 29.6878 180.92 29.6878C178.28 29.6878 175.78 31.5578 175.78 34.9578C175.78 38.3578 178.21 40.2178 180.92 40.2178Z"
        fill="white" />
    <path
        d="M194.83 24.5875H201.01V30.2075C201.69 26.8575 203.68 24.1875 207.43 24.1875C207.91 24.1875 208.39 24.2275 208.9 24.3875V30.2475C208.42 30.1675 207.98 30.1275 207.46 30.1275C203.35 30.1275 201 32.8775 201 36.7875V45.3275H194.82V24.5875H194.83Z"
        fill="white" />
    <path
        d="M211.66 17.0078H217.84V22.3878H211.66V17.0078ZM211.66 24.5878H217.84V45.3278H211.66V24.5878Z"
        fill="white" />
    <path
        d="M220.59 34.9575C220.59 27.7375 225.78 24.1875 230.48 24.1875C234.15 24.1875 236.3 26.1775 236.62 26.9375H236.74V24.5875H242.92V45.3275H236.74V42.9775H236.62C236.3 43.7375 234.15 45.7275 230.48 45.7275C225.77 45.7275 220.59 42.1775 220.59 34.9575ZM231.76 40.2175C234.47 40.2175 236.9 38.3475 236.9 34.9575C236.9 31.5675 234.47 29.6875 231.76 29.6875C229.05 29.6875 226.69 31.5975 226.69 34.9575C226.69 38.3175 229.12 40.2175 231.76 40.2175Z"
        fill="white" />
    <path
        d="M246.672 24.5875H252.852V27.2175C254.012 25.4675 256.042 24.1875 258.992 24.1875C263.182 24.1875 266.732 26.7775 266.732 33.1175V45.3275H260.552V34.1975C260.552 31.6075 259.232 29.6875 256.682 29.6875C254.132 29.6875 252.852 31.5975 252.852 34.1975V45.3275H246.672V24.5875Z"
        fill="white" />
    <path
        d="M80.25 68.9311C80.25 60.0811 86.99 54.3711 94.97 54.3711C99 54.3711 103.67 55.8111 106.58 60.7511L102.03 63.9011C100.39 61.5111 97.88 60.3511 95.13 60.3511C90.5 60.3511 86.75 63.6211 86.75 68.9311C86.75 74.2411 90.58 77.5111 95.17 77.5111C98.04 77.5111 100.4 76.3511 102.03 73.9611L106.58 77.1111C103.67 82.0611 98.96 83.4911 94.93 83.4911C86.95 83.4911 80.25 77.7911 80.25 68.9311Z"
        fill="white" />
    <path
        d="M107.73 72.7192C107.73 65.6592 113.31 61.9492 118.74 61.9492C124.17 61.9492 129.75 65.6592 129.75 72.7192C129.75 79.7792 124.17 83.4892 118.74 83.4892C113.31 83.4892 107.73 79.7792 107.73 72.7192ZM118.74 77.9092C121.41 77.9092 123.65 75.9192 123.65 72.7192C123.65 69.5192 121.42 67.5292 118.74 67.5292C116.06 67.5292 113.83 69.5192 113.83 72.7192C113.83 75.9192 116.06 77.9092 118.74 77.9092Z"
        fill="white" />
    <path d="M132.5 54.7695H138.68V83.0895H132.5V54.7695Z" fill="white" />
    <path d="M142.43 54.7695H148.61V83.0895H142.43V54.7695Z" fill="white" />
    <path
        d="M151.362 72.7592C151.362 65.7392 156.592 61.9492 161.932 61.9492C167.272 61.9492 173.382 65.6192 172.062 75.1092H157.302C158.142 77.3392 160.212 78.4592 162.962 78.4592C164.792 78.4592 166.432 78.0192 167.952 76.8592L170.742 79.7692C169.022 81.9192 166.072 83.4792 162.282 83.4792C156.542 83.4792 151.352 79.5692 151.352 72.7492L151.362 72.7592ZM166.642 70.6892C166.202 68.2992 164.092 67.1392 162.012 67.1392C159.932 67.1392 157.862 68.2192 157.182 70.6892H166.632H166.642Z"
        fill="white" />
    <path
        d="M179.24 90.1514V85.2014C180.2 85.8414 182.27 86.2414 184.11 86.2414C188.02 86.2414 190.17 84.4114 190.17 81.8514V80.7314H189.93C189.61 81.4914 187.54 83.4814 183.95 83.4814C179.24 83.4814 174.02 79.9314 174.02 72.7114C174.02 65.4914 179.25 61.9414 183.95 61.9414C187.54 61.9414 189.61 63.9314 189.93 64.6914H190.17V62.3414H196.35V81.3314C196.35 89.5514 189.89 91.3814 185.26 91.3814C183.03 91.3814 180.55 91.0214 179.24 90.1414V90.1514ZM185.22 77.9814C187.93 77.9814 190.33 76.1114 190.33 72.7214C190.33 69.3314 187.94 67.4514 185.22 67.4514C182.5 67.4514 180.11 69.3614 180.11 72.7214C180.11 76.0814 182.54 77.9814 185.22 77.9814Z"
        fill="white" />
    <path
        d="M199.1 72.7592C199.1 65.7392 204.32 61.9492 209.67 61.9492C215.02 61.9492 221.12 65.6192 219.8 75.1092H205.04C205.88 77.3392 207.95 78.4592 210.7 78.4592C212.54 78.4592 214.17 78.0192 215.69 76.8592L218.48 79.7692C216.76 81.9192 213.81 83.4792 210.02 83.4792C204.28 83.4792 199.09 79.5692 199.09 72.7492L199.1 72.7592ZM214.38 70.6892C213.94 68.2992 211.83 67.1392 209.75 67.1392C207.67 67.1392 205.6 68.2192 204.92 70.6892H214.37H214.38Z"
        fill="white" />
    <path
        d="M66.0902 49.5397V54.2597C66.0902 68.3597 59.3202 76.5797 53.6502 80.9997C47.5702 85.7297 41.4102 87.1397 41.1502 87.1897L40.1102 87.4197L39.0702 87.1797C38.8102 87.1197 32.6702 85.6697 26.6002 80.9297C20.9302 76.4997 14.1602 68.2697 14.1602 54.2497V25.9297H23.6002V54.2497C23.6002 70.9697 36.3002 76.4097 40.1402 77.6697C43.9402 76.4397 56.6502 71.0897 56.6502 54.2497V44.8097L66.0902 49.5297V49.5397Z"
        fill="white" />
    <path
        d="M42.4919 54.2603C42.4919 61.8903 39.8819 67.1603 36.6719 70.7603C37.9619 71.6203 39.1919 72.2303 40.1619 72.6403C41.8419 71.9303 44.3019 70.6403 46.5119 68.4603C50.1119 64.9203 51.9319 60.1403 51.9319 54.2603V44.8203L42.4919 49.5403V54.2603Z"
        fill="white" />
    <path
        d="M56.8691 5.48C55.2491 2.25 54.0391 0 54.0391 0C54.0391 0 53.4491 3.89 51.6391 7.08C49.8291 10.27 46.8091 14.83 45.6491 17.5C45.6491 17.51 45.6391 17.53 45.6291 17.54C45.6291 17.54 43.0291 22.65 42.8091 26.65C42.7991 26.83 42.7891 27.01 42.7891 27.17C42.7891 31.88 45.8391 36.28 50.3391 37.85C48.9391 35.35 48.6291 32.68 49.4091 29.15C50.2491 25.4 51.9991 22.28 54.7091 17.94C57.6691 13.19 58.3691 9.19 56.8691 5.48Z"
        fill="#FFC40C" />
    <path
        d="M9.44 54.2617V21.2117H39.1C39.94 18.4517 41.04 16.1517 41.36 15.5217C41.69 14.7817 42.11 13.9717 42.59 13.1017L43.27 11.7617H0V54.2517C0 68.2717 6.76 76.4917 12.44 80.9317C18.51 85.6717 27.73 87.4217 27.73 87.4217C26.41 86.6317 25.05 85.7217 23.69 84.6517C17.19 79.5717 9.44 70.1717 9.44 54.2517V54.2617Z"
        fill="white" />
    <path
        d="M61.8413 16.0898C61.2313 17.6498 60.4313 19.2398 59.4113 20.8798C57.0513 24.6698 55.2813 27.4998 54.8013 30.1998C54.2513 33.2998 54.5213 36.0498 56.6413 38.0598C61.7913 36.9298 65.5613 32.3898 65.5613 27.0798C65.5613 24.2598 64.0213 20.6498 61.8313 16.0998L61.8413 16.0898Z"
        fill="#FFC40C" />
</svg>