<?xml version="1.0" encoding="utf-8"?>
<!-- Generator: Adobe Illustrator 27.6.1, SVG Export Plug-In . SVG Version: 6.00 Build 0)  -->
<svg version="1.1" id="Layer_1" xmlns="http://www.w3.org/2000/svg" xmlns:xlink="http://www.w3.org/1999/xlink" x="0px" y="0px"
	 viewBox="0 0 189 37" style="enable-background:new 0 0 189 37;" xml:space="preserve">
<style type="text/css">
	.st0{fill:#231F20;}
	.st1{clip-path:url(#SVGID_00000109026632944029296890000008484462259850092206_);fill:#F47421;}
	.st2{clip-path:url(#SVGID_00000109026632944029296890000008484462259850092206_);fill:#231F20;}
</style>
<rect x="76.4" y="6" class="st0" width="0.4" height="25"/>
<g>
	<defs>
		<rect id="SVGID_1_" y="0" width="189" height="37"/>
	</defs>
	<clipPath id="SVGID_00000049912062415692386410000001884731499273727897_">
		<use xlink:href="#SVGID_1_"  style="overflow:visible;"/>
	</clipPath>
	<path style="clip-path:url(#SVGID_00000049912062415692386410000001884731499273727897_);fill:#F47421;" d="M39.6,8.7
		c0.4-1.1,1.8-1.1,3-1.1h0.2V6c0,0-4.4,0.1-5.8,0.1c-1.4,0-5.6-0.1-5.6-0.1v1.6h0.2c1.1,0,2.6,0,3,1.1c0.4,1,0.4,3.7,0.4,4.9v9.9
		c0,1.2,0,3.9-0.4,4.9c-0.4,1.1-1.8,1.1-3,1.1h-0.2V31c0,0,3.6-0.2,5.6-0.2c2.3,0,5.8,0.2,5.8,0.2v-1.6h-0.2c-1.1,0-2.6,0-3-1.1
		c-0.4-1-0.4-3.7-0.4-4.9v-9.9C39.2,12.4,39.2,9.7,39.6,8.7"/>
	<path style="clip-path:url(#SVGID_00000049912062415692386410000001884731499273727897_);fill:#F47421;" d="M46.1,6v6.5h1.5l0-0.2
		c0.1-4.2,1.8-4.4,5.4-4.4c0.1,0,0.2,0,0.4,0c0.9,0,1.8,0,2.1,0.3c0.1,0.1,0.2,0.3,0.2,0.5v17c0,2.5-0.4,3.6-3.9,3.7l-0.2,0V31
		c0,0,4.1-0.2,6.5-0.2c1.8,0,5.9,0.2,5.9,0.2v-1.5l-0.2,0c-3.6-0.1-3.9-1.2-3.9-3.7v-17c0-0.2,0.1-0.3,0.2-0.4
		c0.4-0.4,1.5-0.4,2.4-0.4c0.2,0,0.3,0,0.5,0c3.6,0,4.7,1,4.9,4.4l0,0.2h1.5V6c0,0-9,0.1-11.7,0.1S46.1,6,46.1,6"/>
	<path style="clip-path:url(#SVGID_00000049912062415692386410000001884731499273727897_);fill:#F47421;" d="M28,29.4
		c-1.8-0.3-2.3-0.5-3.5-1.8l-7.4-8.5c3.9-0.5,6.3-3.1,6.3-6.8c0-2.4-0.9-4.2-2.8-5.2C19.2,6.4,17.3,6,14.7,6C13.9,6,12,6.1,10,6.1
		C7.8,6.1,3.4,6,3.4,6v1.6h0.3c1.2,0,2.5,0,2.9,1.1c0.3,1,0.3,3.7,0.3,4.6v10.2c0,1.1,0,2.8-0.1,4c0,0.3-0.1,0.6-0.2,0.9
		c-0.4,1.1-1.8,1.1-2.9,1.1H3.4V31c0,0,3.5-0.2,5.8-0.2c2,0,5.4,0.1,5.4,0.2v-1.5h-0.3c-1.2,0-2.5,0-2.9-1.1
		c-0.1-0.2-0.1-0.5-0.2-0.9c-0.1-1.2-0.1-2.8-0.1-3.7v-4.2c1.4,0,1.5,0.2,2.2,1c0.1,0.2,0.3,0.3,0.5,0.5l6.2,7.6l1.8,2.2
		c0,0,2-0.1,2.9-0.1c1.4,0,3.5,0.1,3.5,0.1v-1.5L28,29.4z M11.1,17.9c0,0,0-9,0-9.1c0-0.4,0-0.9,0.3-1c0.2-0.1,2.2,0,2.3,0
		c3.2,0,5,1.9,5,5.1c0,2.4-0.6,3.7-2,4.4C15.4,17.9,11.1,17.9,11.1,17.9"/>
	<path style="clip-path:url(#SVGID_00000049912062415692386410000001884731499273727897_);fill:#231F20;" d="M86.4,14.4h-1.2v2.8
		h-1.5V10h3.1c0.8,0,1.4,0.2,1.9,0.7c0.4,0.4,0.6,0.9,0.6,1.6c0,1-0.5,1.7-1.4,2l1.8,2.9h-1.7L86.4,14.4z M85.2,13.2h1.5
		c0.8,0,1.2-0.3,1.2-1c0-0.7-0.4-1-1.1-1h-1.5V13.2z"/>
	<path style="clip-path:url(#SVGID_00000049912062415692386410000001884731499273727897_);fill:#231F20;" d="M89.7,14.6
		c0-1.5,1.1-2.7,2.7-2.7s2.7,1.2,2.7,2.7c0,1.5-1.1,2.7-2.7,2.7S89.7,16.1,89.7,14.6 M93.7,14.6c0-1-0.5-1.7-1.3-1.7
		c-0.8,0-1.3,0.7-1.3,1.7s0.5,1.7,1.3,1.7C93.2,16.2,93.7,15.6,93.7,14.6"/>
	<path style="clip-path:url(#SVGID_00000049912062415692386410000001884731499273727897_);fill:#231F20;" d="M95.5,14.6
		c0-1.5,1-2.7,2.6-2.7c1.3,0,2.1,0.8,2.3,1.9H99c-0.1-0.4-0.4-0.8-0.9-0.8c-0.8,0-1.2,0.6-1.2,1.6c0,1,0.4,1.6,1.2,1.6
		c0.5,0,0.9-0.3,1-0.9h1.3c-0.1,1.1-0.9,2-2.3,2C96.5,17.3,95.5,16.1,95.5,14.6"/>
	<path style="clip-path:url(#SVGID_00000049912062415692386410000001884731499273727897_);fill:#231F20;" d="M102.3,12.7L102.3,12.7
		c0.4-0.5,0.8-0.8,1.5-0.8c1.1,0,1.8,0.8,1.8,1.9v3.3h-1.4V14c0-0.5-0.3-0.9-0.9-0.9c-0.6,0-1,0.5-1,1.2v2.9H101V10h1.4V12.7z"/>
	<path style="clip-path:url(#SVGID_00000049912062415692386410000001884731499273727897_);fill:#231F20;" d="M106.2,14.6
		c0-1.5,1-2.7,2.5-2.7c1.6,0,2.5,1.3,2.5,3.1h-3.7c0.1,0.8,0.5,1.3,1.3,1.3c0.5,0,0.8-0.2,1-0.6h1.3c-0.2,0.9-1,1.7-2.3,1.7
		C107.2,17.3,106.2,16.1,106.2,14.6 M107.6,14h2.3c0-0.6-0.5-1.1-1.1-1.1C108.1,12.9,107.7,13.3,107.6,14"/>
	<path style="clip-path:url(#SVGID_00000049912062415692386410000001884731499273727897_);fill:#231F20;" d="M111.6,15.5h1.3
		c0.1,0.6,0.5,0.9,1.1,0.9c0.6,0,0.9-0.2,0.9-0.6c0-0.5-0.6-0.5-1.3-0.7c-0.9-0.2-1.8-0.4-1.8-1.5c0-1.1,0.9-1.6,2.1-1.6
		c1.3,0,2.1,0.7,2.2,1.7h-1.2c-0.1-0.5-0.4-0.7-1-0.7c-0.5,0-0.9,0.2-0.9,0.6c0,0.4,0.7,0.5,1.4,0.6c0.9,0.2,1.8,0.4,1.8,1.6
		c0,1-0.9,1.6-2.2,1.6C112.5,17.3,111.7,16.6,111.6,15.5"/>
	<path style="clip-path:url(#SVGID_00000049912062415692386410000001884731499273727897_);fill:#231F20;" d="M116.4,12h0.7v-1.6h1.3
		V12h0.9v0.9h-0.9v2.7c0,0.4,0.2,0.5,0.5,0.5c0.2,0,0.4,0,0.4,0v1c0,0-0.3,0-0.8,0c-0.7,0-1.4-0.3-1.4-1.2v-3h-0.7V12z"/>
	<path style="clip-path:url(#SVGID_00000049912062415692386410000001884731499273727897_);fill:#231F20;" d="M119.7,14.6
		c0-1.5,1-2.7,2.5-2.7c1.6,0,2.5,1.3,2.5,3.1H121c0.1,0.8,0.5,1.3,1.3,1.3c0.5,0,0.8-0.2,1-0.6h1.3c-0.2,0.9-1,1.7-2.3,1.7
		C120.6,17.3,119.7,16.1,119.7,14.6 M121,14h2.3c0-0.6-0.5-1.1-1.1-1.1C121.5,12.9,121.2,13.3,121,14"/>
	<path style="clip-path:url(#SVGID_00000049912062415692386410000001884731499273727897_);fill:#231F20;" d="M126.7,12.8L126.7,12.8
		c0.3-0.6,0.7-0.9,1.3-0.9c0.2,0,0.2,0,0.3,0v1.2h0c-0.9-0.1-1.5,0.4-1.5,1.5v2.5h-1.4V12h1.3V12.8z"/>
	
		<rect x="130.7" y="10" style="clip-path:url(#SVGID_00000049912062415692386410000001884731499273727897_);fill:#231F20;" width="1.4" height="7.1"/>
	<path style="clip-path:url(#SVGID_00000049912062415692386410000001884731499273727897_);fill:#231F20;" d="M134.5,12.7L134.5,12.7
		c0.4-0.5,0.8-0.8,1.5-0.8c1.1,0,1.8,0.8,1.8,1.9v3.3h-1.4V14c0-0.5-0.3-0.9-0.9-0.9c-0.6,0-1,0.5-1,1.2v2.9h-1.4V12h1.3V12.7z"/>
	<path style="clip-path:url(#SVGID_00000049912062415692386410000001884731499273727897_);fill:#231F20;" d="M138.3,15.5h1.3
		c0.1,0.6,0.5,0.9,1.1,0.9c0.6,0,0.9-0.2,0.9-0.6c0-0.5-0.6-0.5-1.3-0.7c-0.9-0.2-1.8-0.4-1.8-1.5c0-1.1,0.9-1.6,2.1-1.6
		c1.3,0,2.1,0.7,2.2,1.7h-1.2c-0.1-0.5-0.4-0.7-1-0.7c-0.5,0-0.9,0.2-0.9,0.6c0,0.4,0.7,0.5,1.4,0.6c0.9,0.2,1.8,0.4,1.8,1.6
		c0,1-0.9,1.6-2.2,1.6C139.2,17.3,138.4,16.6,138.3,15.5"/>
	<path style="clip-path:url(#SVGID_00000049912062415692386410000001884731499273727897_);fill:#231F20;" d="M143.1,12h0.7v-1.6h1.3
		V12h0.9v0.9h-0.9v2.7c0,0.4,0.2,0.5,0.5,0.5c0.2,0,0.4,0,0.4,0v1c0,0-0.3,0-0.8,0c-0.7,0-1.4-0.3-1.4-1.2v-3h-0.7V12z"/>
	<path style="clip-path:url(#SVGID_00000049912062415692386410000001884731499273727897_);fill:#231F20;" d="M146.7,10h1.4v1.2h-1.4
		V10z M146.7,12h1.4v5.1h-1.4V12z"/>
	<path style="clip-path:url(#SVGID_00000049912062415692386410000001884731499273727897_);fill:#231F20;" d="M148.6,12h0.7v-1.6h1.3
		V12h0.9v0.9h-0.9v2.7c0,0.4,0.2,0.5,0.5,0.5c0.2,0,0.4,0,0.4,0v1c0,0-0.3,0-0.8,0c-0.7,0-1.4-0.3-1.4-1.2v-3h-0.7V12z"/>
	<path style="clip-path:url(#SVGID_00000049912062415692386410000001884731499273727897_);fill:#231F20;" d="M155.5,17.1v-0.6h0
		c-0.3,0.5-0.8,0.7-1.5,0.7c-1.1,0-1.8-0.7-1.8-1.8V12h1.3v3.2c0,0.6,0.3,0.9,0.8,0.9c0.6,0,1-0.5,1-1.2v-3h1.4v5.1H155.5z"/>
	<path style="clip-path:url(#SVGID_00000049912062415692386410000001884731499273727897_);fill:#231F20;" d="M157.4,12h0.7v-1.6h1.3
		V12h0.9v0.9h-0.9v2.7c0,0.4,0.2,0.5,0.5,0.5c0.2,0,0.4,0,0.4,0v1c0,0-0.3,0-0.8,0c-0.7,0-1.4-0.3-1.4-1.2v-3h-0.7V12z"/>
	<path style="clip-path:url(#SVGID_00000049912062415692386410000001884731499273727897_);fill:#231F20;" d="M160.7,14.6
		c0-1.5,1-2.7,2.5-2.7c1.6,0,2.5,1.3,2.5,3.1H162c0.1,0.8,0.5,1.3,1.3,1.3c0.5,0,0.8-0.2,1-0.6h1.3c-0.2,0.9-1,1.7-2.3,1.7
		C161.7,17.3,160.7,16.1,160.7,14.6 M162.1,14h2.3c0-0.6-0.5-1.1-1.1-1.1C162.5,12.9,162.2,13.3,162.1,14"/>
	<path style="clip-path:url(#SVGID_00000049912062415692386410000001884731499273727897_);fill:#231F20;" d="M83.4,24.6
		c0-1.5,1.1-2.7,2.7-2.7s2.7,1.2,2.7,2.7c0,1.5-1.1,2.7-2.7,2.7S83.4,26.1,83.4,24.6 M87.3,24.6c0-1-0.5-1.7-1.3-1.7
		c-0.8,0-1.3,0.7-1.3,1.7s0.5,1.7,1.3,1.7C86.9,26.2,87.3,25.6,87.3,24.6"/>
	<path style="clip-path:url(#SVGID_00000049912062415692386410000001884731499273727897_);fill:#231F20;" d="M89,22h0.7v-0.5
		c0-1.2,1-1.7,2.3-1.5v1c-0.6,0-0.9,0-0.9,0.6V22h0.9v0.9H91v4.2h-1.4v-4.2H89V22z"/>
	<polygon style="clip-path:url(#SVGID_00000049912062415692386410000001884731499273727897_);fill:#231F20;" points="94,20 99.7,20 
		99.7,21.2 97.6,21.2 97.6,27.1 96.1,27.1 96.1,21.2 94,21.2 	"/>
	<path style="clip-path:url(#SVGID_00000049912062415692386410000001884731499273727897_);fill:#231F20;" d="M98.9,24.6
		c0-1.5,1-2.7,2.5-2.7c1.6,0,2.5,1.3,2.5,3.1h-3.7c0.1,0.8,0.5,1.3,1.3,1.3c0.5,0,0.8-0.2,1-0.6h1.3c-0.2,0.9-1,1.7-2.3,1.7
		C99.9,27.3,98.9,26.1,98.9,24.6 M100.3,24h2.3c0-0.6-0.5-1.1-1.1-1.1C100.8,22.9,100.4,23.3,100.3,24"/>
	<path style="clip-path:url(#SVGID_00000049912062415692386410000001884731499273727897_);fill:#231F20;" d="M104.4,24.6
		c0-1.5,1-2.7,2.6-2.7c1.3,0,2.1,0.8,2.3,1.9h-1.3c-0.1-0.4-0.4-0.8-0.9-0.8c-0.8,0-1.2,0.6-1.2,1.6c0,1,0.4,1.6,1.2,1.6
		c0.5,0,0.9-0.3,1-0.9h1.3c-0.1,1.1-0.9,2-2.3,2C105.4,27.3,104.4,26.1,104.4,24.6"/>
	<path style="clip-path:url(#SVGID_00000049912062415692386410000001884731499273727897_);fill:#231F20;" d="M111.3,22.7L111.3,22.7
		c0.4-0.5,0.8-0.8,1.5-0.8c1.1,0,1.8,0.8,1.8,1.9v3.3h-1.4V24c0-0.5-0.3-0.9-0.9-0.9c-0.6,0-1,0.5-1,1.2v2.9h-1.4V20h1.4V22.7z"/>
	<path style="clip-path:url(#SVGID_00000049912062415692386410000001884731499273727897_);fill:#231F20;" d="M116.7,22.7L116.7,22.7
		c0.4-0.5,0.8-0.8,1.5-0.8c1.1,0,1.8,0.8,1.8,1.9v3.3h-1.4V24c0-0.5-0.3-0.9-0.9-0.9c-0.6,0-1,0.5-1,1.2v2.9h-1.4V22h1.3V22.7z"/>
	<path style="clip-path:url(#SVGID_00000049912062415692386410000001884731499273727897_);fill:#231F20;" d="M120.6,24.6
		c0-1.5,1.1-2.7,2.7-2.7s2.7,1.2,2.7,2.7c0,1.5-1.1,2.7-2.7,2.7S120.6,26.1,120.6,24.6 M124.6,24.6c0-1-0.5-1.7-1.3-1.7
		c-0.8,0-1.3,0.7-1.3,1.7s0.5,1.7,1.3,1.7C124.1,26.2,124.6,25.6,124.6,24.6"/>
	
		<rect x="126.7" y="20" style="clip-path:url(#SVGID_00000049912062415692386410000001884731499273727897_);fill:#231F20;" width="1.4" height="7.1"/>
	<path style="clip-path:url(#SVGID_00000049912062415692386410000001884731499273727897_);fill:#231F20;" d="M128.7,24.6
		c0-1.5,1.1-2.7,2.7-2.7c1.6,0,2.7,1.2,2.7,2.7c0,1.5-1.1,2.7-2.7,2.7C129.8,27.3,128.7,26.1,128.7,24.6 M132.6,24.6
		c0-1-0.5-1.7-1.3-1.7c-0.8,0-1.3,0.7-1.3,1.7s0.5,1.7,1.3,1.7C132.2,26.2,132.6,25.6,132.6,24.6"/>
	<path style="clip-path:url(#SVGID_00000049912062415692386410000001884731499273727897_);fill:#231F20;" d="M134.5,27.3h1.3
		c0.1,0.3,0.4,0.6,1,0.6c0.8,0,1.1-0.4,1.1-1.1v-0.6h0c-0.3,0.3-0.7,0.6-1.3,0.6c-1.1,0-2.3-0.9-2.3-2.4c0-1.5,0.9-2.5,2.2-2.5
		c0.6,0,1.1,0.2,1.4,0.7h0V22h1.3v4.7c0,0.7-0.2,1.2-0.6,1.6c-0.4,0.4-1.1,0.6-1.8,0.6C135.5,28.9,134.7,28.3,134.5,27.3
		 M138.1,24.3c0-0.8-0.4-1.4-1.2-1.4c-0.7,0-1.1,0.5-1.1,1.4c0,0.9,0.5,1.4,1.2,1.4C137.7,25.7,138.1,25.1,138.1,24.3"/>
	<path style="clip-path:url(#SVGID_00000049912062415692386410000001884731499273727897_);fill:#231F20;" d="M140.4,27.7h0.5
		c0.5,0,0.8-0.3,0.8-0.7c0-0.3-0.1-0.6-0.4-1.4l-1.4-3.6h1.4l0.8,2.3c0.2,0.5,0.3,1.1,0.3,1.1h0c0,0,0.1-0.6,0.3-1.1l0.7-2.3h1.4
		l-1.8,5.3c-0.4,1.1-0.8,1.5-1.8,1.5h-0.8V27.7z"/>
	<path style="clip-path:url(#SVGID_00000049912062415692386410000001884731499273727897_);fill:#231F20;" d="M146.7,24.6
		c0-1.5,1.1-2.7,2.7-2.7c1.6,0,2.7,1.2,2.7,2.7c0,1.5-1.1,2.7-2.7,2.7C147.7,27.3,146.7,26.1,146.7,24.6 M150.6,24.6
		c0-1-0.5-1.7-1.3-1.7c-0.8,0-1.3,0.7-1.3,1.7s0.5,1.7,1.3,1.7C150.2,26.2,150.6,25.6,150.6,24.6"/>
	<path style="clip-path:url(#SVGID_00000049912062415692386410000001884731499273727897_);fill:#231F20;" d="M152.2,22h0.7v-0.5
		c0-1.2,1-1.7,2.3-1.5v1c-0.6,0-0.9,0-0.9,0.6V22h0.9v0.9h-0.9v4.2h-1.4v-4.2h-0.7V22z"/>
	<path style="clip-path:url(#SVGID_00000049912062415692386410000001884731499273727897_);fill:#231F20;" d="M157.6,20h2.8
		c1.9,0,3.1,1.5,3.1,3.6c0,1.2-0.4,2.2-1.1,2.8c-0.5,0.4-1.2,0.7-2.1,0.7h-2.7V20z M160.2,25.9c1.4,0,1.9-0.8,1.9-2.2
		c0-1.4-0.6-2.4-1.8-2.4h-1.2v4.7H160.2z"/>
	<path style="clip-path:url(#SVGID_00000049912062415692386410000001884731499273727897_);fill:#231F20;" d="M167.5,27.1v-0.6h0
		c-0.4,0.5-0.8,0.7-1.5,0.7c-1.1,0-1.8-0.7-1.8-1.8V22h1.3v3.2c0,0.6,0.3,0.9,0.8,0.9c0.6,0,1-0.5,1-1.2v-3h1.4v5.1H167.5z"/>
	<path style="clip-path:url(#SVGID_00000049912062415692386410000001884731499273727897_);fill:#231F20;" d="M171,26.5L171,26.5
		l0,0.6h-1.3V20h1.4v2.6h0c0.3-0.4,0.7-0.8,1.4-0.8c1.3,0,2.2,1.1,2.2,2.7c0,1.7-0.9,2.7-2.2,2.7C171.8,27.3,171.3,27,171,26.5
		 M173.3,24.6c0-0.9-0.4-1.6-1.1-1.6c-0.9,0-1.2,0.7-1.2,1.6c0,0.9,0.5,1.5,1.2,1.5C172.9,26.1,173.3,25.6,173.3,24.6"/>
	<path style="clip-path:url(#SVGID_00000049912062415692386410000001884731499273727897_);fill:#231F20;" d="M178.4,26.6L178.4,26.6
		c-0.3,0.4-0.6,0.7-1.5,0.7c-1,0-1.8-0.5-1.8-1.6c0-1.1,0.9-1.5,2.1-1.6c0.8-0.1,1.2-0.2,1.2-0.6c0-0.4-0.3-0.6-0.9-0.6
		c-0.6,0-0.9,0.2-1,0.7h-1.2c0-0.9,0.7-1.7,2.2-1.7c1.5,0,2.2,0.7,2.2,1.9v2.6c0,0.4,0.1,0.6,0.2,0.7v0h-1.3
		C178.5,27,178.4,26.8,178.4,26.6 M178.4,25.3v-0.8c-0.2,0.1-0.6,0.2-0.9,0.3c-0.7,0.2-1.1,0.3-1.1,0.8s0.3,0.6,0.8,0.6
		C178,26.3,178.4,25.8,178.4,25.3"/>
	<path style="clip-path:url(#SVGID_00000049912062415692386410000001884731499273727897_);fill:#231F20;" d="M180.6,20h1.4v1.2h-1.4
		V20z M180.6,22h1.4v5.1h-1.4V22z"/>
</g>
</svg>
