<?xml version="1.0" encoding="utf-8"?>
<!-- Generator: Adobe Illustrator 26.5.0, SVG Export Plug-In . SVG Version: 6.00 Build 0)  -->
<svg version="1.1" id="Layer_1" xmlns="http://www.w3.org/2000/svg" xmlns:xlink="http://www.w3.org/1999/xlink" x="0px" y="0px"
	 viewBox="0 0 548.1 125.3" style="enable-background:new 0 0 548.1 125.3;" xml:space="preserve">
<style type="text/css">
	.st0{fill:#E12744;}
</style>
<g>
	<g>
		<rect x="318.9" y="65.2" class="st0" width="12.3" height="8.6"/>
		<rect x="466.7" y="65.2" class="st0" width="12.3" height="8.6"/>
		<path class="st0" d="M276.7,65.2h-13.6v24.1c0,4.5,0,10.2-6.4,10.2c-6.6,0-6.6-5.6-6.6-10.2V65.2h-13.6v27.1
			c0,12.3,6.7,18.1,20.2,18.1c13.5,0,20.1-5.9,20.1-18.1V65.2z"/>
		<path class="st0" d="M280.9,109.4h12.3v-17c0-5.1,2.8-6.2,4.9-6.2c3.6,0,4,2.6,4,6.3v16.8h12.3V87.4c0-7.4-5.3-10.9-11-10.9
			c-4.9,0-8.2,1.7-10.5,4.9h-0.1v-4.1h-11.8V109.4z"/>
		<rect x="318.9" y="77.3" class="st0" width="12.3" height="32.1"/>
		<polygon class="st0" points="369.1,77.3 356.6,77.3 351.5,96.8 351.4,96.8 346.4,77.3 333.5,77.3 344,109.4 358.5,109.4 		"/>
		<path class="st0" d="M386,102.4c-3.8,0-5.9-2.6-6.3-6.3h23.5c0-12.5-5.5-19.6-18.3-19.6c-10.2,0-17,7.6-17,17
			c0,10.7,7.7,16.8,18,16.8c7.3,0,14.1-3.2,16.5-10.2h-11.5C390.1,101.6,388,102.4,386,102.4z M386.1,84.3c3.2,0,5.4,2.4,5.4,5.4
			h-11.7C380.3,86.2,382.4,84.3,386.1,84.3z"/>
		<path class="st0" d="M405.9,109.4h12.3V96.7c0-6.9,2.6-9.7,7.4-9.7c2.5,0,3.6,0.4,4.8,0.8V77c-1.2-0.3-2.4-0.5-3.6-0.5
			c-4.5,0-7.1,2.1-9,5.9h-0.1v-5.1h-11.8V109.4z"/>
		<path class="st0" d="M463.4,86.6c-0.3-8.2-8.7-10.2-15.6-10.2c-6.4,0-15.2,2.1-15.2,10.2c0,5.5,3.8,8.5,13.1,10.1
			c5.7,1,6.8,1.5,6.8,3.4s-2.5,2.5-4.2,2.5c-1.5,0-2.7-0.4-3.3-0.9c-0.9-0.8-1.4-1.7-1.5-2.8h-11.7c0.2,8.3,8.5,11.3,16,11.3
			c7.8,0,16.4-2.4,16.4-11.3c0-5.3-3.6-7.7-7.7-9c-4.1-1.4-8.7-1.6-10.8-2.5c-0.7-0.3-1.4-0.7-1.4-1.7c0-2.1,2-2.5,3.7-2.5
			c1,0,2,0.3,2.7,0.9c0.8,0.6,1.4,1.4,1.4,2.4H463.4z"/>
		<rect x="466.7" y="77.3" class="st0" width="12.3" height="32.1"/>
		<path class="st0" d="M499.4,67.5h-12.3v9.8h-5.5v7.6h5.5v15.4c0,8.8,5.8,9.6,11,9.6c2.6,0,5.4-0.4,7.9-0.4v-9.3
			c-0.9,0.1-1.9,0.2-2.8,0.2c-3.1,0-3.8-1.3-3.8-4.3V84.8h6.6v-7.6h-6.6V67.5z"/>
		<path class="st0" d="M543.4,77.3h-12.7l-5.2,18.5h-0.1l-5.1-18.5h-13.1l5.5,14.8c0.7,1.9,5.4,13.7,5.4,15.2c0,1.4-0.4,2-1.2,2.4
			c-0.9,0.4-2.5,0.3-3.7,0.3h-2.8v9.8h5.6c4.8,0,9.7,0.1,12.9-4c1.9-2.4,3-6.1,4-8.9L543.4,77.3z"/>
	</g>
	<g>
		<polygon class="st0" points="236.4,50.7 249.3,50.7 249.3,22.3 249.4,22.3 257.1,50.7 267.3,50.7 274.9,22.3 275.1,22.3 
			275.1,50.7 287.9,50.7 287.9,6.5 268.6,6.5 262.2,32.5 262.1,32.5 255.8,6.5 236.4,6.5 		"/>
		<path class="st0" d="M325.7,18.6h-12.3v17c0,5.1-2.8,6.2-4.9,6.2c-3.6,0-4-2.6-4-6.3V18.6h-12.3v22.1c0,7.4,5.3,10.9,11,10.9
			c4.9,0,8.2-1.7,10.5-4.9h0.1v4.1h11.8V18.6z"/>
		<path class="st0" d="M329.9,50.8h12.3V38.1c0-6.9,2.6-9.7,7.4-9.7c2.5,0,3.6,0.4,4.8,0.8V18.3c-1.2-0.3-2.4-0.5-3.6-0.5
			c-4.5,0-7.1,2.1-9,5.9h-0.1v-5.1h-11.8V50.8z"/>
		<path class="st0" d="M378.9,6.5v15.6h-0.1c-1.9-2.7-5.1-4.3-8.8-4.3c-10.8,0-13.7,9.2-13.7,16.7c0,8.1,4.4,17,13.5,17
			c6,0,7.9-2.3,9.4-4.3h0.1v3.5h11.8V6.5H378.9z M373.9,42.7c-4.4,0-5.4-4.1-5.4-8c0-3.8,1-7.9,5.4-7.9c4.4,0,5.4,4.1,5.4,7.9
			C379.3,38.5,378.3,42.7,373.9,42.7z"/>
		<path class="st0" d="M411.3,17.8c-12.1,0-17.5,7.9-17.5,16.8c0,8.9,5.5,16.9,17.5,16.9s17.5-8,17.5-16.9
			C428.9,25.8,423.4,17.8,411.3,17.8z M411.3,42.7c-4.6,0-5.3-4.6-5.3-8c0-3.4,0.6-7.9,5.3-7.9s5.3,4.5,5.3,7.9
			C416.6,38.1,416,42.7,411.3,42.7z"/>
		<path class="st0" d="M465.4,30.8c-0.7-8.9-7.9-13-16.4-13c-9.7,0-17.4,6.8-17.4,16.9s7.7,16.8,17.4,16.8c8.7,0,15.5-4.9,16.7-13.6
			H454c-0.2,2.5-2.1,4.7-4.8,4.7c-4.7,0-5.4-4-5.4-7.9c0-3.9,0.7-8,5.4-8c1.3,0,2.4,0.4,3.1,1.1c0.8,0.7,1.2,1.7,1.4,3H465.4z"/>
		<path class="st0" d="M468.3,50.8h12.3v-17c0-5.1,2.8-6.2,4.9-6.2c3.6,0,4,2.6,4,6.3v16.8h12.3V28.7c0-7.4-5.3-10.9-11-10.9
			c-5.2,0-7.9,1.8-10,4.3h-0.1V6.5h-12.3V50.8z"/>
	</g>
</g>
<path class="st0" d="M207.4,63.6V6.5h-29v58c0,14.4-7.5,21.2-19,21.2c-11.5,0-19-7.1-19-21.9V6.5H90.4L65.7,46.6L41,6.5H10.6v102.9
	h27.4V48.8l1.1,1.7l26.5,40.5h0.1l23.3-34.9l3.5-5.4V51l19-28.4v41.8c0,32.2,18.4,47.1,47.6,47.1C188.5,111.4,207.4,96.8,207.4,63.6
	"/>
</svg>
