<svg width="141" height="32" viewBox="0 0 141 32" fill="none" xmlns="http://www.w3.org/2000/svg">
<g clip-path="url(#clip0_3414_12669)">
<path d="M0.415351 20.7523L4.24489 14.6978C4.32241 14.6155 4.42496 14.5612 4.53657 14.5432C4.64818 14.5253 4.76259 14.5447 4.86201 14.5985C4.96143 14.6523 5.04028 14.7375 5.08629 14.8407C5.1323 14.944 5.14289 15.0596 5.11641 15.1695L1.84053 23.6078C1.81878 23.6506 1.81493 23.7003 1.82983 23.746C1.84473 23.7917 1.87717 23.8295 1.92 23.8513C1.96283 23.873 2.01254 23.8769 2.05821 23.862C2.10388 23.8471 2.14175 23.8147 2.16351 23.7718L7.84887 14.7439C7.91685 14.6189 8.03174 14.5259 8.16826 14.4855C8.30478 14.4451 8.45175 14.4607 8.57684 14.5286C8.70193 14.5966 8.79488 14.7115 8.83526 14.848C8.87564 14.9845 8.86014 15.1315 8.79215 15.2566L4.13211 26.6068C4.11375 26.6435 4.11073 26.686 4.12371 26.725C4.13669 26.7639 4.16461 26.7961 4.20132 26.8144C4.23803 26.8328 4.28053 26.8358 4.31946 26.8228C4.3584 26.8099 4.39059 26.7819 4.40894 26.7452L11.7297 14.8003C11.8092 14.6919 11.9249 14.6155 12.0559 14.5848C12.1868 14.5542 12.3244 14.5713 12.4438 14.6332C12.5632 14.6951 12.6566 14.7976 12.7071 14.9222C12.7576 15.0469 12.7618 15.1855 12.7191 15.313L5.54191 31.3848C5.54191 31.3848 19.399 34.8606 22.9056 25.1201C25.9456 16.6869 15.6823 15.0413 15.6823 15.0413C15.6823 15.0413 23.449 15.1951 23.4695 7.6898C23.4695 -1.84048 8.29488 0.205019 8.29488 0.205019L9.92287e-05 20.5318C-0.0291332 20.5869 -0.0352936 20.6513 -0.0170267 20.7109C0.00124025 20.7705 0.0424381 20.8205 0.0975039 20.8497C0.15257 20.8789 0.216993 20.8851 0.2766 20.8668C0.336208 20.8485 0.386118 20.8073 0.415351 20.7523Z" fill="url(#paint0_linear_3414_12669)"/>
<path d="M37.2598 30.9593V4.72668H43.2066C48.9124 4.72668 52.6343 6.88497 52.6343 11.7552C52.6616 12.8292 52.3941 13.8902 51.8609 14.8229C51.3276 15.7556 50.549 16.5244 49.6097 17.0458V17.0766C52.8086 18.1019 54.7926 20.455 54.7926 23.5155C54.7926 28.801 50.476 30.9593 45.1906 30.9593H37.2598ZM42.3863 15.7232H43.4988C46.2825 15.7232 47.6411 14.4672 47.6411 12.1756C47.6411 9.88401 46.3902 9.00736 43.5398 9.00736H42.3709L42.3863 15.7232ZM42.3863 26.6427H44.7856C47.9538 26.6427 49.5891 25.2893 49.5891 23.131C49.5891 20.9728 48.1281 19.5424 44.5087 19.5424H42.3709L42.3863 26.6427Z" fill="#262262"/>
<path d="M57.3662 22.3671C57.3662 17.2867 61.2573 13.493 66.7581 13.493C72.2589 13.493 76.1499 17.1842 76.1499 22.4697C76.1499 27.7551 72.2537 31.4463 66.6863 31.4463C61.2573 31.4463 57.3662 27.791 57.3662 22.3671ZM71.1054 22.4697C71.1054 19.7218 69.3983 17.8096 66.7581 17.8096C64.1179 17.8096 62.4056 19.7218 62.4056 22.4235C62.4056 25.279 64.1128 27.1194 66.7581 27.1194C69.4034 27.1194 71.1054 25.2893 71.1054 22.4697Z" fill="#262262"/>
<path d="M79.626 30.9592V13.9493H84.6705L84.5885 15.6872H84.6961C85.9829 14.1236 87.0595 13.493 88.9358 13.493C89.84 13.5372 90.7199 13.8011 91.4991 14.262L90.1406 19.0964C89.4766 18.5715 88.6593 18.278 87.8131 18.2607C85.7625 18.2607 84.6808 19.7987 84.6808 22.7157V30.9592H79.626Z" fill="#262262"/>
<path d="M110.026 23.5155H97.8507C98.025 26.0172 99.3476 27.6526 101.68 27.6526C103.316 27.6526 104.428 26.8887 105.366 25.2175L109.785 26.658C108.247 29.8263 105.228 31.4257 101.583 31.4257C96.3332 31.4257 92.7139 27.9807 92.7139 22.485C92.7139 16.9894 96.3332 13.4725 101.429 13.4725C106.684 13.4725 110.021 16.9176 110.021 22.5876L110.026 23.5155ZM106.95 6.22357L100.634 11.6885L97.9583 10.1198L102.757 3.78845L106.95 6.22357ZM104.9 20.2088C104.654 18.3633 103.362 17.2867 101.491 17.2867C99.6193 17.2867 98.4146 18.4709 98.0455 20.2088H104.9Z" fill="#262262"/>
<path d="M112.426 22.4338C112.426 17.5328 115.799 13.529 120.603 13.529C121.627 13.4986 122.647 13.6916 123.589 14.0943C124.532 14.4971 125.376 15.1001 126.062 15.8616H126.114L126.078 13.9494H131.086V30.9593H126.062L126.098 28.9753H126.062C124.391 30.6466 122.761 31.4463 120.639 31.4463C115.768 31.4463 112.426 27.4117 112.426 22.4338ZM126.309 22.4697C126.309 19.8244 124.535 17.8097 121.889 17.8097C119.244 17.8097 117.506 19.8244 117.506 22.4236C117.506 25.1406 119.142 27.1554 121.854 27.1554C124.565 27.1554 126.309 25.1509 126.309 22.4697Z" fill="#262262"/>
<path d="M135.593 30.9593V2.50171H140.637V30.9593H135.593Z" fill="#262262"/>
</g>
<defs>
<linearGradient id="paint0_linear_3414_12669" x1="-1.35331" y1="21.6546" x2="26.7197" y2="9.53536" gradientUnits="userSpaceOnUse">
<stop stop-color="#662D91"/>
<stop offset="0.54" stop-color="#00A79D"/>
<stop offset="1" stop-color="#8DC63F"/>
</linearGradient>
<clipPath id="clip0_3414_12669">
<rect width="140.637" height="32" fill="white"/>
</clipPath>
</defs>
</svg>
