<?xml version="1.0" encoding="utf-8"?>
<svg xmlns="http://www.w3.org/2000/svg" xmlns:xlink="http://www.w3.org/1999/xlink" width="171.105" height="73.354" viewBox="0 0 171.105 73.354">
  <defs>
    <clipPath id="clip-path">
      <rect id="Rectangle_13257" data-name="Rectangle 13257" width="171.105" height="73.354" fill="none"/>
    </clipPath>
  </defs>
  <g id="Group_638" data-name="Group 638" clip-path="url(#clip-path)">
    <path id="Path_192" data-name="Path 192" d="M64.139,4.29A4.632,4.632,0,0,0,62.3,2.33a4.974,4.974,0,0,0-2.426-.609,4.729,4.729,0,0,0-2.436.647,4.65,4.65,0,0,0-1.74,1.8,5.494,5.494,0,0,0-.639,2.712,5.593,5.593,0,0,0,.628,2.7,4.6,4.6,0,0,0,1.722,1.808,4.714,4.714,0,0,0,2.445.647,4.873,4.873,0,0,0,1.827-.343,4.632,4.632,0,0,0,1.5-.952,4.393,4.393,0,0,0,1-1.446V7.848H59.99V6.288H66.1v3.1a6.592,6.592,0,0,1-6.242,4.282,6.969,6.969,0,0,1-2.634-.495,6.357,6.357,0,0,1-3.568-3.549,7.12,7.12,0,0,1-.515-2.75,7.069,7.069,0,0,1,.515-2.731,6.517,6.517,0,0,1,1.426-2.16A6.342,6.342,0,0,1,57.223.579,6.969,6.969,0,0,1,59.857.084,7.118,7.118,0,0,1,62.293.5a6.461,6.461,0,0,1,2.076,1.218,5.567,5.567,0,0,1,1.426,1.96Z" transform="translate(31.132 0.049)" fill="#fff"/>
    <path id="Path_193" data-name="Path 193" d="M63.818,2.4a1.162,1.162,0,0,1-.856-.343,1.139,1.139,0,0,1-.343-.837,1.194,1.194,0,0,1,.343-.866A1.146,1.146,0,0,1,63.818,0a1.157,1.157,0,0,1,.847.352,1.182,1.182,0,0,1,.35.866,1.128,1.128,0,0,1-.35.837,1.173,1.173,0,0,1-.847.343M62.9,4.073h1.809v9.515H62.9Z" transform="translate(36.686 0)" fill="#fff"/>
    <path id="Path_194" data-name="Path 194" d="M66.984,9.126a1.816,1.816,0,0,0,.457.894,1.882,1.882,0,0,0,.771.466,3.08,3.08,0,0,0,.942.143,2.245,2.245,0,0,0,1.332-.343,1.022,1.022,0,0,0,.476-.856.874.874,0,0,0-.295-.695,2.156,2.156,0,0,0-.78-.409q-.485-.152-1.037-.285-.495-.133-1.075-.3a4.868,4.868,0,0,1-1.085-.466,2.576,2.576,0,0,1-.828-.761,2.04,2.04,0,0,1-.324-1.189A2.462,2.462,0,0,1,66,3.826a3.034,3.034,0,0,1,1.294-.99,4.748,4.748,0,0,1,1.874-.352,4.266,4.266,0,0,1,2.141.523,3.038,3.038,0,0,1,1.342,1.57l-1.618.533a1.271,1.271,0,0,0-.438-.59,1.778,1.778,0,0,0-.695-.314,3.587,3.587,0,0,0-.771-.086,2.288,2.288,0,0,0-1.2.285.917.917,0,0,0-.477.837.808.808,0,0,0,.152.5,1.079,1.079,0,0,0,.428.324,3.969,3.969,0,0,0,.657.219q.381.1.818.209.571.171,1.161.371a5.314,5.314,0,0,1,1.085.5,2.3,2.3,0,0,1,1.123,2.017,2.474,2.474,0,0,1-.466,1.484A3.111,3.111,0,0,1,71.1,11.895a4.975,4.975,0,0,1-2.008.371,4.384,4.384,0,0,1-2.4-.628A3.119,3.119,0,0,1,65.366,9.7Z" transform="translate(38.296 1.455)" fill="#fff"/>
    <path id="Path_195" data-name="Path 195" d="M71.354,2.617h1.637l.114,1.1a3.286,3.286,0,0,1,1.142-.9,3.487,3.487,0,0,1,1.543-.333,3.631,3.631,0,0,1,1.759.428,3.073,3.073,0,0,1,1.246,1.266,3.08,3.08,0,0,1,1.353-1.266,4.305,4.305,0,0,1,1.922-.428,3.835,3.835,0,0,1,1.913.466,3.151,3.151,0,0,1,1.283,1.38,5.062,5.062,0,0,1,.458,2.284v5.519H83.916V6.842a3.125,3.125,0,0,0-.571-2.027,2,2,0,0,0-1.638-.695,2.153,2.153,0,0,0-1.713.723,3.143,3.143,0,0,0-.626,2.112v5.176H77.558V6.842a3.275,3.275,0,0,0-.533-2.027,1.885,1.885,0,0,0-1.6-.695,2.063,2.063,0,0,0-1.683.723,3.238,3.238,0,0,0-.6,2.112v5.176h-1.79Z" transform="translate(41.804 1.455)" fill="#fff"/>
    <path id="Path_196" data-name="Path 196" d="M87.916,12.132l-.152-1.389a3.086,3.086,0,0,1-1.134,1.113,3.65,3.65,0,0,1-1.8.39,4.163,4.163,0,0,1-1.749-.333,2.563,2.563,0,0,1-1.113-.932,2.507,2.507,0,0,1-.39-1.4,2.539,2.539,0,0,1,.893-1.989,4.6,4.6,0,0,1,2.59-.98l2.7-.3V5.567a1.324,1.324,0,0,0-.495-1.037A2.124,2.124,0,0,0,85.84,4.1a2.6,2.6,0,0,0-1.483.409,2,2,0,0,0-.818,1.208l-1.6-.571a3.408,3.408,0,0,1,1.419-1.96,4.505,4.505,0,0,1,2.56-.7,3.785,3.785,0,0,1,2.721.894,3.125,3.125,0,0,1,.932,2.36v6.394Zm-.152-4.358L85.155,8.1a2.449,2.449,0,0,0-1.256.466,1.151,1.151,0,0,0-.417.923,1.118,1.118,0,0,0,.409.885,1.707,1.707,0,0,0,1.15.352,3.067,3.067,0,0,0,1.522-.343,2.135,2.135,0,0,0,.9-.961,3.28,3.28,0,0,0,.3-1.437Z" transform="translate(47.794 1.455)" fill="#fff"/>
    <path id="Path_197" data-name="Path 197" d="M53.559,12.368h1.9v8.469A3.718,3.718,0,0,0,55.9,22.73a2.656,2.656,0,0,0,1.2,1.1,4.046,4.046,0,0,0,1.714.352,4,4,0,0,0,1.721-.352,2.646,2.646,0,0,0,1.189-1.1,3.7,3.7,0,0,0,.439-1.894V12.368h1.9V20.8a5.368,5.368,0,0,1-.428,2.236,4.265,4.265,0,0,1-1.181,1.56,5.11,5.11,0,0,1-1.692.923,6.371,6.371,0,0,1-1.97.3,6.16,6.16,0,0,1-2.569-.542,4.484,4.484,0,0,1-1.932-1.656,5.03,5.03,0,0,1-.733-2.826Z" transform="translate(31.378 7.246)" fill="#fff"/>
    <path id="Path_198" data-name="Path 198" d="M61.827,14.817h1.637l.114,1.1a3.056,3.056,0,0,1,1.161-.913,3.693,3.693,0,0,1,1.561-.324,3.764,3.764,0,0,1,1.913.466,3.131,3.131,0,0,1,1.256,1.38,5.176,5.176,0,0,1,.447,2.284v5.519H68.126v-5.29a3.162,3.162,0,0,0-.561-2.027,1.97,1.97,0,0,0-1.627-.695,2.129,2.129,0,0,0-1.713.714,3.162,3.162,0,0,0-.609,2.1v5.2H61.827Z" transform="translate(36.222 8.603)" fill="#fff"/>
    <path id="Path_199" data-name="Path 199" d="M69.638,14.6a1.157,1.157,0,0,1-.856-.343,1.134,1.134,0,0,1-.344-.837,1.189,1.189,0,0,1,.344-.866,1.2,1.2,0,0,1,1.7,0,1.172,1.172,0,0,1,.354.866,1.119,1.119,0,0,1-.354.837,1.165,1.165,0,0,1-.845.343m-.913,1.675h1.808v9.515H68.725Z" transform="translate(40.095 7.147)" fill="#fff"/>
    <path id="Path_200" data-name="Path 200" d="M72.9,14.768l2.74,7.593L78.4,14.768h1.9l-3.713,9.515h-1.94l-3.693-9.515Z" transform="translate(41.572 8.652)" fill="#fff"/>
    <path id="Path_201" data-name="Path 201" d="M82.083,24.466a4.6,4.6,0,0,1-2.425-.638A4.461,4.461,0,0,1,78,22.068a5.37,5.37,0,0,1-.6-2.569,5.094,5.094,0,0,1,.59-2.474,4.411,4.411,0,0,1,3.977-2.341,4.713,4.713,0,0,1,2.358.58,4.1,4.1,0,0,1,1.6,1.618,4.745,4.745,0,0,1,.55,2.388c0,.152-.006.308-.017.466s-.033.333-.059.523H79.362a2.827,2.827,0,0,0,.43,1.342,2.643,2.643,0,0,0,.95.9,2.674,2.674,0,0,0,1.323.324,3.5,3.5,0,0,0,1.656-.371,2.124,2.124,0,0,0,.99-1l1.561.552a4.209,4.209,0,0,1-1.664,1.808,4.87,4.87,0,0,1-2.523.647m2.436-5.747a2.284,2.284,0,0,0-.343-1.237,2.412,2.412,0,0,0-.923-.866,2.691,2.691,0,0,0-1.3-.314,2.332,2.332,0,0,0-1.189.314,2.777,2.777,0,0,0-.912.856,2.81,2.81,0,0,0-.466,1.246Z" transform="translate(45.348 8.603)" fill="#fff"/>
    <path id="Path_202" data-name="Path 202" d="M84.386,14.8h1.637l.114,1.275a3.811,3.811,0,0,1,.923-.828,3.456,3.456,0,0,1,1.142-.466,2.933,2.933,0,0,1,1.285.019v1.694a2.833,2.833,0,0,0-1.218-.038,2.4,2.4,0,0,0-1.056.485,2.68,2.68,0,0,0-.752.98,3.407,3.407,0,0,0-.285,1.465v4.929H84.386Z" transform="translate(49.439 8.622)" fill="#fff"/>
    <path id="Path_203" data-name="Path 203" d="M89.894,21.326a1.8,1.8,0,0,0,.457.894,1.887,1.887,0,0,0,.769.466,3.077,3.077,0,0,0,.94.143,2.256,2.256,0,0,0,1.335-.343,1.03,1.03,0,0,0,.476-.856.875.875,0,0,0-.3-.695,2.175,2.175,0,0,0-.779-.409c-.324-.1-.672-.2-1.037-.285-.33-.089-.691-.19-1.075-.3A4.88,4.88,0,0,1,89.6,19.47a2.571,2.571,0,0,1-.826-.761,2.029,2.029,0,0,1-.325-1.189,2.453,2.453,0,0,1,.468-1.494,3.02,3.02,0,0,1,1.292-.99,4.748,4.748,0,0,1,1.875-.352,4.247,4.247,0,0,1,2.139.523,3.031,3.031,0,0,1,1.342,1.57l-1.614.533a1.285,1.285,0,0,0-.439-.59,1.781,1.781,0,0,0-.693-.314,3.59,3.59,0,0,0-.772-.086,2.3,2.3,0,0,0-1.2.285.916.916,0,0,0-.476.837.8.8,0,0,0,.152.5,1.079,1.079,0,0,0,.428.324,3.92,3.92,0,0,0,.657.219q.378.1.818.209c.381.114.766.238,1.159.371a5.368,5.368,0,0,1,1.086.5,2.3,2.3,0,0,1,1.123,2.017,2.485,2.485,0,0,1-.466,1.484,3.14,3.14,0,0,1-1.313,1.018,4.991,4.991,0,0,1-2.008.371,4.386,4.386,0,0,1-2.4-.628A3.133,3.133,0,0,1,88.273,21.9Z" transform="translate(51.716 8.603)" fill="#fff"/>
    <path id="Path_204" data-name="Path 204" d="M95.461,14.6a1.164,1.164,0,0,1-.856-.343,1.145,1.145,0,0,1-.343-.837,1.2,1.2,0,0,1,.343-.866,1.206,1.206,0,0,1,1.7,0,1.177,1.177,0,0,1,.352.866,1.124,1.124,0,0,1-.352.837,1.171,1.171,0,0,1-.847.343m-.913,1.675h1.809v9.515H94.547Z" transform="translate(55.225 7.147)" fill="#fff"/>
    <path id="Path_205" data-name="Path 205" d="M98.248,15.752V13.088h1.809v2.664h2.379v1.6h-2.379v4.681a1.747,1.747,0,0,0,.35,1.237,1.371,1.371,0,0,0,.894.409,5.265,5.265,0,0,0,1.134-.029v1.541a5.047,5.047,0,0,1-1.534.1,3.11,3.11,0,0,1-1.351-.428,2.52,2.52,0,0,1-.95-1.056,3.909,3.909,0,0,1-.354-1.779V17.351h-1.37v-1.6Z" transform="translate(56.757 7.668)" fill="#fff"/>
    <path id="Path_206" data-name="Path 206" d="M108.391,14.768h1.865l-5.519,13.321h-1.77l1.675-4-3.768-9.325h1.979l2.759,7.213Z" transform="translate(59.098 8.652)" fill="#fff"/>
    <path id="Path_207" data-name="Path 207" d="M57.895,36.666a4.9,4.9,0,0,1-2.428-.6,4.279,4.279,0,0,1-1.683-1.694,5.745,5.745,0,0,1,.019-5.186,4.377,4.377,0,0,1,1.713-1.7,4.946,4.946,0,0,1,2.436-.6,5.009,5.009,0,0,1,2.445.6,4.377,4.377,0,0,1,1.722,1.694,5.642,5.642,0,0,1-.01,5.186,4.411,4.411,0,0,1-1.743,1.7,5.092,5.092,0,0,1-2.472.6m-.019-1.637a3,3,0,0,0,1.426-.352A2.773,2.773,0,0,0,60.4,33.6a3.582,3.582,0,0,0,.427-1.846,3.636,3.636,0,0,0-.408-1.817,2.682,2.682,0,0,0-1.075-1.066,3.011,3.011,0,0,0-1.429-.352,2.817,2.817,0,0,0-1.38.352A2.67,2.67,0,0,0,55.5,29.948a4.446,4.446,0,0,0-.01,3.663,2.615,2.615,0,0,0,1.018,1.066,2.751,2.751,0,0,0,1.37.352" transform="translate(31.153 15.75)" fill="#fff"/>
    <path id="Path_208" data-name="Path 208" d="M61.208,27.46a4.058,4.058,0,0,1,.371-1.827,2.224,2.224,0,0,1,1.151-1.075,4.318,4.318,0,0,1,2.057-.219v1.58a1.661,1.661,0,0,0-1.38.3,1.712,1.712,0,0,0-.39,1.237v1.066H64.9v1.6H63.017v7.917H61.208V30.124H59.99v-1.6h1.218Z" transform="translate(35.146 14.242)" fill="#fff"/>
    <path id="Path_209" data-name="Path 209" d="M73.493,26.167h-.666L68.639,37.889H66.7l4.8-13.321h3.291l4.8,13.321H77.641ZM69.154,32.9h7.764v1.6H69.154Z" transform="translate(39.077 14.393)" fill="#fff"/>
    <path id="Path_210" data-name="Path 210" d="M77.25,34.915l.19-.057v5.481H75.65V27.017h1.637l.133,1.427a3.8,3.8,0,0,1,1.266-1.1,3.954,3.954,0,0,1,1.97-.457,4.1,4.1,0,0,1,2.227.609,4.25,4.25,0,0,1,1.532,1.7,5.58,5.58,0,0,1,.563,2.579,5.759,5.759,0,0,1-.544,2.569,4.114,4.114,0,0,1-1.511,1.713,4.176,4.176,0,0,1-2.266.609,4.112,4.112,0,0,1-2.1-.5,3.525,3.525,0,0,1-1.3-1.246m5.784-3.14a3.5,3.5,0,0,0-.769-2.36,2.528,2.528,0,0,0-2.009-.894,2.689,2.689,0,0,0-1.426.381,2.744,2.744,0,0,0-1.01,1.1,3.763,3.763,0,0,0-.379,1.77,3.718,3.718,0,0,0,.379,1.751,2.814,2.814,0,0,0,1.01,1.113,2.639,2.639,0,0,0,1.426.39,2.528,2.528,0,0,0,2.009-.894,3.5,3.5,0,0,0,.769-2.36" transform="translate(44.321 15.75)" fill="#fff"/>
    <path id="Path_211" data-name="Path 211" d="M84.378,34.915l.19-.057v5.481h-1.79V27.017h1.637l.133,1.427a3.8,3.8,0,0,1,1.266-1.1,3.954,3.954,0,0,1,1.97-.457,4.1,4.1,0,0,1,2.227.609,4.25,4.25,0,0,1,1.532,1.7,5.58,5.58,0,0,1,.563,2.579,5.759,5.759,0,0,1-.544,2.569,4.114,4.114,0,0,1-1.511,1.713,4.176,4.176,0,0,1-2.266.609,4.113,4.113,0,0,1-2.1-.5,3.525,3.525,0,0,1-1.3-1.246m5.784-3.14a3.5,3.5,0,0,0-.769-2.36,2.528,2.528,0,0,0-2.009-.894,2.689,2.689,0,0,0-1.426.381,2.744,2.744,0,0,0-1.01,1.1,3.763,3.763,0,0,0-.379,1.77,3.718,3.718,0,0,0,.379,1.751,2.813,2.813,0,0,0,1.01,1.113,2.639,2.639,0,0,0,1.426.39,2.528,2.528,0,0,0,2.009-.894,3.5,3.5,0,0,0,.769-2.36" transform="translate(48.497 15.75)" fill="#fff"/>
    <rect id="Rectangle_13214" data-name="Rectangle 13214" width="1.79" height="13.702" transform="translate(142.579 38.581)" fill="#fff"/>
    <path id="Path_212" data-name="Path 212" d="M93.829,26.8a1.164,1.164,0,0,1-.856-.343,1.145,1.145,0,0,1-.343-.837,1.2,1.2,0,0,1,.343-.866,1.206,1.206,0,0,1,1.7,0,1.177,1.177,0,0,1,.352.866,1.124,1.124,0,0,1-.352.837,1.171,1.171,0,0,1-.847.343m-.913,1.675h1.809v9.515H92.915Z" transform="translate(54.269 14.295)" fill="#fff"/>
    <path id="Path_213" data-name="Path 213" d="M100.059,36.666a4.6,4.6,0,0,1-2.425-.638,4.462,4.462,0,0,1-1.656-1.76,5.37,5.37,0,0,1-.6-2.569,5.094,5.094,0,0,1,.59-2.474,4.411,4.411,0,0,1,3.977-2.341,4.713,4.713,0,0,1,2.358.58,4.1,4.1,0,0,1,1.6,1.618,4.745,4.745,0,0,1,.55,2.388c0,.152-.006.308-.017.466s-.033.333-.059.523H97.338a2.827,2.827,0,0,0,.43,1.342,2.643,2.643,0,0,0,.95.9,2.675,2.675,0,0,0,1.323.324,3.5,3.5,0,0,0,1.656-.371,2.124,2.124,0,0,0,.99-1l1.56.552a4.209,4.209,0,0,1-1.664,1.808,4.87,4.87,0,0,1-2.523.647m2.436-5.747a2.284,2.284,0,0,0-.343-1.237,2.412,2.412,0,0,0-.923-.866,2.691,2.691,0,0,0-1.3-.314,2.332,2.332,0,0,0-1.189.314,2.778,2.778,0,0,0-.912.856,2.81,2.81,0,0,0-.466,1.246Z" transform="translate(55.879 15.75)" fill="#fff"/>
    <path id="Path_214" data-name="Path 214" d="M109.74,30.132l-.211.057V24.328h1.809v13.7H109.7l-.133-1.427a4.008,4.008,0,0,1-1.285,1.1,3.958,3.958,0,0,1-1.97.457,3.99,3.99,0,0,1-3.758-2.322,6.356,6.356,0,0,1,0-5.138,4.325,4.325,0,0,1,5.861-1.817,3.7,3.7,0,0,1,1.323,1.246m-5.8,3.14a3.516,3.516,0,0,0,.76,2.36,2.544,2.544,0,0,0,2.038.894,2.654,2.654,0,0,0,1.407-.381,2.731,2.731,0,0,0,1.01-1.113,3.8,3.8,0,0,0,.379-1.76,3.737,3.737,0,0,0-.379-1.751,2.813,2.813,0,0,0-1.01-1.113,2.605,2.605,0,0,0-1.407-.39,2.549,2.549,0,0,0-2.028.894,3.5,3.5,0,0,0-.769,2.36" transform="translate(59.766 14.253)" fill="#fff"/>
    <path id="Path_215" data-name="Path 215" d="M54.967,46.618a2.447,2.447,0,0,0,.466.99,2.565,2.565,0,0,0,.961.742,3.534,3.534,0,0,0,1.5.285,2.735,2.735,0,0,0,1.968-.618,1.961,1.961,0,0,0,.638-1.456,1.66,1.66,0,0,0-.39-1.132,3.172,3.172,0,0,0-1.066-.761,10.629,10.629,0,0,0-1.549-.561q-.764-.228-1.5-.485a6,6,0,0,1-1.323-.647,2.831,2.831,0,0,1-.932-1.009,3.171,3.171,0,0,1-.341-1.551,3.4,3.4,0,0,1,2.1-3.283,5.642,5.642,0,0,1,2.312-.447A5.83,5.83,0,0,1,59.8,37a4.061,4.061,0,0,1,1.476.894,3.553,3.553,0,0,1,.883,1.4l-1.732.628a1.834,1.834,0,0,0-.474-.79,2.715,2.715,0,0,0-.915-.6A3.207,3.207,0,0,0,57.8,38.3a3.032,3.032,0,0,0-1.266.219,2.135,2.135,0,0,0-.893.676,1.67,1.67,0,0,0-.335,1.047,1.414,1.414,0,0,0,.381,1.047,2.9,2.9,0,0,0,1.02.628q.635.247,1.4.476c.533.165,1.055.343,1.56.533a6.056,6.056,0,0,1,1.38.723,3.453,3.453,0,0,1,1,1.094,3.242,3.242,0,0,1,.381,1.646,3.875,3.875,0,0,1-.493,1.941,3.616,3.616,0,0,1-1.5,1.408,5.277,5.277,0,0,1-2.5.533,6.154,6.154,0,0,1-2.225-.381,4.329,4.329,0,0,1-1.629-1.056,3.37,3.37,0,0,1-.847-1.57Z" transform="translate(31.189 21.492)" fill="#fff"/>
    <path id="Path_216" data-name="Path 216" d="M64.615,48.866a4.651,4.651,0,0,1-2.415-.618,4.284,4.284,0,0,1-1.629-1.7,5.286,5.286,0,0,1-.58-2.531,5.37,5.37,0,0,1,.59-2.569,4.392,4.392,0,0,1,1.637-1.732,4.643,4.643,0,0,1,2.436-.628,4.82,4.82,0,0,1,2.579.685,3.945,3.945,0,0,1,1.608,1.846l-1.616.571a2.269,2.269,0,0,0-.963-1.066,2.951,2.951,0,0,0-1.532-.4,2.583,2.583,0,0,0-2.474,1.551,4.031,4.031,0,0,0-.343,1.722,3.471,3.471,0,0,0,.761,2.36,2.585,2.585,0,0,0,2.055.875,3.066,3.066,0,0,0,1.532-.381A2.49,2.49,0,0,0,67.28,45.8l1.6.571A4.093,4.093,0,0,1,67.2,48.19a4.985,4.985,0,0,1-2.588.676" transform="translate(35.147 22.898)" fill="#fff"/>
    <path id="Path_217" data-name="Path 217" d="M68.055,39a1.157,1.157,0,0,1-.856-.343,1.134,1.134,0,0,1-.344-.837,1.189,1.189,0,0,1,.344-.866,1.2,1.2,0,0,1,1.7,0,1.172,1.172,0,0,1,.354.866,1.119,1.119,0,0,1-.354.837,1.165,1.165,0,0,1-.845.343m-.913,1.675h1.808v9.515H67.141Z" transform="translate(39.167 21.443)" fill="#fff"/>
    <path id="Path_218" data-name="Path 218" d="M74.283,48.866a4.6,4.6,0,0,1-2.425-.638,4.462,4.462,0,0,1-1.656-1.76,5.37,5.37,0,0,1-.6-2.569,5.094,5.094,0,0,1,.59-2.474,4.411,4.411,0,0,1,3.977-2.341,4.713,4.713,0,0,1,2.358.58,4.1,4.1,0,0,1,1.6,1.618,4.745,4.745,0,0,1,.55,2.388c0,.152-.006.308-.017.466s-.033.333-.059.523H71.562A2.827,2.827,0,0,0,71.991,46a2.643,2.643,0,0,0,.95.9,2.675,2.675,0,0,0,1.323.324,3.5,3.5,0,0,0,1.656-.371,2.124,2.124,0,0,0,.99-1l1.561.552a4.209,4.209,0,0,1-1.664,1.808,4.87,4.87,0,0,1-2.523.647m2.436-5.747a2.284,2.284,0,0,0-.343-1.237,2.412,2.412,0,0,0-.923-.866,2.691,2.691,0,0,0-1.3-.314,2.332,2.332,0,0,0-1.189.314,2.777,2.777,0,0,0-.912.856,2.81,2.81,0,0,0-.466,1.246Z" transform="translate(40.778 22.898)" fill="#fff"/>
    <path id="Path_219" data-name="Path 219" d="M76.587,39.217h1.635l.114,1.1a3.061,3.061,0,0,1,1.162-.913,3.693,3.693,0,0,1,1.56-.324,3.772,3.772,0,0,1,1.913.466,3.15,3.15,0,0,1,1.256,1.38,5.2,5.2,0,0,1,.447,2.284v5.519H82.886v-5.29a3.153,3.153,0,0,0-.563-2.027,1.965,1.965,0,0,0-1.626-.695,2.127,2.127,0,0,0-1.713.714,3.154,3.154,0,0,0-.609,2.1v5.2H76.587Z" transform="translate(44.87 22.898)" fill="#fff"/>
    <path id="Path_220" data-name="Path 220" d="M87.474,48.866a4.651,4.651,0,0,1-2.415-.618,4.284,4.284,0,0,1-1.629-1.7,5.286,5.286,0,0,1-.58-2.531,5.37,5.37,0,0,1,.59-2.569,4.392,4.392,0,0,1,1.637-1.732,4.643,4.643,0,0,1,2.436-.628,4.82,4.82,0,0,1,2.579.685A3.945,3.945,0,0,1,91.7,41.615l-1.616.571a2.269,2.269,0,0,0-.963-1.066,2.951,2.951,0,0,0-1.532-.4,2.583,2.583,0,0,0-2.474,1.551,4.031,4.031,0,0,0-.343,1.722,3.471,3.471,0,0,0,.761,2.36,2.585,2.585,0,0,0,2.055.875,3.066,3.066,0,0,0,1.532-.381A2.49,2.49,0,0,0,90.139,45.8l1.6.571a4.093,4.093,0,0,1-1.675,1.817,4.985,4.985,0,0,1-2.588.676" transform="translate(48.539 22.898)" fill="#fff"/>
    <path id="Path_221" data-name="Path 221" d="M94.047,48.866a4.6,4.6,0,0,1-2.426-.638,4.473,4.473,0,0,1-1.656-1.76,5.37,5.37,0,0,1-.6-2.569,5.094,5.094,0,0,1,.59-2.474,4.415,4.415,0,0,1,3.977-2.341,4.715,4.715,0,0,1,2.36.58,4.1,4.1,0,0,1,1.6,1.618,4.729,4.729,0,0,1,.552,2.388c0,.152-.008.308-.019.466s-.032.333-.059.523h-7.04A2.825,2.825,0,0,0,91.754,46a2.6,2.6,0,0,0,2.274,1.227,3.5,3.5,0,0,0,1.656-.371,2.124,2.124,0,0,0,.99-1l1.561.552a4.212,4.212,0,0,1-1.665,1.808,4.864,4.864,0,0,1-2.522.647m2.436-5.747a2.3,2.3,0,0,0-.343-1.237,2.435,2.435,0,0,0-.923-.866,2.7,2.7,0,0,0-1.3-.314,2.323,2.323,0,0,0-1.189.314,2.782,2.782,0,0,0-.913.856,2.829,2.829,0,0,0-.466,1.246Z" transform="translate(52.356 22.898)" fill="#fff"/>
    <path id="Path_222" data-name="Path 222" d="M97.62,45.726a1.816,1.816,0,0,0,.457.894,1.882,1.882,0,0,0,.771.466,3.08,3.08,0,0,0,.942.143,2.245,2.245,0,0,0,1.332-.343,1.022,1.022,0,0,0,.476-.856.874.874,0,0,0-.295-.695,2.156,2.156,0,0,0-.78-.409q-.485-.152-1.037-.285-.495-.133-1.075-.3a4.868,4.868,0,0,1-1.085-.466,2.576,2.576,0,0,1-.828-.761,2.04,2.04,0,0,1-.324-1.189,2.462,2.462,0,0,1,.466-1.494,3.035,3.035,0,0,1,1.294-.99,4.748,4.748,0,0,1,1.874-.352,4.266,4.266,0,0,1,2.141.523,3.038,3.038,0,0,1,1.342,1.57l-1.618.533a1.271,1.271,0,0,0-.438-.59,1.778,1.778,0,0,0-.695-.314,3.587,3.587,0,0,0-.771-.086,2.288,2.288,0,0,0-1.2.285.917.917,0,0,0-.477.837.808.808,0,0,0,.152.5,1.079,1.079,0,0,0,.428.324,3.97,3.97,0,0,0,.657.219q.381.1.818.209.571.171,1.161.371a5.314,5.314,0,0,1,1.085.5,2.3,2.3,0,0,1,1.123,2.017,2.474,2.474,0,0,1-.466,1.484,3.111,3.111,0,0,1-1.313,1.018,4.975,4.975,0,0,1-2.008.371,4.384,4.384,0,0,1-2.4-.628A3.119,3.119,0,0,1,96,46.3Z" transform="translate(56.244 22.898)" fill="#fff"/>
    <path id="Union_1" data-name="Union 1" d="M-4164.257,46.039v-.006h-15.431v-.008h-5.441v-.008h-10.438V35.584h10.438V25.159h10.431V35.6h10.441V4.327h-10.423V4.319h-16.448V4.311h-4.432V-6.12h4.432v-.008h-4.432V4.3h-.007V35.575H-4206V4.3h.007V-6.129h10.425V-26.992h10.431v.007h16.44v.008h4.439V-6.113h-4.439V-6.1h4.439V-26.969h10.431V-6.1h.009V4.335h-.009v41.7Zm20.872-.023V35.583h10.431V46.015Zm-10.432,0V35.583h10.432V46.015ZM-4206,46.007V35.575h10.432V46.007Zm62.615-10.424V4.3h.007V-6.12h10.432V4.311h-.008V35.583Zm-10.432,0V4.3h10.432v31.28Zm-41.751-10.424V14.727h10.431V25.159Zm52.183-31.288V-26.992h10.431V-6.129Zm-10.432,0V-26.992h10.432V-6.129ZM-4206-6.136V-27h10.432V-6.136Z" transform="translate(4206 27.316)" fill="#ccdb2a" stroke="rgba(0,0,0,0)" stroke-miterlimit="10" stroke-width="1"/>
    <rect id="Rectangle_13238" data-name="Rectangle 13238" width="10.432" height="10.432" transform="translate(41.743 10.779)" fill="#ccdb2a"/>
    <rect id="Rectangle_13244" data-name="Rectangle 13244" width="18.664" height="71.432" transform="translate(46.959 1.195)" fill="#ccdb2a"/>
  </g>
</svg>